<svg width="24" height="24" viewBox="0 0 24 24" fill="none" xmlns="http://www.w3.org/2000/svg">
  <path fill-rule="evenodd" clip-rule="evenodd" d="M12.2713 17.7426C12.1059 17.5707 12.0156 17.3402 12.0201 17.1016C12.0246 16.8631 12.1236 16.6362 12.2953 16.4706L17.0209 12.0186L12.2953 7.56661C12.2061 7.48569 12.1341 7.38768 12.0834 7.27839C12.0328 7.16911 12.0046 7.05077 12.0005 6.93039C11.9964 6.81001 12.0166 6.69004 12.0597 6.57759C12.1029 6.46513 12.1682 6.36248 12.2517 6.27572C12.3353 6.18896 12.4354 6.11985 12.5461 6.07249C12.6569 6.02513 12.776 6.00048 12.8964 6.00001C13.0169 5.99953 13.1362 6.02324 13.2473 6.06972C13.3584 6.1162 13.4591 6.18451 13.5433 6.27061L18.9433 11.3706C19.0304 11.4546 19.0997 11.5552 19.147 11.6666C19.1944 11.7779 19.2188 11.8976 19.2188 12.0186C19.2188 12.1396 19.1944 12.2593 19.147 12.3707C19.0997 12.482 19.0304 12.5827 18.9433 12.6666L13.5433 17.7666C13.3714 17.932 13.1409 18.0224 12.9024 18.0179C12.6638 18.0134 12.4369 17.9144 12.2713 17.7426Z" fill="#1A3760"/>
  <path fill-rule="evenodd" clip-rule="evenodd" d="M5.07138 17.7426C4.90598 17.5707 4.8156 17.3402 4.8201 17.1016C4.8246 16.8631 4.92361 16.6362 5.09538 16.4706L9.82098 12.0186L5.09538 7.56661C5.00616 7.48569 4.9341 7.38768 4.88346 7.27839C4.83282 7.16911 4.80463 7.05077 4.80056 6.93039C4.79649 6.81001 4.81663 6.69004 4.85978 6.57759C4.90293 6.46513 4.96821 6.36248 5.05176 6.27572C5.13531 6.18896 5.23542 6.11985 5.34617 6.07249C5.45691 6.02513 5.57604 6.00048 5.69649 6.00001C5.81694 5.99953 5.93625 6.02324 6.04737 6.06972C6.15849 6.1162 6.25915 6.18451 6.34338 6.27061L11.7434 11.3706C11.8305 11.4546 11.8998 11.5552 11.9471 11.6666C11.9944 11.7779 12.0188 11.8976 12.0188 12.0186C12.0188 12.1396 11.9944 12.2593 11.9471 12.3707C11.8998 12.482 11.8305 12.5827 11.7434 12.6666L6.34338 17.7666C6.17147 17.932 5.94092 18.0224 5.70241 18.0179C5.4639 18.0134 5.23693 17.9144 5.07138 17.7426Z" fill="#1A3760"/>
</svg>
