<svg width="24" height="24" viewBox="0 0 24 24" fill="none" xmlns="http://www.w3.org/2000/svg">
  <path fill-rule="evenodd" clip-rule="evenodd" d="M8.11148 18.6791C7.91881 18.4789 7.81353 18.2103 7.81877 17.9325C7.82401 17.6546 7.93935 17.3902 8.13944 17.1974L13.6444 12.0112L8.13944 6.82497C8.03552 6.7307 7.95157 6.61653 7.89258 6.48922C7.83358 6.36191 7.80075 6.22406 7.79601 6.08383C7.79127 5.9436 7.81473 5.80384 7.86499 5.67284C7.91526 5.54184 7.99131 5.42226 8.08863 5.32119C8.18596 5.22012 8.30258 5.13962 8.43159 5.08445C8.5606 5.02928 8.69937 5.00056 8.83969 5.00001C8.98 4.99945 9.11899 5.02707 9.24843 5.08122C9.37788 5.13536 9.49513 5.21494 9.59326 5.31524L15.8838 11.2563C15.9853 11.3541 16.066 11.4714 16.1211 11.6011C16.1762 11.7308 16.2046 11.8702 16.2046 12.0112C16.2046 12.1521 16.1762 12.2916 16.1211 12.4213C16.066 12.551 15.9853 12.6682 15.8838 12.766L9.59326 18.7071C9.393 18.8998 9.12443 19.0051 8.84658 18.9998C8.56873 18.9946 8.30433 18.8792 8.11148 18.6791Z" fill="#1A3760"/>
</svg>
