<svg width="24" height="28" viewBox="0 0 24 28" fill="none" xmlns="http://www.w3.org/2000/svg">
  <path d="M20.6302 17.62V2.54004H15.4202H6.78018H1.68018V26.67H13.7502" fill="white"/>
  <path d="M1.68018 26.6696H20.6802V5.86963C17.0202 11.7996 11.3202 15.4896 1.73018 14.8696L1.68018 26.6696Z"
        fill="#E3EFCB"/>
  <path
    d="M20.6304 18.6601C20.3652 18.6601 20.1108 18.5547 19.9233 18.3672C19.7357 18.1796 19.6304 17.9253 19.6304 17.6601V3.66008H15.4204C15.2838 3.66008 15.1486 3.63318 15.0224 3.58091C14.8962 3.52865 14.7816 3.45204 14.685 3.35547C14.5884 3.2589 14.5118 3.14425 14.4595 3.01807C14.4073 2.89189 14.3804 2.75665 14.3804 2.62008C14.3804 2.4835 14.4073 2.34827 14.4595 2.22209C14.5118 2.09591 14.5884 1.98126 14.685 1.88469C14.7816 1.78811 14.8962 1.71151 15.0224 1.65924C15.1486 1.60698 15.2838 1.58008 15.4204 1.58008H20.6304C20.8956 1.58008 21.1499 1.68544 21.3375 1.87297C21.525 2.06051 21.6304 2.31486 21.6304 2.58008V17.6201C21.6358 17.7547 21.6139 17.8891 21.566 18.0151C21.5182 18.141 21.4454 18.2561 21.352 18.3532C21.2586 18.4503 21.1465 18.5276 21.0225 18.5803C20.8985 18.6331 20.7651 18.6602 20.6304 18.6601Z"
    fill="#194175"/>
  <path
    d="M13.7502 27.71H1.68018C1.41496 27.71 1.16061 27.6047 0.973069 27.4171C0.785533 27.2296 0.680176 26.9753 0.680176 26.71V2.54004C0.680176 2.27482 0.785533 2.02047 0.973069 1.83293C1.16061 1.6454 1.41496 1.54004 1.68018 1.54004H6.78018C6.91675 1.54004 7.05199 1.56694 7.17817 1.6192C7.30435 1.67147 7.41899 1.74808 7.51557 1.84465C7.61214 1.94122 7.68875 2.05587 7.74101 2.18205C7.79328 2.30823 7.82018 2.44346 7.82018 2.58004C7.82018 2.71661 7.79328 2.85185 7.74101 2.97803C7.68875 3.10421 7.61214 3.21886 7.51557 3.31543C7.41899 3.412 7.30435 3.48861 7.17817 3.54087C7.05199 3.59314 6.91675 3.62004 6.78018 3.62004H2.72018V25.62H13.7202C13.996 25.62 14.2605 25.7296 14.4556 25.9246C14.6506 26.1197 14.7602 26.3842 14.7602 26.66C14.7602 26.9359 14.6506 27.2004 14.4556 27.3954C14.2605 27.5905 13.996 27.7 13.7202 27.7L13.7502 27.71Z"
    fill="#194175"/>
  <path
    d="M14.8003 23.6296C14.8003 22.7831 15.0513 21.9556 15.5216 21.2518C15.9919 20.5479 16.6603 19.9994 17.4424 19.6754C18.2245 19.3515 19.085 19.2667 19.9153 19.4319C20.7455 19.597 21.5081 20.0046 22.1067 20.6032C22.7053 21.2018 23.1129 21.9644 23.2781 22.7946C23.4432 23.6249 23.3584 24.4854 23.0345 25.2675C22.7106 26.0496 22.162 26.718 21.4581 27.1883C20.7543 27.6586 19.9268 27.9096 19.0803 27.9096C18.5182 27.9096 17.9617 27.7989 17.4424 27.5838C16.9231 27.3687 16.4513 27.0535 16.0539 26.656C15.6564 26.2586 15.3412 25.7868 15.1261 25.2675C14.911 24.7482 14.8003 24.1917 14.8003 23.6296Z"
    fill="#911F43"/>
  <path
    d="M19.0799 25.0002C18.9102 25.0002 18.7474 24.9327 18.6274 24.8127C18.5074 24.6927 18.4399 24.5299 18.4399 24.3602V21.0502C18.4399 20.8804 18.5074 20.7176 18.6274 20.5976C18.7474 20.4776 18.9102 20.4102 19.0799 20.4102C19.2497 20.4102 19.4125 20.4776 19.5325 20.5976C19.6525 20.7176 19.7199 20.8804 19.7199 21.0502V24.3602C19.7199 24.5299 19.6525 24.6927 19.5325 24.8127C19.4125 24.9327 19.2497 25.0002 19.0799 25.0002Z"
    fill="white"/>
  <path
    d="M19.0799 26.8499C18.9102 26.8499 18.7474 26.7824 18.6274 26.6624C18.5074 26.5424 18.4399 26.3796 18.4399 26.2099V25.9999C18.4399 25.8301 18.5074 25.6673 18.6274 25.5473C18.7474 25.4273 18.9102 25.3599 19.0799 25.3599C19.2497 25.3599 19.4125 25.4273 19.5325 25.5473C19.6525 25.6673 19.7199 25.8301 19.7199 25.9999V26.1899C19.7226 26.2756 19.708 26.361 19.6771 26.4409C19.6461 26.5209 19.5994 26.5938 19.5397 26.6554C19.48 26.717 19.4085 26.7659 19.3296 26.7993C19.2506 26.8327 19.1657 26.8499 19.0799 26.8499Z"
    fill="white"/>
  <path
    d="M12.5102 7.9999H4.71016C4.49798 7.9999 4.2945 7.91562 4.14447 7.76559C3.99444 7.61556 3.91016 7.41208 3.91016 7.1999C3.91016 6.98773 3.99444 6.78425 4.14447 6.63422C4.2945 6.48419 4.49798 6.3999 4.71016 6.3999H12.5102C12.7223 6.3999 12.9258 6.48419 13.0758 6.63422C13.2259 6.78425 13.3102 6.98773 13.3102 7.1999C13.3102 7.41208 13.2259 7.61556 13.0758 7.76559C12.9258 7.91562 12.7223 7.9999 12.5102 7.9999Z"
    fill="#194175"/>
  <path
    d="M17.5302 11.7797H4.71016C4.6051 11.7797 4.50107 11.759 4.40401 11.7188C4.30695 11.6786 4.21876 11.6197 4.14447 11.5454C4.07018 11.4711 4.01126 11.3829 3.97105 11.2858C3.93085 11.1888 3.91016 11.0847 3.91016 10.9797C3.91016 10.8746 3.93085 10.7706 3.97105 10.6735C4.01126 10.5765 4.07018 10.4883 4.14447 10.414C4.21876 10.3397 4.30695 10.2808 4.40401 10.2406C4.50107 10.2004 4.6051 10.1797 4.71016 10.1797H17.5302C17.6352 10.1797 17.7392 10.2004 17.8363 10.2406C17.9334 10.2808 18.0216 10.3397 18.0958 10.414C18.1701 10.4883 18.2291 10.5765 18.2693 10.6735C18.3095 10.7706 18.3302 10.8746 18.3302 10.9797C18.3302 11.0847 18.3095 11.1888 18.2693 11.2858C18.2291 11.3829 18.1701 11.4711 18.0958 11.5454C18.0216 11.6197 17.9334 11.6786 17.8363 11.7188C17.7392 11.759 17.6352 11.7797 17.5302 11.7797Z"
    fill="#194175"/>
  <path
    d="M11.8302 19.1498H4.71016C4.49798 19.1498 4.2945 19.0655 4.14447 18.9155C3.99444 18.7655 3.91016 18.562 3.91016 18.3498C3.91016 18.1376 3.99444 17.9341 4.14447 17.7841C4.2945 17.6341 4.49798 17.5498 4.71016 17.5498H11.8302C12.0423 17.5498 12.2458 17.6341 12.3958 17.7841C12.5459 17.9341 12.6302 18.1376 12.6302 18.3498C12.6302 18.562 12.5459 18.7655 12.3958 18.9155C12.2458 19.0655 12.0423 19.1498 11.8302 19.1498Z"
    fill="#194175"/>
  <path
    d="M17.2204 19.1498H15.2204C15.0082 19.1498 14.8048 19.0655 14.6547 18.9155C14.5047 18.7655 14.4204 18.562 14.4204 18.3498C14.4204 18.1376 14.5047 17.9341 14.6547 17.7841C14.8048 17.6341 15.0082 17.5498 15.2204 17.5498H17.2204C17.4326 17.5498 17.6361 17.6341 17.7861 17.7841C17.9361 17.9341 18.0204 18.1376 18.0204 18.3498C18.0204 18.562 17.9361 18.7655 17.7861 18.9155C17.6361 19.0655 17.4326 19.1498 17.2204 19.1498Z"
    fill="#194175"/>
  <path
    d="M11.8302 15.4696H4.71016C4.49798 15.4696 4.2945 15.3853 4.14447 15.2353C3.99444 15.0853 3.91016 14.8818 3.91016 14.6696C3.91016 14.4575 3.99444 14.254 4.14447 14.1039C4.2945 13.9539 4.49798 13.8696 4.71016 13.8696H11.8302C12.0423 13.8696 12.2458 13.9539 12.3958 14.1039C12.5459 14.254 12.6302 14.4575 12.6302 14.6696C12.6302 14.8818 12.5459 15.0853 12.3958 15.2353C12.2458 15.3853 12.0423 15.4696 11.8302 15.4696Z"
    fill="#194175"/>
  <path
    d="M17.2204 15.4701H15.2204C15.0082 15.4701 14.8048 15.3858 14.6547 15.2358C14.5047 15.0858 14.4204 14.8823 14.4204 14.6701C14.4204 14.4579 14.5047 14.2545 14.6547 14.1044C14.8048 13.9544 15.0082 13.8701 15.2204 13.8701H17.2204C17.4326 13.8701 17.6361 13.9544 17.7861 14.1044C17.9361 14.2545 18.0204 14.4579 18.0204 14.6701C18.0204 14.8823 17.9361 15.0858 17.7861 15.2358C17.6361 15.3858 17.4326 15.4701 17.2204 15.4701Z"
    fill="#194175"/>
  <path
    d="M11.8302 23.1801H4.71016C4.49798 23.1801 4.2945 23.0958 4.14447 22.9458C3.99444 22.7957 3.91016 22.5923 3.91016 22.3801C3.91016 22.1679 3.99444 21.9644 4.14447 21.8144C4.2945 21.6644 4.49798 21.5801 4.71016 21.5801H11.8302C12.0423 21.5801 12.2458 21.6644 12.3958 21.8144C12.5459 21.9644 12.6302 22.1679 12.6302 22.3801C12.6302 22.5923 12.5459 22.7957 12.3958 22.9458C12.2458 23.0958 12.0423 23.1801 11.8302 23.1801Z"
    fill="#194175"/>
  <path d="M14.9703 0.889648H7.34033V4.26965H14.9703V0.889648Z" fill="white"/>
  <path
    d="M15 5.06984H7.34004C7.12787 5.06984 6.92438 4.98556 6.77435 4.83553C6.62432 4.6855 6.54004 4.48202 6.54004 4.26984V0.889844C6.54004 0.784786 6.56073 0.680758 6.60094 0.583697C6.64114 0.486637 6.70007 0.398445 6.77435 0.324158C6.92438 0.174129 7.12787 0.0898438 7.34004 0.0898438H15C15.2122 0.0898438 15.4157 0.174129 15.5657 0.324158C15.7158 0.474188 15.8 0.677671 15.8 0.889844V4.26984C15.8 4.3749 15.7793 4.47893 15.7391 4.57599C15.6989 4.67305 15.64 4.76124 15.5657 4.83553C15.4914 4.90982 15.4032 4.96874 15.3062 5.00895C15.2091 5.04915 15.1051 5.06984 15 5.06984ZM8.17004 3.46984H14.17V1.68984H8.17004V3.46984Z"
    fill="#194175"/>
</svg>
