<svg width="32" height="32" viewBox="0 0 32 32" fill="none" xmlns="http://www.w3.org/2000/svg">
  <path
    d="M26.6668 16C26.6668 21.8911 21.8912 26.6667 16.0002 26.6667C10.1091 26.6667 5.3335 21.8911 5.3335 16C5.3335 10.109 10.1091 5.33337 16.0002 5.33337C21.8912 5.33337 26.6668 10.109 26.6668 16ZM11.456 16C11.456 18.5097 13.4905 20.5442 16.0002 20.5442C18.5098 20.5442 20.5443 18.5097 20.5443 16C20.5443 13.4904 18.5098 11.4559 16.0002 11.4559C13.4905 11.4559 11.456 13.4904 11.456 16Z"
    fill="#194175" fill-opacity="0.3"/>
  <path fill-rule="evenodd" clip-rule="evenodd"
        d="M12.0001 3.99996C12.0001 3.26358 12.597 2.66663 13.3334 2.66663H18.6668C19.4031 2.66663 20.0001 3.26358 20.0001 3.99996V5.65803C20.4995 5.82004 21.1639 6.06831 21.7255 6.40525C22.1687 6.67111 22.5553 6.98824 22.8571 7.26783L24.2604 6.45884L21.5667 9.77321L21.567 9.77355L21.5546 9.75849C21.5411 9.74211 21.5185 9.71522 21.4879 9.68002C21.4262 9.60924 21.3336 9.50701 21.2171 9.39024C20.9763 9.14866 20.6702 8.88188 20.3536 8.69193C20.0284 8.49681 19.5538 8.31354 19.1051 8.17146C18.8916 8.10383 18.7033 8.05149 18.5694 8.01635C18.5028 7.99885 18.4504 7.98582 18.4161 7.97748L18.3884 7.97087C18.2815 7.94815 18.1793 7.91261 18.0835 7.86594C17.7212 7.69016 17.4621 7.36033 17.37 6.97798C17.3437 6.8687 17.331 6.75513 17.3334 6.63963V5.33329H14.6668V6.66663C14.6668 7.32675 14.1838 7.88735 13.5312 7.98521L13.5303 7.98536L13.5094 7.98882C13.4883 7.99242 13.4536 7.99862 13.4076 8.00772C13.3151 8.02601 13.1798 8.05548 13.02 8.0983C12.6894 8.18689 12.3041 8.31943 11.9806 8.49903C11.6495 8.68284 11.2546 9.00172 10.9084 9.31881C10.7436 9.46973 10.6046 9.60647 10.5076 9.70469C10.4716 9.74113 10.4417 9.77194 10.4188 9.79584C10.0133 10.2926 9.29639 10.4372 8.7223 10.1072L7.55983 9.43901L6.22719 11.7472L7.37865 12.412C7.95067 12.7423 8.19462 13.4415 7.95238 14.0558L7.95234 14.0559L7.945 14.0755C7.93758 14.0955 7.92559 14.1287 7.91047 14.173C7.88007 14.2622 7.83795 14.394 7.79514 14.5537C7.70656 14.8841 7.62871 15.2836 7.6224 15.6531C7.61595 16.0308 7.69485 16.5336 7.79683 16.9945C7.84534 17.2137 7.89451 17.4035 7.93126 17.5374C7.94492 17.5872 7.95674 17.6288 7.96602 17.6608C8.14368 18.1349 8.03398 18.6665 7.69693 19.0316C7.5933 19.1447 7.46919 19.241 7.32798 19.3139L6.22867 19.9486L7.562 22.258L8.71671 21.5913C9.28871 21.2611 10.0162 21.3994 10.4271 21.9163L10.4404 21.9325C10.4541 21.949 10.4768 21.976 10.5077 22.0113C10.5698 22.0822 10.663 22.1847 10.78 22.3017C11.022 22.5437 11.3294 22.8111 11.6467 23.0014C11.9719 23.1965 12.4465 23.3798 12.8951 23.5219C13.1086 23.5895 13.2969 23.6418 13.4308 23.677C13.4974 23.6944 13.5498 23.7075 13.5841 23.7158L13.608 23.7215C13.8971 23.7822 14.1533 23.9369 14.3413 24.1536C14.4735 24.306 14.5719 24.4889 14.6242 24.6913C14.6493 24.7876 14.6638 24.8875 14.6666 24.9892L14.7351 26.36H17.3912V25.0691C17.3912 24.4091 17.874 23.8487 18.5262 23.7506H18.5263L18.5271 23.7505L18.5279 23.7503L18.5283 23.7503L18.5483 23.747C18.5689 23.7434 18.603 23.7374 18.6482 23.7284C18.7391 23.7105 18.8721 23.6816 19.0293 23.6395C19.3545 23.5526 19.7328 23.4226 20.05 23.2468C20.3791 23.0644 20.8021 22.7291 21.1834 22.3905C21.3644 22.2298 21.5195 22.0831 21.6289 21.9771C21.6834 21.9244 21.726 21.8822 21.7542 21.8541L21.7851 21.823L21.7918 21.8162L21.7922 21.8158L21.7953 21.8188L21.7955 21.8187L21.7924 21.8156C22.045 21.5566 22.3774 21.4223 22.7127 21.4138C22.9627 21.4059 23.2178 21.4682 23.4474 21.6082L24.4578 22.2242L25.1074 21.0991L25.7731 19.9461L24.6216 19.2813C24.0496 18.951 23.8057 18.2518 24.0479 17.6375L24.0479 17.6374L24.0553 17.6178C24.0627 17.5978 24.0747 17.5646 24.0898 17.5203C24.1202 17.4311 24.1623 17.2993 24.2051 17.1396C24.2937 16.8092 24.3716 16.4097 24.3779 16.0402C24.3843 15.6625 24.3054 15.1597 24.2035 14.6988C24.1549 14.4796 24.1058 14.2898 24.069 14.1559C24.0554 14.1063 24.0436 14.0648 24.0343 14.0327C23.8584 13.5635 23.964 13.0379 24.2929 12.6732C24.399 12.5547 24.5271 12.4541 24.6737 12.3786L25.7716 11.7447L24.4379 9.4346L23.2794 10.1024C22.7064 10.4328 21.978 10.2931 21.5678 9.77453L21.5677 9.77444L21.5677 9.7744L21.567 9.77355L24.2604 6.45884C24.8981 6.09124 25.713 6.30988 26.081 6.94731L28.7477 11.5661C29.1159 12.2038 28.8974 13.0193 28.2597 13.3875L26.8271 14.2145C26.9372 14.7289 27.0554 15.4302 27.0442 16.0857C27.0353 16.6019 26.9543 17.0952 26.8634 17.4964L28.2611 18.3033C28.8988 18.6715 29.1173 19.487 28.7492 20.1247L27.4168 22.4324L26.0844 24.7401C25.9049 25.0512 25.6074 25.2766 25.2594 25.3654C24.9114 25.4542 24.5423 25.3989 24.2357 25.2119L22.9232 24.4118C22.5119 24.7751 21.9246 25.2567 21.3425 25.5793C20.9009 25.824 20.4435 25.9972 20.0579 26.1174V27.6933L18.5298 23.7501L18.5294 23.7501L20.0579 27.6933C20.0579 28.4297 19.461 29.0267 18.7246 29.0267H13.4668C12.7563 29.0267 12.1706 28.4695 12.1351 27.7599L12.0497 26.0513C11.5453 25.8898 10.8551 25.6363 10.2748 25.2881C9.8314 25.0221 9.44404 24.7048 9.14167 24.4252L7.74064 25.2341C7.10291 25.6023 6.28746 25.3838 5.91927 24.746L3.2526 20.1272C2.88441 19.4895 3.10291 18.6741 3.74064 18.3059L5.17317 17.4788C5.06307 16.9644 4.94492 16.2631 4.95612 15.6076C4.96494 15.0914 5.04603 14.5981 5.13687 14.1969L3.73916 13.3899C3.10143 13.0218 2.88293 12.2063 3.25112 11.5686L5.91584 6.95315C6.28354 6.31628 7.09746 6.09737 7.73503 6.46386L9.17438 7.29125C9.56393 6.9393 10.1118 6.48645 10.6862 6.16756C11.1383 5.9166 11.6068 5.73982 12.0001 5.61773V3.99996ZM13.3335 16C13.3335 14.5272 14.5274 13.3333 16.0001 13.3333C17.4729 13.3333 18.6668 14.5272 18.6668 16C18.6668 17.4727 17.4729 18.6666 16.0001 18.6666C14.5274 18.6666 13.3335 17.4727 13.3335 16ZM16.0001 10.6666C13.0546 10.6666 10.6668 13.0544 10.6668 16C10.6668 18.9455 13.0546 21.3333 16.0001 21.3333C18.9456 21.3333 21.3335 18.9455 21.3335 16C21.3335 13.0544 18.9456 10.6666 16.0001 10.6666Z"
        fill="#194175"/>
</svg>
