<svg width="24" height="28" viewBox="0 0 24 28" fill="none" xmlns="http://www.w3.org/2000/svg">
  <path
    d="M12.0004 4.09033C14.1991 4.09033 16.3077 4.96374 17.8624 6.51842C19.417 8.07309 20.2905 10.1817 20.2905 12.3803V23.4903H3.71045V12.3803C3.71045 11.2917 3.92488 10.2137 4.34149 9.20789C4.7581 8.2021 5.36874 7.28821 6.13853 6.51842C7.69321 4.96374 9.8018 4.09033 12.0004 4.09033Z"
    fill="white"/>
  <path d="M3.71045 23.4902V16.0002C11.7104 16.2402 16.2104 13.0002 18.8404 7.74023L20.2905 11.1102V23.4902H3.71045Z"
        fill="#E3EFCB"/>
  <path
    d="M20.2905 24.5303H3.71045C3.44523 24.5303 3.19088 24.4249 3.00334 24.2374C2.81581 24.0499 2.71045 23.7955 2.71045 23.5303V12.3803C2.71045 9.90582 3.69343 7.5327 5.44314 5.78299C7.19286 4.03327 9.56598 3.05029 12.0405 3.05029C14.5149 3.05029 16.888 4.03327 18.6378 5.78299C20.3875 7.5327 21.3704 9.90582 21.3704 12.3803V23.4903C21.3766 23.6319 21.3525 23.7733 21.2999 23.9049C21.2472 24.0366 21.1672 24.1555 21.065 24.2539C20.9629 24.3522 20.841 24.4278 20.7075 24.4754C20.5739 24.5231 20.4318 24.5418 20.2905 24.5303ZM4.75045 22.4503H19.2505V12.3803C19.2505 10.4575 18.4866 8.61341 17.127 7.25377C15.7673 5.89413 13.9233 5.13029 12.0004 5.13029C10.0776 5.13029 8.23356 5.89413 6.87393 7.25377C5.51429 8.61341 4.75045 10.4575 4.75045 12.3803V22.4503Z"
    fill="#194175"/>
  <path
    d="M12.0004 27.5102C11.2453 27.5076 10.522 27.2064 9.98805 26.6725C9.45414 26.1386 9.15303 25.4153 9.15039 24.6602V23.7102C9.15039 23.376 9.28314 23.0555 9.51944 22.8192C9.75573 22.5829 10.0762 22.4502 10.4104 22.4502H13.5904C13.9246 22.4502 14.2451 22.5829 14.4813 22.8192C14.7176 23.0555 14.8504 23.376 14.8504 23.7102V24.6602C14.8457 25.1288 14.7255 25.5891 14.5004 26.0002C14.2578 26.4533 13.8976 26.8327 13.4577 27.0984C13.0177 27.3641 12.5143 27.5064 12.0004 27.5102ZM11.2304 24.5102V24.6402C11.2304 24.8444 11.3115 25.0403 11.4559 25.1847C11.6003 25.3291 11.7962 25.4102 12.0004 25.4102C12.138 25.4114 12.2733 25.3747 12.3915 25.3042C12.5097 25.2336 12.6062 25.1319 12.6704 25.0102C12.7336 24.8969 12.7679 24.7699 12.7704 24.6402V24.5102H11.2304Z"
    fill="#194175"/>
  <path
    d="M12.0003 0.490234C12.5785 0.490234 13.133 0.719912 13.5418 1.12874C13.9506 1.53757 14.1803 2.09206 14.1803 2.67023V4.09023H9.82031V2.67023C9.82031 2.09206 10.05 1.53757 10.4588 1.12874C10.8676 0.719912 11.4221 0.490234 12.0003 0.490234Z"
    fill="#194175"/>
  <path
    d="M20.2901 19.9999H16.1401C15.8643 19.9999 15.5997 19.8904 15.4047 19.6953C15.2097 19.5003 15.1001 19.2357 15.1001 18.9599C15.1001 18.6841 15.2097 18.4196 15.4047 18.2245C15.5997 18.0295 15.8643 17.9199 16.1401 17.9199H20.2901C20.5659 17.9199 20.8305 18.0295 21.0255 18.2245C21.2205 18.4196 21.3301 18.6841 21.3301 18.9599C21.3301 19.2357 21.2205 19.5003 21.0255 19.6953C20.8305 19.8904 20.5659 19.9999 20.2901 19.9999Z"
    fill="#194175"/>
  <path
    d="M11.7402 20.0004H3.7402C3.46437 20.0004 3.19984 19.8908 3.0048 19.6958C2.80977 19.5008 2.7002 19.2362 2.7002 18.9604C2.7002 18.6846 2.80977 18.4201 3.0048 18.225C3.19984 18.03 3.46437 17.9204 3.7402 17.9204H11.7402C12.016 17.9204 12.2805 18.03 12.4756 18.225C12.6706 18.4201 12.7802 18.6846 12.7802 18.9604C12.7802 19.2362 12.6706 19.5008 12.4756 19.6958C12.2805 19.8908 12.016 20.0004 11.7402 20.0004Z"
    fill="#194175"/>
  <path
    d="M22.4702 24.5302H1.53023C1.25441 24.5302 0.989882 24.4206 0.794844 24.2256C0.599806 24.0305 0.490234 23.766 0.490234 23.4902C0.490234 23.2144 0.599806 22.9498 0.794844 22.7548C0.989882 22.5598 1.25441 22.4502 1.53023 22.4502H22.4702C22.7461 22.4502 23.0106 22.5598 23.2056 22.7548C23.4007 22.9498 23.5102 23.2144 23.5102 23.4902C23.5102 23.766 23.4007 24.0305 23.2056 24.2256C23.0106 24.4206 22.7461 24.5302 22.4702 24.5302Z"
    fill="#194175"/>
</svg>
