<svg width="24" height="24" viewBox="0 0 24 24" fill="none" xmlns="http://www.w3.org/2000/svg">
  <path fill-rule="evenodd" clip-rule="evenodd" d="M15.8885 5.32086C16.0812 5.52112 16.1865 5.78968 16.1812 6.06753C16.176 6.34538 16.0606 6.60978 15.8606 6.80263L10.3556 11.9888L15.8606 17.175C15.9645 17.2693 16.0484 17.3835 16.1074 17.5108C16.1664 17.6381 16.1993 17.7759 16.204 17.9162C16.2087 18.0564 16.1853 18.1962 16.135 18.3272C16.0847 18.4582 16.0087 18.5777 15.9114 18.6788C15.814 18.7799 15.6974 18.8604 15.5684 18.9156C15.4394 18.9707 15.3006 18.9994 15.1603 19C15.02 19.0005 14.881 18.9729 14.7516 18.9188C14.6221 18.8646 14.5049 18.7851 14.4067 18.6848L8.1162 12.7437C8.01474 12.6459 7.93403 12.5286 7.8789 12.3989C7.82377 12.2692 7.79536 12.1298 7.79536 11.9888C7.79536 11.8479 7.82377 11.7084 7.8789 11.5787C7.93403 11.449 8.01474 11.3318 8.1162 11.234L14.4067 5.2929C14.607 5.10023 14.8756 4.99494 15.1534 5.00019C15.4313 5.00543 15.6957 5.12077 15.8885 5.32086Z" fill="#CBD5E1"/>
</svg>
