<svg width="16" height="13" viewBox="0 0 16 13" fill="none" xmlns="http://www.w3.org/2000/svg">
  <path fill-rule="evenodd" clip-rule="evenodd" d="M7.74741 0.275453C7.9128 0.447363 8.00318 0.677906 7.99868 0.91642C7.99418 1.15493 7.89517 1.3819 7.72341 1.54745L2.99781 5.99945L7.72341 10.4515C7.81262 10.5324 7.88469 10.6304 7.93533 10.7397C7.98597 10.849 8.01416 10.9673 8.01822 11.0877C8.02229 11.2081 8.00215 11.328 7.95901 11.4405C7.91586 11.5529 7.85057 11.6556 7.76703 11.7423C7.68348 11.8291 7.58337 11.8982 7.47262 11.9456C7.36187 11.9929 7.24275 12.0176 7.1223 12.0181C7.00185 12.0185 6.88253 11.9948 6.77142 11.9483C6.6603 11.9019 6.55964 11.8336 6.47541 11.7475L1.07541 6.64745C0.988305 6.5635 0.919023 6.46284 0.8717 6.35151C0.824377 6.24017 0.799987 6.12043 0.799987 5.99945C0.799987 5.87848 0.824377 5.75874 0.8717 5.6474C0.919022 5.53606 0.988305 5.43541 1.07541 5.35145L6.47541 0.251454C6.64732 0.0860568 6.87786 -0.004321 7.11638 0.000178416C7.35489 0.00467878 7.58186 0.103689 7.74741 0.275453Z" fill="#CBD5E1"/>
  <path fill-rule="evenodd" clip-rule="evenodd" d="M14.9474 0.275453C15.1128 0.447363 15.2032 0.677906 15.1987 0.91642C15.1942 1.15493 15.0952 1.3819 14.9234 1.54745L10.1978 5.99945L14.9234 10.4515C15.0126 10.5324 15.0847 10.6304 15.1353 10.7397C15.186 10.849 15.2142 10.9673 15.2182 11.0877C15.2223 11.2081 15.2022 11.328 15.159 11.4405C15.1159 11.5529 15.0506 11.6556 14.967 11.7423C14.8835 11.8291 14.7834 11.8982 14.6726 11.9456C14.5619 11.9929 14.4428 12.0176 14.3223 12.0181C14.2019 12.0185 14.0825 11.9948 13.9714 11.9483C13.8603 11.9019 13.7597 11.8336 13.6754 11.7475L8.27542 6.64745C8.18832 6.5635 8.11903 6.46284 8.07171 6.35151C8.02439 6.24017 8 6.12043 8 5.99945C8 5.87848 8.02439 5.75874 8.07171 5.6474C8.11903 5.53606 8.18832 5.43541 8.27542 5.35145L13.6754 0.251454C13.8473 0.0860568 14.0779 -0.004321 14.3164 0.000178416C14.5549 0.00467878 14.7819 0.103689 14.9474 0.275453Z" fill="#CBD5E1"/>
</svg>
