<svg width="16" height="16" viewBox="0 0 16 16" fill="none" xmlns="http://www.w3.org/2000/svg">
  <path
    d="M8.00289 14.9319C7.09729 14.9335 6.20031 14.7561 5.36343 14.41C4.52655 14.064 3.76626 13.5561 3.1262 12.9154C0.437099 10.2263 0.437099 5.85112 3.1262 3.16202C4.42882 1.85939 6.16069 1.1416 8.00289 1.1416C9.8451 1.1416 11.577 1.85884 12.8796 3.16202C15.5687 5.85112 15.5687 10.2263 12.8796 12.9154C12.2395 13.5561 11.4792 14.064 10.6424 14.41C9.80548 14.7561 8.90849 14.9335 8.00289 14.9319V14.9319ZM8.00289 2.24505C7.24176 2.24295 6.48777 2.39187 5.78459 2.68318C5.08141 2.97449 4.443 3.40241 3.90634 3.94215C1.64813 6.20091 1.64813 9.87595 3.90634 12.1353C6.1651 14.3935 9.84013 14.3935 12.0994 12.1353C14.3577 9.8765 14.3577 6.20146 12.0994 3.94215C11.5627 3.40251 10.9243 2.97465 10.2211 2.68335C9.51796 2.39205 8.76401 2.24307 8.00289 2.24505V2.24505ZM12.4895 12.5253H12.495H12.4895Z"
    fill="#194175"/>
  <path
    d="M7.17386 10.6865C7.10139 10.6866 7.02963 10.6724 6.96269 10.6446C6.89575 10.6169 6.83495 10.5762 6.78379 10.5249L4.44282 8.18392C4.3916 8.1327 4.35096 8.07189 4.32324 8.00496C4.29552 7.93803 4.28125 7.8663 4.28125 7.79385C4.28125 7.72141 4.29552 7.64968 4.32324 7.58275C4.35096 7.51582 4.3916 7.45501 4.44282 7.40378C4.49405 7.35256 4.55486 7.31193 4.62179 7.2842C4.68872 7.25648 4.76045 7.24221 4.83289 7.24221C4.90533 7.24221 4.97707 7.25648 5.04399 7.2842C5.11092 7.31193 5.17173 7.35256 5.22296 7.40378L7.17386 9.35468L10.781 5.74751C10.8323 5.69628 10.8931 5.65565 10.96 5.62793C11.0269 5.60021 11.0987 5.58594 11.1711 5.58594C11.2435 5.58594 11.3153 5.60021 11.3822 5.62793C11.4491 5.65565 11.5099 5.69628 11.5612 5.74751C11.6124 5.79873 11.653 5.85955 11.6807 5.92647C11.7085 5.9934 11.7227 6.06514 11.7227 6.13758C11.7227 6.21002 11.7085 6.28175 11.6807 6.34868C11.653 6.41561 11.6124 6.47642 11.5612 6.52765L7.56392 10.5249C7.51276 10.5762 7.45196 10.6169 7.38502 10.6446C7.31808 10.6724 7.24632 10.6866 7.17386 10.6865V10.6865Z"
    fill="#E3EFCB" stroke="#194175" stroke-width="0.7" stroke-miterlimit="10" stroke-linecap="round"
    stroke-linejoin="round"/>
</svg>
