<svg width="40" height="40" viewBox="0 0 40 40" fill="none" xmlns="http://www.w3.org/2000/svg">
  <circle cx="20" cy="20" r="20" fill="#A0D061" fill-opacity="0.2"/>
  <circle cx="20" cy="20" r="12" fill="white"/>
  <path
    d="M19.9999 33.8658C18.1887 33.8689 16.3948 33.5141 14.721 32.822C13.0472 32.1299 11.5267 31.1141 10.2465 29.8327C4.86834 24.4545 4.86834 15.7042 10.2465 10.326C12.8518 7.72074 16.3155 6.28516 19.9999 6.28516C23.6843 6.28516 27.1481 7.71964 29.7533 10.326C35.1315 15.7042 35.1315 24.4545 29.7533 29.8327C28.4732 31.1141 26.9526 32.1299 25.2789 32.822C23.6051 33.5141 21.8111 33.8689 19.9999 33.8658ZM19.9999 8.49205C18.4777 8.48785 16.9697 8.78569 15.5633 9.36831C14.157 9.95094 12.8801 10.8068 11.8068 11.8863C7.29041 16.4038 7.29041 23.7538 11.8068 28.2725C16.3243 32.7889 23.6744 32.7889 28.193 28.2725C32.7094 23.7549 32.7094 16.4049 28.193 11.8863C27.1196 10.807 25.8427 9.95126 24.4364 9.36865C23.0301 8.78604 21.5222 8.4881 19.9999 8.49205ZM28.9732 29.0526H28.9842H28.9732Z"
    fill="#194175"/>
  <path
    d="M18.3448 25.3731C18.1999 25.3732 18.0563 25.3448 17.9225 25.2893C17.7886 25.2338 17.667 25.1524 17.5646 25.0498L12.8827 20.3678C12.7803 20.2654 12.699 20.1438 12.6436 20.0099C12.5881 19.8761 12.5596 19.7326 12.5596 19.5877C12.5596 19.4428 12.5881 19.2994 12.6436 19.1655C12.699 19.0316 12.7803 18.91 12.8827 18.8076C12.9852 18.7051 13.1068 18.6239 13.2406 18.5684C13.3745 18.513 13.518 18.4844 13.6629 18.4844C13.8077 18.4844 13.9512 18.513 14.0851 18.5684C14.2189 18.6239 14.3405 18.7051 14.443 18.8076L18.3448 22.7094L25.5591 15.495C25.6616 15.3926 25.7832 15.3113 25.9171 15.2559C26.0509 15.2004 26.1944 15.1719 26.3393 15.1719C26.4841 15.1719 26.6276 15.2004 26.7615 15.2559C26.8953 15.3113 27.017 15.3926 27.1194 15.495C27.2218 15.5975 27.3031 15.7191 27.3586 15.8529C27.414 15.9868 27.4425 16.1303 27.4425 16.2752C27.4425 16.42 27.414 16.5635 27.3586 16.6974C27.3031 16.8312 27.2218 16.9528 27.1194 17.0553L19.1249 25.0498C19.0226 25.1524 18.901 25.2338 18.7671 25.2893C18.6332 25.3448 18.4897 25.3732 18.3448 25.3731Z"
    fill="#E3EFCB" stroke="#194175" stroke-width="0.3" stroke-miterlimit="10" stroke-linecap="round"
    stroke-linejoin="round"/>
</svg>
