<svg width="16" height="16" viewBox="0 0 16 16" fill="none" xmlns="http://www.w3.org/2000/svg">
  <path opacity="0.2" d="M7 3.5L11.5 1L14 5.5L9 10L7 3.5Z" fill="#42638E"/>
  <path
    d="M7.78895 11.8337L7.95395 11.6372C8.1357 11.4207 8.45895 11.3924 8.67545 11.5742L9.06845 11.9039C9.28495 12.0857 9.3132 12.4089 9.1317 12.6254L8.9667 12.8219L7.48445 14.5859C6.99795 15.1644 6.27845 15.4999 5.5232 15.4999C4.9217 15.4999 4.33795 15.2874 3.87695 14.9009L1.91595 13.2547C1.33745 12.7682 1.00195 12.0489 1.00195 11.2909C1.00195 10.6894 1.21445 10.1082 1.6037 9.64745L4.5657 6.11944C4.5657 6.11694 4.5657 6.11694 4.5657 6.11694C5.0522 5.53844 5.7717 5.20544 6.52695 5.20544C7.12845 5.20544 7.7122 5.41794 8.17295 5.80469L9.1432 6.61869L9.33795 6.78294C9.5542 6.96494 9.5822 7.28869 9.40045 7.50519L9.07295 7.89569C8.89145 8.1122 8.5682 8.14044 8.3517 7.95895L8.1552 7.79395L7.1847 6.97969C7.00045 6.82619 6.76745 6.74169 6.52695 6.74169C6.2247 6.74169 5.93795 6.87469 5.74345 7.10519L2.7787 10.6357C2.6252 10.8199 2.5382 11.0529 2.5382 11.2937C2.5382 11.5957 2.6737 11.8824 2.9042 12.0769L4.8652 13.7232C5.0497 13.8794 5.2827 13.9639 5.5232 13.9639C5.82545 13.9639 6.1122 13.8307 6.3067 13.5977L7.78895 11.8337Z"
    fill="#8CC63C"/>
  <path
    d="M8.21171 4.16625L8.04671 4.36275C7.86521 4.57925 7.54196 4.6075 7.32546 4.42575L6.93221 4.096C6.71571 3.91425 6.68746 3.591 6.86921 3.3745L7.03421 3.178L8.51646 1.414C9.00296 0.8355 9.72221 0.5 10.4775 0.5C11.0792 0.5 11.663 0.7125 12.1237 1.099L14.0847 2.74525C14.6635 3.23175 14.9987 3.951 14.9987 4.709C14.9987 5.3105 14.7862 5.89175 14.3972 6.3525L11.435 9.8805C11.435 9.883 11.435 9.883 11.435 9.883C10.9485 10.4615 10.2292 10.7945 9.47396 10.7945C8.87221 10.7945 8.28846 10.582 7.82771 10.1952L6.85746 9.38125L6.66271 9.217C6.44671 9.035 6.41871 8.71125 6.60021 8.49475L6.92771 8.10425C7.10946 7.88775 7.43246 7.8595 7.64896 8.041L7.84571 8.206L8.81596 9.02025C9.00021 9.17375 9.23321 9.25825 9.47396 9.25825C9.77596 9.25825 10.0627 9.12525 10.2575 8.89475L13.222 5.36425C13.3757 5.18 13.4627 4.947 13.4627 4.70625C13.4627 4.40425 13.327 4.1175 13.0965 3.923L11.1355 2.27675C10.9512 2.1205 10.7182 2.036 10.4775 2.036C10.1755 2.036 9.88871 2.16925 9.69421 2.40225L8.21171 4.16625Z"
    fill="#8CC63C"/>
</svg>
