<svg width="24" height="18" viewBox="0 0 24 18" fill="none" xmlns="http://www.w3.org/2000/svg">
  <path
    d="M19.5 9C19.4475 9 19.398 9.0135 19.347 9.015C19.4491 8.51648 19.5004 8.00887 19.5 7.5C19.5 3.3585 16.1415 0 12 0C7.8585 0 4.5 3.3585 4.5 7.5C4.5 7.5255 4.5075 7.5495 4.5075 7.575C1.9635 7.938 0 10.1055 0 12.75C0 14.1424 0.553123 15.4777 1.53769 16.4623C2.52226 17.4469 3.85761 18 5.25 18H9.012C9.20741 18 9.4009 17.9615 9.58143 17.8867C9.76197 17.812 9.926 17.7023 10.0642 17.5642C10.2023 17.426 10.312 17.262 10.3867 17.0814C10.4615 16.9009 10.5 16.7074 10.5 16.512V12H7.317L12 6L16.683 12H13.5V16.512C13.5 17.334 14.166 18 14.988 18H19.5C20.0909 18 20.6761 17.8836 21.2221 17.6575C21.768 17.4313 22.2641 17.0998 22.682 16.682C23.0998 16.2641 23.4313 15.768 23.6575 15.2221C23.8836 14.6761 24 14.0909 24 13.5C24 12.9091 23.8836 12.3239 23.6575 11.7779C23.4313 11.232 23.0998 10.7359 22.682 10.318C22.2641 9.90016 21.768 9.56869 21.2221 9.34254C20.6761 9.1164 20.0909 9 19.5 9Z"
    fill="#1E263E"/>
</svg>
