<svg width="40" height="40" viewBox="0 0 40 40" fill="none" xmlns="http://www.w3.org/2000/svg">
  <circle cx="20" cy="20" r="20" fill="#FF5D54" fill-opacity="0.1"/>
  <circle cx="20.5" cy="20.5" r="12.5" fill="white"/>
  <path
    d="M19.787 33.5807C17.9758 33.5837 16.1819 33.229 14.5081 32.5369C12.8344 31.8448 11.3138 30.8289 10.0337 29.5476C4.65545 24.1694 4.65545 15.419 10.0337 10.0408C12.6389 7.43559 16.1026 6 19.787 6C23.4714 6 26.9352 7.43448 29.5404 10.0408C34.9186 15.419 34.9186 24.1694 29.5404 29.5476C28.2603 30.8289 26.7397 31.8448 25.066 32.5369C23.3922 33.229 21.5982 33.5837 19.787 33.5807ZM19.787 8.2069C18.2648 8.2027 16.7568 8.50053 15.3504 9.08316C13.9441 9.66578 12.6673 10.5216 11.5939 11.6011C7.07752 16.1186 7.07752 23.4687 11.5939 27.9873C16.1114 32.5037 23.4615 32.5037 27.9801 27.9873C32.4966 23.4698 32.4966 16.1197 27.9801 11.6011C26.9067 10.5218 25.6298 9.66611 24.2235 9.0835C22.8172 8.50089 21.3093 8.20294 19.787 8.2069ZM28.7603 28.7674H28.7713H28.7603Z"
    fill="#194175"/>
  <path
    d="M14.45 25.55C14.75 25.85 15.05 26 15.5 26C15.95 26 16.25 25.85 16.55 25.55L20 22.1L23.45 25.55C23.75 25.85 24.2 26 24.5 26C24.8 26 25.25 25.85 25.55 25.55C26.15 24.95 26.15 24.05 25.55 23.45L22.1 20L25.55 16.55C26.15 15.95 26.15 15.05 25.55 14.45C24.95 13.85 24.05 13.85 23.45 14.45L20 17.9L16.55 14.45C15.95 13.85 15.05 13.85 14.45 14.45C13.85 15.05 13.85 15.95 14.45 16.55L17.9 20L14.45 23.45C13.85 24.05 13.85 24.95 14.45 25.55Z"
    fill="#E3EFCB" stroke="#194175" stroke-width="0.4"/>
</svg>
