<svg width="16" height="17" viewBox="0 0 16 17" fill="none" xmlns="http://www.w3.org/2000/svg">
  <path d="M9 3.53304V2.01953L12 5.55106H9V3.53304Z" fill="#E3EFCB"/>
  <path
    d="M2.66602 2.6891C2.66602 1.94608 3.26297 1.34375 3.99935 1.34375H9.33268C9.50949 1.34375 9.67906 1.41462 9.80409 1.54077L13.1374 4.90413C13.2624 5.03029 13.3327 5.20138 13.3327 5.37979V13.4519C13.3327 14.1949 12.7357 14.7972 11.9993 14.7972H3.99935C3.26297 14.7972 2.66602 14.1949 2.66602 13.4519V2.6891ZM11.7232 5.37979L9.33268 2.96773V5.37979H11.7232ZM7.99935 2.6891L3.99935 2.6891V13.4519H11.9993V6.72513H8.66602C8.29783 6.72513 7.99935 6.42397 7.99935 6.05246V2.6891ZM7.99935 7.73414C8.36754 7.73414 8.66602 8.03531 8.66602 8.40681V10.1462L8.86128 9.94918C9.12163 9.68648 9.54374 9.68648 9.80409 9.94918C10.0644 10.2119 10.0644 10.6378 9.80409 10.9005L8.47075 12.2458C8.2104 12.5085 7.78829 12.5085 7.52794 12.2458L6.19461 10.9005C5.93426 10.6378 5.93426 10.2119 6.19461 9.94918C6.45496 9.68648 6.87707 9.68648 7.13742 9.94918L7.33268 10.1462V8.40681C7.33268 8.03531 7.63116 7.73414 7.99935 7.73414Z"
    fill="#194175"/>
</svg>
