<svg width="12" height="14" viewBox="0 0 12 14" fill="none" xmlns="http://www.w3.org/2000/svg">
  <path
    d="M0.666016 1.66732C0.666016 0.930939 1.26297 0.333984 1.99935 0.333984H7.33268C7.50949 0.333984 7.67906 0.404222 7.80409 0.529247L11.1374 3.86258C11.2624 3.9876 11.3327 4.15717 11.3327 4.33398V12.334C11.3327 13.0704 10.7357 13.6673 9.99935 13.6673H1.99935C1.26297 13.6673 0.666016 13.0704 0.666016 12.334V1.66732ZM9.72321 4.33398L7.33268 1.94346V4.33398H9.72321ZM5.99935 1.66732L1.99935 1.66732V12.334H9.99935V5.66732H6.66602C6.29783 5.66732 5.99935 5.36884 5.99935 5.00065V1.66732ZM3.33268 7.66732C3.33268 7.29913 3.63116 7.00065 3.99935 7.00065H7.99935C8.36754 7.00065 8.66602 7.29913 8.66602 7.66732C8.66602 8.03551 8.36754 8.33398 7.99935 8.33398H3.99935C3.63116 8.33398 3.33268 8.03551 3.33268 7.66732ZM3.33268 10.334C3.33268 9.96579 3.63116 9.66732 3.99935 9.66732H7.99935C8.36754 9.66732 8.66602 9.96579 8.66602 10.334C8.66602 10.7022 8.36754 11.0007 7.99935 11.0007H3.99935C3.63116 11.0007 3.33268 10.7022 3.33268 10.334Z"
    fill="#194175"/>
</svg>
