<svg width="16" height="16" viewBox="0 0 16 16" fill="none" xmlns="http://www.w3.org/2000/svg">
  <path
    d="M10.0002 8.00004C10.0002 9.10461 9.10473 10 8.00016 10C6.89559 10 6.00016 9.10461 6.00016 8.00004C6.00016 6.89547 6.89559 6.00004 8.00016 6.00004C9.10473 6.00004 10.0002 6.89547 10.0002 8.00004Z"
    fill="#104075"/>
  <path
    d="M14.5964 7.7019C13.1576 4.82427 10.6022 3.33337 8.00016 3.33337C5.39808 3.33337 2.84269 4.82427 1.40388 7.7019C1.31004 7.88958 1.31004 8.1105 1.40388 8.29818C2.84269 11.1758 5.39808 12.6667 8.00016 12.6667C10.6022 12.6667 13.1576 11.1758 14.5964 8.29818C14.6903 8.1105 14.6903 7.88958 14.5964 7.7019ZM8.00016 11.3334C6.02097 11.3334 3.99887 10.2529 2.75327 8.00004C3.99887 5.74723 6.02097 4.66671 8.00016 4.66671C9.97935 4.66671 12.0015 5.74723 13.2471 8.00004C12.0015 10.2529 9.97935 11.3334 8.00016 11.3334Z"
    fill="#104075"/>
  <circle cx="8" cy="8" r="1.5" fill="#E3EFCB" stroke="#104075"/>
</svg>
