<svg width="142" height="113" viewBox="0 0 142 113" fill="none" xmlns="http://www.w3.org/2000/svg">
  <g clip-path="url(#clip0_1102_110940)">
    <path opacity="0.4"
          d="M141.093 65.7307C141.082 83.9608 126.295 103.63 108.065 103.619C106.322 103.619 104.579 103.481 102.859 103.201H50.5524C48.5333 103.477 46.495 103.619 44.4568 103.619C24.5872 103.619 7.75811 85.6882 2.06526 67.6999C0.690988 63.3543 -0.00382293 58.8245 1.58194e-05 54.2639C1.58194e-05 29.7115 19.9039 9.80762 44.4568 9.80762C64.2339 9.80762 80.986 22.7173 86.7635 40.5713C92.721 35.5004 100.287 32.725 108.111 32.7365C126.322 32.7403 141.093 47.5117 141.093 65.7307Z"
          fill="#F5F7FA"/>
    <g opacity="0.74">
      <path opacity="0.74"
            d="M61.8124 47.1122C61.9822 46.2833 60.9131 46.4824 60.3609 46.5378C60.0462 46.8755 59.7912 47.3429 59.8117 47.7936C59.8326 48.2443 60.0769 48.4865 59.894 48.9104C60.0974 48.8656 60.2432 48.7667 60.3515 48.5927C60.2923 48.9236 60.1707 49.2102 59.8914 49.4097C60.3703 49.4131 60.6522 49.15 60.8794 48.7309C60.937 48.6247 61.0304 48.3846 61.1071 48.2657C61.1204 48.2776 61.137 48.3249 61.14 48.339C61.1656 48.4784 61.1988 48.6447 61.0803 48.7539C61.3029 48.5914 61.4346 48.5015 61.5719 48.2183C61.7105 47.9352 61.7856 47.455 61.8124 47.1122Z"
            fill="#F9BD13"/>
      <path opacity="0.74"
            d="M60.6288 46.4759C60.3883 46.7322 60.1938 47.1155 60.1968 47.4515C60.2002 47.7871 60.3635 47.9952 60.2339 48.3005C60.3797 48.2673 60.4842 48.1973 60.5618 48.0724C60.5196 48.3095 60.4322 48.515 60.2322 48.6574C60.5998 48.6604 60.7921 48.4442 60.9618 48.1265C61.0044 48.0464 61.0744 47.869 61.1319 47.7786C61.1413 47.7871 61.1537 47.8204 61.1558 47.8315C61.1754 47.9368 61.1942 48.0575 61.1072 48.1415C61.2718 48.0144 61.3635 47.9538 61.4688 47.7385C61.5741 47.5232 61.6496 47.1513 61.6701 46.8869C61.7971 46.2793 61.0287 46.432 60.6288 46.4759Z"
            fill="#F7931E"/>
      <path opacity="0.74"
            d="M61.3264 46.9741C61.3853 46.6919 61.0104 46.7511 60.8215 46.7767C60.7004 46.9174 60.6109 47.0863 60.6036 47.2718C60.5964 47.4573 60.6616 47.5899 60.5798 47.7643C60.6642 47.7327 60.7192 47.6782 60.764 47.6022C60.7311 47.7327 60.6881 47.8568 60.5776 47.9408C60.758 47.9391 60.8757 47.7843 60.9563 47.6312C60.9768 47.5929 61.0241 47.4786 61.0544 47.4313C61.0591 47.4355 61.0633 47.4547 61.0637 47.4607C61.068 47.5174 61.074 47.5886 61.0288 47.6334C61.1188 47.563 61.1695 47.5093 61.2258 47.3959C61.2804 47.2824 61.3136 47.1097 61.3264 46.9741Z"
            fill="#F15A24"/>
    </g>
    <path
      d="M64.0512 41.6249L63.9667 42.0007L63.8964 42.3127C63.8964 42.3127 63.8964 42.3127 63.8964 42.3132C63.8964 42.3138 63.8964 42.3148 63.8955 42.3159L63.7753 42.8507L63.7301 43.0532L63.5893 43.6805L63.4478 44.3069L63.3071 44.9337L63.1668 45.5593L63.0248 46.1861L62.8849 46.8117L62.7442 47.4381L62.7395 47.4581L62.7075 47.4504C62.0896 47.6645 61.5025 47.6065 61.0125 47.4513C60.2138 47.2001 59.6719 46.6914 59.6719 46.6914C59.6719 46.6914 59.7584 46.5106 59.8996 46.2155C59.9759 46.0569 60.0689 45.8629 60.1729 45.6458C60.2578 45.4697 60.3499 45.2783 60.4471 45.0766C60.5354 44.8932 60.627 44.7022 60.7217 44.5077C60.8113 44.3201 60.9025 44.1312 60.9955 43.9398C61.0876 43.7483 61.1797 43.5577 61.2705 43.3688C61.3643 43.1756 61.4569 42.9846 61.546 42.8017C61.6223 42.643 61.6956 42.4914 61.766 42.347C61.7848 42.3085 61.8027 42.2706 61.821 42.2331C62.1395 41.579 62.3715 41.1116 62.3971 41.0815L63.8456 41.5569L64.0512 41.6249Z"
      fill="#194175"/>
    <path opacity="0.2"
          d="M63.8951 42.312C63.8951 42.3126 63.8951 42.3136 63.8946 42.3147L63.7288 43.0522L63.5881 43.679L63.4461 44.3058L63.3053 44.9327L63.1655 45.5582L63.0235 46.1846L62.8832 46.8102L62.7425 47.437L62.7378 47.457L62.7062 47.4494C62.0879 47.663 61.5008 47.605 61.0112 47.4502C61.085 47.307 61.2185 47.162 61.4317 47.0213C62.5527 46.2844 63.8746 42.3716 63.8951 42.312Z"
          fill="#231F20"/>
    <path opacity="0.2"
          d="M63.8465 41.5565L63.9671 41.9993L63.8963 42.3113C63.8963 42.3113 63.8963 42.3113 63.8963 42.3118C63.8963 42.3123 63.8963 42.3134 63.8959 42.3144L63.7757 42.8492C62.9723 43.1157 61.8726 42.1289 61.8969 42.0788C62.1766 41.5059 62.3745 41.1075 62.3979 41.0801L63.8465 41.5565Z"
          fill="#231F20"/>
    <path
      d="M63.5898 43.6797L61.5469 42.8017C61.6437 42.6013 61.7366 42.41 61.8223 42.2329L63.7305 43.0529L63.5898 43.6797Z"
      fill="#42638E"/>
    <path
      d="M61.5337 41.5163C61.5977 41.5321 61.8066 42.1256 62.7349 42.4666C63.8722 42.8852 64.4615 42.4645 64.4615 42.4645L63.7242 39.7539L61.5337 41.5163Z"
      fill="#42638E"/>
    <path
      d="M63.306 44.9333L60.9949 43.9397C61.0866 43.7483 61.1795 43.5577 61.2699 43.3696L63.4468 44.3065L63.306 44.9333ZM63.0246 46.1852L60.4465 45.0766C60.5343 44.8936 60.626 44.7022 60.7215 44.5077L63.1666 45.5588L63.0246 46.1852ZM62.7436 47.4376L59.8994 46.2151C59.9757 46.0565 60.0683 45.8625 60.1723 45.6454L62.8843 46.8104L62.7436 47.4376Z"
      fill="#42638E"/>
    <path opacity="0.1"
          d="M63.507 41.7008C63.452 41.8837 63.2516 42.0845 62.9407 41.978C62.6299 41.8716 62.5719 41.607 62.6277 41.422C62.6836 41.2365 62.8772 41.0009 63.2021 41.0952C63.5271 41.1896 63.5616 41.5179 63.507 41.7008Z"
          fill="#231F20"/>
    <path
      d="M63.4486 41.6234C63.3982 41.7921 63.22 41.9739 62.9356 41.8801C62.6507 41.7868 62.6017 41.5402 62.6512 41.3731C62.7011 41.206 62.8746 40.9868 63.1722 41.0732C63.4699 41.1602 63.4997 41.4548 63.4486 41.6234Z"
      fill="#E1E6F4"/>
    <path
      d="M63.3814 41.6018C63.3392 41.7415 63.1937 41.8917 62.9562 41.8158C62.7183 41.7394 62.6799 41.5344 62.7217 41.3958C62.7635 41.2571 62.9072 41.0764 63.1528 41.1481C63.398 41.2198 63.4236 41.4617 63.3814 41.6018Z"
      fill="#A0D061"/>
    <g opacity="0.74">
      <path opacity="0.74"
            d="M36.8701 34.1929C36.4126 33.4809 35.787 34.3705 35.4302 34.7958C35.4413 35.2576 35.5851 35.7699 35.9145 36.0782C36.2445 36.386 36.5886 36.3886 36.7541 36.8197C36.8685 36.6453 36.9038 36.4729 36.8595 36.2726C37.0488 36.5504 37.1621 36.8408 37.1015 37.1781C37.4466 36.8461 37.4646 36.4608 37.3344 36.0022C37.3017 35.8863 37.2005 35.6491 37.1726 35.5105C37.19 35.5095 37.2353 35.5316 37.2474 35.5401C37.3629 35.6212 37.5036 35.7177 37.4946 35.8784C37.5399 35.607 37.571 35.4505 37.472 35.1516C37.3724 34.8533 37.0904 34.4575 36.8701 34.1929Z"
            fill="#F9BD13"/>
      <path opacity="0.74"
            d="M35.5791 34.5644C35.5865 34.9154 35.7151 35.326 35.9517 35.5642C36.1884 35.8024 36.4509 35.8367 36.571 36.1461C36.6522 36.0206 36.678 35.8978 36.6464 35.754C36.7818 35.9532 36.863 36.1614 36.8192 36.4027C37.0844 36.1487 37.0707 35.8594 36.9705 35.5136C36.9452 35.4266 36.8709 35.2501 36.8493 35.1458C36.862 35.1452 36.8941 35.1605 36.9031 35.1668C36.9905 35.2285 37.0886 35.3017 37.0843 35.4224C37.1133 35.2169 37.1371 35.1094 37.0617 34.8817C36.9864 34.654 36.7808 34.3351 36.6106 34.1317C36.2774 33.6078 35.8347 34.254 35.5791 34.5644Z"
            fill="#F7931E"/>
      <path opacity="0.74"
            d="M36.4259 34.4325C36.2704 34.189 36.0443 34.4936 35.9263 34.6438C35.9379 34.8288 35.9921 35.0122 36.1165 35.1503C36.2409 35.2884 36.3801 35.3374 36.4433 35.5187C36.4818 35.437 36.4828 35.3601 36.4618 35.2742C36.5292 35.3901 36.5851 35.5092 36.565 35.6463C36.6931 35.5192 36.6684 35.3263 36.6199 35.1603C36.6077 35.1187 36.5619 35.0033 36.5503 34.949C36.5566 34.949 36.5735 34.9595 36.5777 34.9638C36.6209 35.0017 36.6747 35.0486 36.6736 35.1119C36.6884 34.9985 36.6873 34.9242 36.6478 34.8046C36.6088 34.6855 36.5113 34.5384 36.4259 34.4325Z"
            fill="#F15A24"/>
    </g>
    <path
      d="M34.6392 28.7041L34.8411 29.0319L35.0087 29.3044C35.0087 29.3044 35.0087 29.3044 35.0092 29.305C35.0097 29.3055 35.0103 29.306 35.0108 29.3071L35.2986 29.774L35.4071 29.9506L35.745 30.4976L36.0812 31.0447L36.4185 31.5913L36.7553 32.1368L37.0921 32.6838L37.4289 33.2293L37.7662 33.7764L37.7767 33.7938L37.7488 33.8102C37.4563 34.3952 36.9951 34.7636 36.5366 34.9955C35.7892 35.3739 35.0466 35.3887 35.0466 35.3887C35.0466 35.3887 34.9823 35.1989 34.8775 34.889C34.8211 34.7219 34.752 34.5185 34.675 34.2903C34.6129 34.1053 34.5449 33.904 34.4737 33.6916C34.4089 33.4987 34.3409 33.2984 34.2729 33.0923C34.206 32.8957 34.1385 32.6965 34.0716 32.4946C34.0036 32.2933 33.9367 32.0925 33.8697 31.8938C33.8018 31.6899 33.7348 31.4885 33.6711 31.2956C33.6146 31.1291 33.5614 30.9688 33.5108 30.8165C33.4976 30.7759 33.4839 30.7359 33.4708 30.6964C33.2415 30.0059 33.0807 29.5094 33.0781 29.4705L34.4463 28.799L34.6392 28.7041Z"
      fill="#194175"/>
    <path opacity="0.2"
          d="M35.0088 29.3038C35.0093 29.3044 35.0099 29.3049 35.0104 29.306L35.4067 29.9495L35.7445 30.4966L36.0808 31.0436L36.4181 31.5902L36.7549 32.1357L37.0917 32.6827L37.4285 33.2283L37.7658 33.7753L37.7763 33.7927L37.7484 33.809C37.4559 34.3941 36.9947 34.7625 36.5362 34.9944C36.4887 34.84 36.483 34.6434 36.5372 34.3941C36.824 33.0838 35.0357 29.3602 35.0088 29.3038Z"
          fill="#231F20"/>
    <path opacity="0.2"
          d="M34.4464 28.7988L34.8422 29.0312L35.0097 29.3037C35.0097 29.3037 35.0097 29.3037 35.0103 29.3043C35.0108 29.3048 35.0113 29.3053 35.0119 29.3063L35.2996 29.7733C34.9107 30.5249 33.4344 30.5876 33.417 30.5349C33.2168 29.9299 33.0802 29.5066 33.0781 29.4703L34.4464 28.7988Z"
          fill="#231F20"/>
    <path
      d="M35.7455 30.4963L33.6705 31.2953C33.5999 31.084 33.5324 30.8826 33.4702 30.6955L35.4076 29.9492L35.7455 30.4963Z"
      fill="#42638E"/>
    <path
      d="M32.7637 30.384C32.82 30.3508 33.3845 30.629 34.2868 30.2248C35.3931 29.7294 35.5207 29.0173 35.5207 29.0173L33.0994 27.5933L32.7637 30.384Z"
      fill="#42638E"/>
    <path
      d="M36.418 31.5895L34.07 32.4934C34.002 32.2926 33.935 32.0912 33.8687 31.8931L36.0806 31.043L36.418 31.5895ZM37.0915 32.6821L34.4721 33.6898C34.4073 33.4974 34.3393 33.2966 34.2713 33.0905L36.7548 32.135L37.0915 32.6821ZM37.7651 33.7746L34.8758 34.8872C34.8194 34.7207 34.7504 34.5167 34.6734 34.2891L37.4278 33.2281L37.7651 33.7746Z"
      fill="#42638E"/>
    <path opacity="0.1"
          d="M34.3042 29.1371C34.3927 29.3063 34.3895 29.5899 34.0928 29.7306C33.7961 29.8718 33.57 29.7227 33.4804 29.5514C33.3908 29.3801 33.3644 29.076 33.6628 28.9163C33.9611 28.7571 34.2156 28.9679 34.3042 29.1371Z"
          fill="#231F20"/>
    <path
      d="M34.2093 29.1224C34.2905 29.2784 34.2905 29.533 34.0212 29.6647C33.7524 29.797 33.5447 29.6547 33.4636 29.5003C33.3824 29.3459 33.3534 29.0676 33.6269 28.9221C33.9005 28.7767 34.1282 28.9664 34.2093 29.1224Z"
      fill="#E1E6F4"/>
    <path
      d="M34.1444 29.1537C34.2119 29.2834 34.2129 29.4921 33.9895 29.6038C33.766 29.7155 33.5952 29.5954 33.5283 29.4673C33.4614 29.3392 33.4376 29.1089 33.6637 28.9887C33.8893 28.8691 34.077 29.024 34.1444 29.1537Z"
      fill="#A0D061"/>
    <path
      d="M50.0377 19.1883C50.172 18.3081 49.3584 17.4159 49.7767 16.4735C50.259 15.3904 49.7874 15.0663 49.511 14.1903C49.4441 13.9769 49.4279 13.7982 49.4386 13.6095C49.4441 13.4867 49.462 13.3597 49.4855 13.2158C49.5234 12.9776 49.8854 13.074 49.8475 13.3107C49.8309 13.4129 49.824 13.5104 49.8262 13.6043C49.8355 14.6172 50.734 15.237 50.2257 16.3781C49.8189 17.2941 50.3779 18.1095 50.4133 18.9432C50.2888 19.0265 50.163 19.1082 50.0377 19.1883Z"
      fill="#337CCC"/>
    <path
      d="M49.7051 0.000628077C46.7628 0.0396296 44.4013 1.87639 44.4534 5.81609C44.502 9.57447 46.7172 12.6266 49.4761 12.8611L49.054 13.6143L50.7059 13.5932L50.265 12.8511C53.0192 12.5439 55.1542 9.43951 55.1048 5.67797C55.0532 1.73778 52.6482 -0.0383735 49.7051 0.000628077Z"
      fill="#CD9363"/>
    <g opacity="0.35">
      <path opacity="0.35"
            d="M46.3254 5.78253C46.2844 6.42978 46.3262 6.84507 46.3262 6.84507L45.209 6.91675C45.1591 6.54572 45.137 6.19312 45.1382 5.85898L46.3254 5.78253ZM48.944 0.273315C47.0639 1.82336 46.5087 3.98321 46.3586 5.39675L45.1506 5.47423C45.3851 1.54877 48.944 0.273315 48.944 0.273315Z"
            fill="white"/>
    </g>
    <path d="M102.988 39.4707L102.32 39.9299L102.779 40.5979L103.447 40.1387L102.988 39.4707Z" fill="#EAE3BE"/>
    <path d="M116.904 45.4536L118.292 44.4993L117.338 43.1113L115.95 44.0656L116.904 45.4536Z" fill="#FAF9F6"/>
    <path d="M110.442 33.0791L109.819 33.5077L110.492 34.4861L111.115 34.0575L110.442 33.0791Z" fill="#F6BB36"/>
    <path d="M102.063 43.6777L101.44 44.1063L102.112 45.0845L102.736 44.6559L102.063 43.6777Z" fill="#F6BB36"/>
    <path d="M99.1904 51.1758L98.5674 51.6043L99.2398 52.583L99.8633 52.1544L99.1904 51.1758Z" fill="white"/>
    <path d="M106.054 27.9482L105.431 28.3767L106.104 29.3552L106.727 28.9267L106.054 27.9482Z" fill="white"/>
    <path d="M81.1455 38.6064L80.5225 39.0351L81.1953 40.0134L81.8183 39.5848L81.1455 38.6064Z" fill="#F6BB36"/>
    <path d="M119.469 23.9351L119.109 25.5807L120.755 25.9403L121.115 24.2947L119.469 23.9351Z" fill="#EAE3BE"/>
    <path d="M97.756 30.166L97.3965 31.8111L99.042 32.1707L99.4019 30.5257L97.756 30.166Z" fill="white"/>
    <path d="M66.6656 32.0005L66.3062 33.6462L67.9517 34.0056L68.3112 32.36L66.6656 32.0005Z" fill="#F6BB36"/>
    <path d="M89.9626 31.7061L89.7217 32.8106L90.8261 33.0518L91.0674 31.9473L89.9626 31.7061Z" fill="#EAE3BE"/>
    <path d="M92.3217 21.8647L92.0684 23.0249L92.8069 23.1862L93.0602 22.0261L92.3217 21.8647Z" fill="#F6BB36"/>
    <path d="M19.0253 45.7525L20.413 44.7986L19.4585 43.4106L18.0708 44.365L19.0253 45.7525Z" fill="#FAF9F6"/>
    <path d="M12.5626 33.3853L11.9395 33.8139L12.6124 34.7922L13.2355 34.3636L12.5626 33.3853Z" fill="#F6BB36"/>
    <path d="M21.5896 24.2451L21.23 25.8907L22.8756 26.2503L23.2352 24.6048L21.5896 24.2451Z" fill="#EAE3BE"/>
    <path d="M54.5657 30.0703L53.9427 30.4988L54.6156 31.4773L55.2386 31.0487L54.5657 30.0703Z" fill="white"/>
    <path d="M47.2643 37.6743L46.9048 39.3194L48.5503 39.679L48.9098 38.034L47.2643 37.6743Z" fill="#42638E"/>
    <path d="M25.2798 32.4991L24.9203 34.1447L26.566 34.5042L26.9254 32.8585L25.2798 32.4991Z" fill="#F6BB36"/>
    <path d="M39.3761 27.561L39.1348 28.6655L40.2392 28.9069L40.4806 27.8024L39.3761 27.561Z" fill="#EAE3BE"/>
    <path d="M46.5585 21.9341L46.3052 23.0942L47.0442 23.2555L47.2974 22.0954L46.5585 21.9341Z" fill="#F6BB36"/>
    <path d="M104.965 17.6558L104.711 18.8158L105.45 18.9773L105.703 17.8172L104.965 17.6558Z" fill="white"/>
    <path d="M14.6208 74.4351L14.0488 74.8282L14.442 75.4005L15.014 75.0073L14.6208 74.4351Z" fill="#EAE3BE"/>
    <path d="M29.8695 81.5855L31.2572 80.6316L30.3028 79.2432L28.915 80.1975L29.8695 81.5855Z" fill="#FAF9F6"/>
    <path d="M21.0053 68.9658L20.4717 69.333L21.0479 70.1709L21.5816 69.8037L21.0053 68.9658Z" fill="#F6BB36"/>
    <path d="M13.8306 78.0377L13.2969 78.4048L13.8729 79.2427L14.4067 78.8756L13.8306 78.0377Z" fill="#F6BB36"/>
    <path d="M17.2471 64.5771L16.7134 64.9439L17.2894 65.7818L17.8232 65.4146L17.2471 64.5771Z" fill="white"/>
    <path d="M28.7322 61.1484L28.4243 62.5573L29.8336 62.8652L30.1414 61.4567L28.7322 61.1484Z" fill="#EAE3BE"/>
    <path d="M16.3132 55.7593L16.0962 56.7528L16.729 56.891L16.946 55.8979L16.3132 55.7593Z" fill="white"/>
    <path d="M113.307 79.4683L112.735 79.8614L113.128 80.4332L113.7 80.0401L113.307 79.4683Z" fill="#EAE3BE"/>
    <path d="M91.4782 86.1865L92.8662 85.2326L91.9114 83.8442L90.5243 84.799L91.4782 86.1865Z" fill="#FAF9F6"/>
    <path d="M119.69 73.9893L119.157 74.3564L119.733 75.1939L120.266 74.8267L119.69 73.9893Z" fill="#F6BB36"/>
    <path d="M112.519 83.0654L111.985 83.4321L112.561 84.2701L113.095 83.9029L112.519 83.0654Z" fill="#F6BB36"/>
    <path d="M115.935 69.5918L115.401 69.9589L115.977 70.7968L116.511 70.4297L115.935 69.5918Z" fill="white"/>
    <path d="M127.427 66.1772L127.119 67.5861L128.528 67.894L128.836 66.4851L127.427 66.1772Z" fill="#EAE3BE"/>
    <path d="M108.827 71.4971L108.52 72.9059L109.929 73.2138L110.237 71.8049L108.827 71.4971Z" fill="white"/>
    <path d="M102.161 72.8164L101.955 73.7622L102.901 73.969L103.107 73.0232L102.161 72.8164Z" fill="#EAE3BE"/>
    <path d="M104.18 64.3862L103.963 65.3794L104.596 65.5175L104.812 64.5244L104.18 64.3862Z" fill="#F6BB36"/>
    <path d="M115.636 60.916L115.004 60.7778L114.787 61.7714L115.419 61.9095L115.636 60.916Z" fill="white"/>
    <path
      d="M38.978 46.3169C38.978 46.7164 39.0613 47.0627 39.1825 47.2324C39.3037 47.0627 39.3865 46.716 39.3865 46.3169C39.3865 45.9178 39.3037 45.5711 39.1825 45.4009C39.0607 45.5711 38.978 45.9169 38.978 46.3169ZM38.978 48.7654C38.978 49.1649 39.0613 49.5112 39.1825 49.6809C39.3037 49.5112 39.3865 49.1645 39.3865 48.7654C39.3865 48.3658 39.3037 48.0196 39.1825 47.8498C39.0607 48.0196 38.978 48.3654 38.978 48.7654ZM37.0421 47.5411C37.2118 47.6622 37.5581 47.7458 37.9576 47.7458C38.3576 47.7458 38.7034 47.6622 38.8731 47.5411C38.7034 47.42 38.3566 47.3373 37.9576 47.3373C37.5586 47.3369 37.2118 47.42 37.0421 47.5411ZM40.4063 47.3369C40.0068 47.3369 39.6605 47.4196 39.4908 47.5407C39.6605 47.6618 40.0068 47.7449 40.4063 47.7449C40.8058 47.7449 41.152 47.6618 41.3223 47.5407C41.152 47.42 40.8058 47.3369 40.4063 47.3369Z"
      fill="#42638E"/>
    <path d="M104.757 24.8213L113.036 18.3154L114.054 19.2393L106.844 27.2468L104.757 24.8213Z" fill="#DDA292"/>
    <path
      d="M92.9109 108.63C92.9109 108.63 90.7233 106.174 90.9225 105.789C91.122 105.405 91.8133 104.799 92.0934 104.822C92.3731 104.845 94.6063 107.198 94.5487 107.716C94.4912 108.235 93.5104 109.095 92.9109 108.63Z"
      fill="#EDB29F"/>
    <path
      d="M89.9485 112.386L89.7451 112.593C89.7451 112.593 89.8688 112.94 90.0666 112.995C90.2641 113.051 91.4606 112.663 93.3078 111.24C95.1551 109.818 95.7908 108.873 95.5064 108.568C95.222 108.262 91.328 112.581 89.9485 112.386Z"
      fill="#1E263E"/>
    <path
      d="M95.5061 108.567C93.6098 111.206 89.4135 113.309 89.7397 112.458C89.8122 112.272 89.9938 112.023 90.2283 111.742C91.0654 110.743 92.5804 109.327 92.2512 108.78C91.8291 108.078 92.108 107.728 92.2052 107.694C92.2308 107.686 92.3024 107.668 92.3975 107.637C92.6772 107.549 93.1608 107.359 93.287 107.004C93.4567 106.528 93.4866 106.466 93.745 106.509C94.5023 106.638 94.7633 107.022 95.5061 108.567Z"
      fill="#4E5877"/>
    <path
      d="M92.3971 107.637C92.4755 107.816 92.5348 108.04 92.56 108.242C92.6214 108.747 93.0358 108.754 92.9058 109.83C92.7762 110.907 91.0611 111.651 90.5311 111.82C90.2189 111.92 90.1951 111.832 90.2279 111.742C91.065 110.742 92.58 109.326 92.2508 108.779C91.8287 108.077 92.1075 107.727 92.2048 107.694C92.2303 107.686 92.302 107.668 92.3971 107.637ZM87.8801 65.3429C87.8801 65.3429 86.2141 90.6263 93.6269 105.123L90.8824 107.256C90.8824 107.256 73.3559 86.2419 72.8105 60.9014L87.8801 65.3429Z"
      fill="#1E263E"/>
    <path
      d="M111.93 94.873C111.93 94.873 108.829 93.7788 108.818 93.3464C108.807 92.9136 109.119 92.0488 109.375 91.9337C109.632 91.8181 112.724 92.8006 112.923 93.2829C113.123 93.7647 112.679 94.9907 111.93 94.873Z"
      fill="#EDB29F"/>
    <path
      d="M111.149 99.5926L111.071 99.8723C111.071 99.8723 111.346 100.116 111.546 100.069C111.746 100.022 112.606 99.1044 113.537 96.9672C114.468 94.8295 114.569 93.6957 114.172 93.5652C113.776 93.4343 112.45 99.0971 111.149 99.5926Z"
      fill="#1E263E"/>
    <path
      d="M114.173 93.5645C113.786 96.7908 111.127 100.659 111.002 99.7565C110.975 99.5578 111.014 99.2529 111.084 98.893C111.334 97.6138 111.978 95.6429 111.425 95.3222C110.717 94.9116 110.792 94.4711 110.861 94.3943C110.879 94.3747 110.933 94.324 111.002 94.2519C111.204 94.0395 111.536 93.6387 111.475 93.2677C111.393 92.7693 111.389 92.6998 111.637 92.6132C112.362 92.3599 112.776 92.5701 114.173 93.5645Z"
      fill="#4E5877"/>
    <path
      d="M111.001 94.252C111.157 94.3705 111.317 94.5385 111.436 94.7031C111.733 95.1159 112.1 94.9219 112.506 95.9273C112.912 96.9324 111.769 98.4116 111.387 98.8167C111.162 99.0542 111.099 98.9886 111.084 98.8935C111.334 97.6142 111.978 95.6433 111.425 95.3227C110.717 94.912 110.792 94.4716 110.861 94.3948C110.878 94.3752 110.932 94.3244 111.001 94.252Z"
      fill="#1E263E"/>
    <path
      d="M89.86 54.6504C89.86 54.6504 91.5593 78.6149 111.189 91.8044L109.612 94.5394C109.612 94.5394 79.7309 86.5923 77.5869 59.9644L89.86 54.6504Z"
      fill="#4E5877"/>
    <path
      d="M107.194 27.6538L104.668 23.9292C104.668 23.9292 95.1012 33.6695 85.0263 30.6717C74.951 27.6738 68.3509 18.0483 68.3509 18.0483L66.2163 18.49C66.2163 18.49 67.3258 31.935 74.9681 37.1053C74.9681 37.1053 68.5586 49.63 71.8275 62.3457C72.4931 64.9349 95.717 58.1429 93.15 55.3661C86.5307 48.204 89.3323 39.915 89.3323 39.915C89.3323 39.915 99.8831 39.3495 107.194 27.6538Z"
      fill="#42638E"/>
    <g opacity="0.15">
      <path opacity="0.15"
            d="M81.4576 31.4677C82.4554 31.4223 83.3411 30.9891 84.1137 30.3798C79.331 28.737 75.3918 25.6527 72.6453 22.979C73.8589 24.7236 74.9761 26.5218 76.3406 28.1588C77.6297 29.7036 79.2483 31.5673 81.4576 31.4677ZM107.194 27.6539L105.113 24.5854C104.596 25.9352 104.945 27.3562 104.538 28.7191C104.208 29.8269 103.259 30.5237 102.297 31.0676C101.016 31.7913 99.6391 32.323 98.3108 32.9513C96.8772 33.6291 95.5523 34.4302 94.1959 35.2445C93.0266 35.9465 91.7257 36.3603 90.4737 36.8825C89.4819 37.2963 88.4252 37.7385 87.8099 38.6661C86.8517 40.1113 87.0432 42.1156 87.1084 43.7606C87.1779 45.5191 87.3178 47.4295 86.592 49.0844C85.8522 50.7709 84.3077 51.7469 82.5658 52.1691C80.7135 52.6177 78.7597 52.5217 76.8715 52.4433C74.9121 52.3614 72.9451 52.3465 70.9814 52.3507C70.7712 55.5083 70.9456 58.9197 71.8261 62.3463C72.4918 64.9355 95.7156 58.1436 93.149 55.3659C86.5298 48.2034 89.3309 39.9152 89.3309 39.9152C89.3309 39.9152 99.883 39.3502 107.194 27.6539Z"
            fill="#42638E"/>
    </g>
    <path
      d="M80.1066 41.5373C80.0993 41.6633 80.0554 41.7623 79.9748 41.8361C79.8942 41.9099 79.7996 41.9542 79.69 41.9695C79.5676 41.9927 79.4299 42.0121 79.2759 42.0274C79.1224 42.0427 78.9655 42.0548 78.806 42.0633C78.6461 42.0717 78.4905 42.0759 78.3374 42.0759C78.1847 42.0759 78.0453 42.0727 77.9212 42.0649C77.8888 42.0633 77.844 42.0591 77.7856 42.0533C77.7276 42.0475 77.6675 42.0396 77.6052 42.029C77.543 42.0185 77.4858 42.0048 77.4321 41.9879C77.3788 41.971 77.3383 41.9505 77.3114 41.9257C77.2846 41.8967 77.2611 41.8577 77.2415 41.8087C77.2223 41.7597 77.2057 41.7059 77.1933 41.6479C77.1805 41.59 77.1716 41.5331 77.1665 41.4782C77.1618 41.4229 77.1605 41.375 77.1626 41.3338C77.1665 41.2701 77.1775 41.2126 77.1942 41.1615C77.2117 41.1099 77.2415 41.0635 77.285 41.0208C77.337 40.9654 77.3908 40.9111 77.4466 40.8589C77.5025 40.8062 77.5571 40.7551 77.6087 40.7045C77.6696 40.6413 77.7502 40.558 77.8504 40.4558C77.9511 40.3535 78.0598 40.2386 78.1771 40.1121C78.2948 39.9851 78.4129 39.8523 78.5323 39.7142C78.6521 39.5756 78.7621 39.4407 78.864 39.3084C78.9655 39.1766 79.0499 39.0517 79.1165 38.9347C79.1834 38.8172 79.2213 38.7149 79.2307 38.6274C79.2397 38.5436 79.2256 38.4725 79.1881 38.4119C79.1501 38.3518 79.0939 38.3165 79.018 38.3075C78.9339 38.297 78.8525 38.3207 78.7728 38.3787C78.6939 38.4361 78.6137 38.4999 78.5331 38.5689C78.4525 38.638 78.3681 38.7018 78.279 38.7592C78.1899 38.8166 78.0935 38.8398 77.9894 38.8282C77.8658 38.8145 77.7728 38.7629 77.7118 38.6733C77.6509 38.5842 77.627 38.4715 77.6423 38.336C77.6645 38.1373 77.7246 37.9586 77.8227 37.8C77.9204 37.6414 78.041 37.5106 78.1839 37.4073C78.3267 37.3046 78.4828 37.2297 78.6512 37.1838C78.8192 37.138 78.9873 37.1269 79.1544 37.1512C79.3258 37.1754 79.4815 37.2202 79.6235 37.2845C79.765 37.3488 79.8831 37.4342 79.9791 37.5396C80.075 37.6456 80.1445 37.7726 80.1893 37.9207C80.2337 38.0693 80.2447 38.2422 80.2217 38.4409C80.2038 38.5963 80.1612 38.7566 80.0929 38.9215C80.0251 39.0865 79.9416 39.252 79.8426 39.4175C79.7437 39.583 79.6341 39.7469 79.5126 39.9092C79.3915 40.0721 79.2687 40.2276 79.1437 40.3762C79.0188 40.5248 78.896 40.6634 78.774 40.792C78.6517 40.9206 78.5412 41.0329 78.4423 41.1283C78.6406 41.1162 78.8487 41.1051 79.0674 41.0945C79.2857 41.084 79.4955 41.0867 79.6955 41.1019C79.8119 41.1109 79.9113 41.152 79.9927 41.2252C80.0784 41.2991 80.1147 41.4029 80.1066 41.5373ZM84.3277 40.2602C84.3038 40.5333 84.2403 40.8036 84.1379 41.0735C84.036 41.3433 83.8996 41.5858 83.7269 41.8013C83.555 42.0169 83.3482 42.1903 83.1039 42.3199C82.86 42.4496 82.5841 42.5086 82.2745 42.4939C82.0135 42.4812 81.7815 42.3985 81.5799 42.244C81.3782 42.0891 81.2097 41.8951 81.0767 41.6622C80.9432 41.4292 80.8468 41.1752 80.7876 40.9016C80.7287 40.6281 80.7104 40.3667 80.7313 40.1179C80.7462 39.9424 80.785 39.7601 80.8473 39.5725C80.9095 39.3843 80.9918 39.2014 81.0933 39.0232C81.1952 38.8451 81.3125 38.677 81.4464 38.5199C81.5799 38.3623 81.7257 38.229 81.883 38.1194C82.0404 38.0097 82.2067 37.9286 82.3819 37.8759C82.5568 37.8226 82.7346 37.8094 82.9137 37.8332C83.2207 37.8743 83.471 37.976 83.6655 38.1373C83.8599 38.298 84.0091 38.492 84.114 38.7186C84.2189 38.9452 84.2863 39.1924 84.3166 39.4607C84.3477 39.7295 84.3515 39.9957 84.3277 40.2602ZM83.4595 40.1517C83.4684 40.05 83.4655 39.9282 83.451 39.7869C83.436 39.6457 83.4062 39.5108 83.3606 39.3822C83.3154 39.2536 83.2518 39.1413 83.1687 39.0449C83.0859 38.9484 82.9811 38.8925 82.8536 38.8783C82.6979 38.8604 82.5534 38.8952 82.4203 38.9832C82.2877 39.0712 82.1713 39.1861 82.0715 39.3274C81.9722 39.4691 81.8911 39.6235 81.8293 39.7912C81.7671 39.9587 81.7304 40.1127 81.7184 40.2513C81.7091 40.3604 81.7133 40.4863 81.73 40.6271C81.7474 40.7683 81.7815 40.9033 81.8327 41.0318C81.8839 41.1604 81.9547 41.2706 82.0429 41.3628C82.1316 41.455 82.2408 41.5057 82.3687 41.5135C82.5252 41.5241 82.6681 41.4819 82.7968 41.3892C82.926 41.2964 83.0365 41.1799 83.1294 41.0403C83.222 40.9006 83.297 40.7499 83.3546 40.5886C83.413 40.4278 83.4476 40.2824 83.4595 40.1517ZM80.1501 47.3848C80.1552 47.511 80.1215 47.6146 80.0495 47.6965C79.9765 47.778 79.887 47.8317 79.7795 47.8586C79.6601 47.8939 79.525 47.9276 79.3736 47.9583C79.2222 47.989 79.0674 48.0168 78.9096 48.0415C78.7523 48.0662 78.5971 48.0863 78.4449 48.1016C78.2926 48.1174 78.1545 48.1276 78.0295 48.1332C77.9975 48.1344 77.9523 48.1353 77.8935 48.1353C77.8351 48.1357 77.7745 48.1336 77.7123 48.1298C77.6496 48.1255 77.5907 48.1174 77.5357 48.1063C77.4812 48.0948 77.4389 48.0786 77.4095 48.0568C77.3797 48.0308 77.3528 47.9942 77.3281 47.9468C77.3038 47.8999 77.2816 47.8475 77.2633 47.7912C77.2449 47.7349 77.23 47.679 77.2198 47.6249C77.2091 47.5699 77.2031 47.5225 77.201 47.4812C77.1984 47.4172 77.2031 47.3584 77.2155 47.3059C77.2274 47.2526 77.2526 47.2032 77.2914 47.1567C77.337 47.0961 77.3856 47.0364 77.4364 46.9784C77.4867 46.9204 77.5353 46.8637 77.5818 46.8083C77.6359 46.7392 77.7076 46.648 77.7971 46.5358C77.8867 46.4237 77.9835 46.2983 78.0871 46.1593C78.1907 46.0207 78.2952 45.877 78.3997 45.7269C78.5045 45.5764 78.6005 45.4305 78.6883 45.2881C78.7757 45.1461 78.847 45.0135 78.902 44.8899C78.9561 44.7666 78.9843 44.66 78.9847 44.5722C78.9851 44.4877 78.9634 44.4174 78.9203 44.3615C78.8768 44.3052 78.8167 44.2762 78.7399 44.275C78.6559 44.2733 78.5766 44.3048 78.5041 44.3701C78.4312 44.4357 78.3579 44.5074 78.2845 44.5841C78.212 44.6613 78.134 44.7334 78.0513 44.7999C77.9685 44.866 77.8752 44.8988 77.7703 44.8975C77.6457 44.8962 77.5481 44.8545 77.4777 44.7717C77.4078 44.689 77.3728 44.5794 77.3741 44.443C77.3763 44.2426 77.4176 44.0588 77.4995 43.8903C77.5805 43.7223 77.688 43.5799 77.8193 43.4626C77.9511 43.345 78.0986 43.2554 78.2615 43.1923C78.4244 43.1296 78.5903 43.1015 78.7591 43.1083C78.9318 43.1151 79.0917 43.1441 79.2393 43.194C79.3868 43.2439 79.5134 43.3164 79.6192 43.4119C79.7249 43.5074 79.8081 43.6268 79.8669 43.7705C79.9266 43.9138 79.9544 44.0852 79.9518 44.2852C79.9497 44.4417 79.9232 44.6059 79.8729 44.7777C79.8217 44.9496 79.7557 45.1222 79.6742 45.2971C79.5923 45.4723 79.4994 45.6467 79.3958 45.8211C79.2917 45.9955 79.1855 46.1631 79.0764 46.3243C78.9672 46.4851 78.8589 46.6364 78.7506 46.7767C78.6423 46.9175 78.5442 47.0403 78.4551 47.1456C78.6512 47.1136 78.8572 47.0812 79.0734 47.0488C79.2892 47.016 79.4981 46.9968 79.6989 46.9921C79.8153 46.9891 79.9181 47.0202 80.0072 47.0855C80.0972 47.1499 80.1441 47.2501 80.1501 47.3848ZM83.587 47.2552C83.5917 47.3737 83.558 47.4718 83.4851 47.549C83.4126 47.6262 83.3222 47.6778 83.2147 47.7038C83.0958 47.7387 82.9602 47.7707 82.8088 47.8014C82.6578 47.8313 82.5026 47.8586 82.3453 47.8833C82.1875 47.9076 82.0327 47.9281 81.8801 47.9443C81.7278 47.96 81.5897 47.9711 81.4656 47.9767C81.4332 47.9784 81.388 47.9792 81.3295 47.9801C81.2711 47.9805 81.211 47.9788 81.1483 47.9758C81.0856 47.972 81.0268 47.9652 80.9722 47.9549C80.9172 47.9451 80.875 47.9293 80.8456 47.9093C80.8161 47.885 80.7893 47.8505 80.765 47.8061C80.7407 47.7618 80.7193 47.7127 80.7006 47.6598C80.6822 47.607 80.6673 47.5541 80.6575 47.5029C80.6469 47.4518 80.6413 47.4066 80.6396 47.3673C80.637 47.3068 80.6417 47.2522 80.6537 47.2019C80.666 47.152 80.6912 47.1051 80.7304 47.0603C80.7765 47.0027 80.8247 46.9465 80.875 46.891C80.9257 46.836 80.9743 46.7823 81.0208 46.7294C81.075 46.6633 81.147 46.5776 81.2366 46.471C81.3261 46.3644 81.4234 46.2454 81.527 46.1145C81.631 45.9836 81.7355 45.8467 81.8404 45.7047C81.9453 45.5623 82.0408 45.4242 82.1291 45.2898C82.2169 45.1555 82.2877 45.0301 82.3423 44.9137C82.3969 44.7969 82.4246 44.6971 82.425 44.6135C82.4259 44.5346 82.4041 44.4686 82.3602 44.4161C82.3167 44.3632 82.2566 44.3364 82.1802 44.3347C82.0958 44.3338 82.0169 44.3637 81.944 44.4259C81.8707 44.4877 81.7982 44.5555 81.7253 44.6289C81.6528 44.7022 81.5747 44.77 81.4924 44.8327C81.4097 44.8962 81.3163 44.9274 81.2114 44.9265C81.0865 44.9261 80.9888 44.8873 80.9189 44.8093C80.849 44.7312 80.814 44.628 80.8153 44.4993C80.8166 44.3108 80.8584 44.136 80.9394 43.9782C81.0208 43.8196 81.127 43.6844 81.2588 43.5739C81.3905 43.4626 81.5376 43.3778 81.7005 43.3177C81.8634 43.258 82.0289 43.2307 82.1982 43.2371C82.3709 43.2426 82.5312 43.269 82.6783 43.3155C82.8258 43.3624 82.9521 43.4298 83.0587 43.5194C83.1653 43.6089 83.2476 43.7206 83.3068 43.8558C83.3665 43.9901 83.3951 44.1513 83.3925 44.3402C83.3908 44.4877 83.3644 44.6417 83.3132 44.8033C83.2625 44.9653 83.1964 45.1286 83.1145 45.2937C83.0335 45.4587 82.9401 45.6233 82.8365 45.7883C82.732 45.9533 82.6254 46.112 82.5163 46.2642C82.4071 46.4168 82.2988 46.5597 82.1901 46.6927C82.0817 46.8262 81.9828 46.9426 81.8945 47.0428C82.0907 47.0113 82.2967 46.9789 82.5128 46.9469C82.7286 46.9149 82.9376 46.8957 83.1384 46.8889C83.2548 46.8846 83.3576 46.9136 83.4463 46.9742C83.5345 47.0347 83.5814 47.1281 83.587 47.2552Z"
      fill="white"/>
    <path
      d="M87.0912 21.3824C87.2153 21.3993 83.7421 20.2366 85.0389 19.065C87.3709 16.9574 86.8733 19.3375 88.8689 18.8948C90.862 19.0355 90.0484 20.2741 90.0484 20.2741C90.0484 20.2741 90.8172 20.4875 91.4534 21.93C92.0896 23.3726 90.7238 24.3671 90.7238 24.3671C90.7238 24.3671 91.7468 24.8167 91.5562 25.9103C91.3204 27.2595 88.2417 26.1912 88.6182 27.6596C88.9952 29.1279 88.1551 30.5525 85.9378 28.2061C83.7204 25.8597 87.594 25.9736 86.078 24.9405C84.5626 23.907 86.0132 21.2338 87.0912 21.3824ZM81.2805 30.8683C81.6399 29.8484 83.0548 29.1227 84.4415 29.2481C85.8277 29.3735 86.6605 30.3017 86.3011 31.3215C85.9416 32.3419 84.5263 33.0671 83.1396 32.9422C81.7529 32.8168 80.921 31.8886 81.2805 30.8683Z"
      fill="#252B4C"/>
    <path
      d="M83.0735 28.2025L82.3218 31.0528C82.3218 31.0528 84.6206 31.9973 85.67 30.8889L85.6431 28.0839L83.0735 28.2025Z"
      fill="#EDB29F"/>
    <path opacity="0.5"
          d="M85.6421 28.084C85.3471 28.8761 82.8235 29.5682 82.8415 30.3282C82.8504 30.7129 83.1847 31.0028 83.5113 31.1767C83.728 31.2921 83.9642 31.3701 84.2064 31.4207C83.2785 31.553 82.3208 31.0529 82.3208 31.0529L83.0726 28.2026L85.6421 28.084Z"
          fill="#DDA292"/>
    <path
      d="M83.1421 28.2934C81.0028 27.8786 80.987 26.2348 81.6211 24.5529C81.7162 24.2984 81.8292 24.0428 81.9494 23.7887C82.804 21.992 84.151 20.3613 84.151 20.3613C84.151 20.3613 87.4135 21.7796 88.8058 23.4419C88.8058 23.4425 87.9035 29.2194 83.1421 28.2934Z"
      fill="#EDB29F"/>
    <path
      d="M88.0354 24.1901C88.0354 24.1901 88.8111 23.7912 89.1292 24.2423C89.4469 24.6935 88.1578 26.6699 87.5741 25.9268C86.9907 25.1837 88.0354 24.1901 88.0354 24.1901Z"
      fill="#EDB29F"/>
    <path
      d="M88.1371 24.5581C88.1609 24.5665 88.1882 24.5607 88.2066 24.5417C88.2087 24.5396 88.4356 24.3051 88.6458 24.3299C88.737 24.3409 88.8129 24.3989 88.8765 24.508C88.8952 24.5391 88.9353 24.5497 88.966 24.5312C88.9971 24.5127 89.0078 24.4727 88.9895 24.4416C88.9042 24.2967 88.7937 24.2145 88.6598 24.1997C88.3844 24.1681 88.1217 24.44 88.1115 24.4516C88.0867 24.478 88.0876 24.5191 88.1136 24.5444C88.1209 24.5502 88.1285 24.5549 88.1371 24.5581ZM85.272 24.4485C85.2959 24.4569 85.3231 24.4511 85.3415 24.4321C85.3436 24.43 85.5705 24.1955 85.7807 24.2203C85.8719 24.2313 85.9478 24.2893 86.0114 24.3984C86.0301 24.4295 86.0702 24.44 86.1014 24.4216C86.1321 24.4031 86.1427 24.3631 86.1248 24.332C86.0395 24.187 85.9295 24.1053 85.7956 24.0901C85.5197 24.0584 85.2579 24.3304 85.2468 24.342C85.2221 24.3684 85.2229 24.4095 85.2489 24.4342C85.2553 24.4411 85.263 24.4458 85.272 24.4485ZM82.6086 23.65C82.632 23.6584 82.6593 23.6526 82.6781 23.6331C82.6802 23.631 82.9067 23.3965 83.1177 23.4212C83.2086 23.4323 83.2845 23.4903 83.3484 23.5994C83.3668 23.6305 83.4068 23.641 83.438 23.6231C83.4691 23.6046 83.4798 23.5646 83.461 23.5335C83.3757 23.3886 83.2657 23.3063 83.1318 23.2916C82.8563 23.26 82.5937 23.5319 82.583 23.5435C82.5583 23.5698 82.5596 23.611 82.5851 23.6363C82.592 23.6421 82.6001 23.6473 82.6086 23.65ZM86.5593 24.0268C86.5593 24.0268 85.4174 23.7248 85.3253 23.5867C85.2332 23.4487 85.6451 23.2853 86.1265 23.5214C86.6075 23.7575 86.6919 24.0511 86.5593 24.0268ZM83.6371 22.9848C83.6371 22.9848 82.4956 22.6829 82.4035 22.5447C82.3114 22.4067 82.7233 22.2433 83.2047 22.4794C83.6861 22.7155 83.7701 23.0086 83.6371 22.9848ZM83.797 24.7773C83.8179 24.7847 83.8422 24.7815 83.8601 24.7663C83.8874 24.7431 83.8912 24.7025 83.8682 24.6751C83.7608 24.546 83.7544 24.4901 83.7599 24.468C83.7723 24.4226 83.8716 24.3868 83.9765 24.3494C84.0405 24.3267 84.113 24.3003 84.1846 24.2666C84.524 24.1048 84.698 23.4059 84.7057 23.3764C84.7138 23.3417 84.6929 23.3063 84.6579 23.2979C84.6234 23.2895 84.5884 23.3105 84.5795 23.3453C84.5343 23.5309 84.365 24.0368 84.1288 24.1491C84.0631 24.1807 83.997 24.2039 83.933 24.2271C83.7889 24.2788 83.6648 24.323 83.6345 24.4337C83.6115 24.5196 83.6525 24.6198 83.768 24.7578C83.777 24.7673 83.7863 24.7737 83.797 24.7773Z"
      fill="#252B4C"/>
    <path
      d="M82.3123 25.5072C82.2897 25.5055 82.2667 25.5098 82.2449 25.5209C82.1857 25.5525 82.1622 25.6263 82.1938 25.6864C82.2023 25.7022 82.4048 26.0769 82.8713 26.2029C83.2687 26.3109 83.7259 26.2055 84.2316 25.8914C84.2887 25.8555 84.3062 25.7802 84.2708 25.7227C84.235 25.6653 84.16 25.6479 84.1024 25.6837C83.6572 25.9604 83.2645 26.0558 82.9353 25.9667C82.5707 25.8682 82.4125 25.5751 82.4112 25.5725C82.3903 25.5335 82.3524 25.5103 82.3123 25.5072Z"
      fill="#252B4C"/>
    <path opacity="0.5"
          d="M84.9355 25.6617C84.8856 25.9431 85.1768 26.2298 85.5866 26.3026C85.996 26.3753 86.3683 26.2056 86.4177 25.9247C86.4676 25.6432 86.1764 25.3565 85.7666 25.2838C85.3576 25.211 84.9858 25.3802 84.9355 25.6617ZM82.4384 24.2908C82.3983 24.5159 82.1028 24.6529 81.7732 24.5949C81.7182 24.5849 81.6662 24.5723 81.6201 24.5533C81.7148 24.2987 81.8282 24.0431 81.9485 23.7891C82.2623 23.8523 82.4768 24.0726 82.4384 24.2908Z"
          fill="#DDA292"/>
    <path
      d="M83.4439 21.1728C83.4439 21.1728 82.1378 20.7138 82.7037 19.3535C83.2555 18.0269 85.1487 18.1149 85.2605 18.8191C83.4623 19.4963 86.7815 19.8531 87.0275 20.7091C87.2744 21.565 88.6517 21.857 88.8777 22.6138C89.1042 23.3707 88.9788 24.0621 88.679 24.0105C88.3784 23.9588 87.5857 25.0182 87.3959 24.2013C87.2062 23.3849 87.9196 21.9824 86.48 22.412C85.0417 22.8415 85.6195 20.7728 83.4439 21.1728Z"
      fill="#252B4C"/>
    <path
      d="M103.805 24.6871C104 25.5214 106.277 28.8877 106.77 28.6716C107.263 28.4555 109.177 26.8796 108.953 26.1154C108.729 25.3512 106.495 22.5241 105.83 22.6796C105.166 22.8345 103.805 24.6871 103.805 24.6871Z"
      fill="#1E263E"/>
    <path d="M64.1426 12.8647L66.606 19.7016L68.6003 18.823L65.6018 12.7061L64.1426 12.8647Z" fill="#DDA292"/>
    <path
      d="M65.8965 18.5138C66.0939 18.1954 67.4145 17.1403 68.507 17.652C69.5995 18.1638 69.2763 19.1125 69.2763 19.1125C69.2763 19.1125 66.7672 20.281 66.1626 20.6082C65.5579 20.9361 65.5809 19.0218 65.8965 18.5138Z"
      fill="#1E263E"/>
    <path
      d="M63.3324 12.1085C63.3324 12.1085 62.4143 9.97656 63.0437 10.1763C63.6731 10.376 64.4658 11.5087 64.4658 11.5087L63.3324 12.1085ZM114.972 19.2383C114.972 19.2383 116.877 17.4184 116.131 17.3478C115.385 17.2772 114.054 18.1083 114.054 18.1083L114.972 19.2383Z"
      fill="#DDA292"/>
    <path
      d="M65.9366 12.5808C65.7695 12.3932 65.1925 12.5993 65.1925 12.5993C65.1925 12.5993 65.882 12.2762 65.7763 12.0132C65.6782 11.7686 65.1678 12.0111 64.9934 12.0849C65.1887 11.9937 65.6368 11.6801 65.5038 11.4334C65.3784 11.2 64.5755 11.4988 64.5755 11.4988C64.5755 11.4988 65.2288 11.1299 65.0953 10.8605C64.9328 10.5322 63.8318 11.0503 63.4442 11.2305C63.1577 11.3644 62.6481 12.0374 63.2472 12.0622C63.2472 12.0622 62.9368 12.3505 63.1521 12.6251C63.3717 12.9044 63.6003 12.5919 63.6003 12.5919C63.6003 12.5919 63.3261 12.8707 63.5465 13.1637C63.6868 13.3498 63.9555 13.1912 63.9555 13.1912C63.9555 13.1912 63.8186 13.5121 64.138 13.6038C64.6134 13.7403 66.1886 12.8638 65.9366 12.5808Z"
      fill="#EDB29F"/>
    <path opacity="0.2"
          d="M64.6968 10.8961L64.8588 11.1354C64.8588 11.1354 65.0831 10.9957 65.0426 10.8877C65.0025 10.7797 64.6968 10.8961 64.6968 10.8961ZM65.1014 11.478C65.1014 11.478 65.1663 11.722 65.2349 11.7173C65.3031 11.7126 65.4528 11.6035 65.4127 11.4986C65.3726 11.3937 65.1194 11.4527 65.1014 11.478ZM65.4379 11.9898C65.4379 11.9898 65.4387 12.1869 65.5581 12.2475C65.5581 12.2475 65.7931 12.1553 65.7389 12.0346C65.6852 11.9139 65.4379 11.9898 65.4379 11.9898ZM65.6588 12.5869C65.6588 12.5869 65.6618 12.725 65.7777 12.8151C65.7777 12.8151 65.9381 12.7371 65.8865 12.6264C65.8349 12.5158 65.6588 12.5869 65.6588 12.5869Z"
          fill="white"/>
    <path
      d="M112.043 18.5769C112.301 18.4546 112.812 18.9258 112.812 18.9258C112.812 18.9258 112.236 18.2828 112.462 18.0546C112.673 17.8422 113.1 18.3228 113.249 18.4767C113.085 18.2944 112.756 17.7689 113.004 17.5697C113.239 17.3815 113.945 18.0498 113.945 18.0498C113.945 18.0498 113.426 17.3747 113.685 17.1523C114.001 16.8814 114.921 17.9112 115.245 18.2712C115.486 18.5379 115.72 19.4671 115.082 19.2273C115.082 19.2273 115.278 19.6663 114.932 19.8576C114.579 20.0521 114.478 19.6241 114.478 19.6241C114.478 19.6241 114.641 20.0373 114.281 20.2455C114.052 20.3778 113.842 20.0927 113.842 20.0927C113.842 20.0927 113.843 20.4885 113.469 20.4426C112.911 20.3752 111.655 18.7608 112.043 18.5769Z"
      fill="#EDB29F"/>
    <path opacity="0.2"
          d="M114.084 17.3674L113.809 17.5455C113.809 17.5455 113.636 17.3 113.726 17.2051C113.816 17.1102 114.084 17.3674 114.084 17.3674ZM113.403 17.7959C113.403 17.7959 113.228 18.022 113.158 17.9867C113.089 17.9514 112.981 17.7711 113.07 17.6794C113.157 17.5872 113.396 17.7617 113.403 17.7959ZM112.825 18.1817C112.825 18.1817 112.736 18.3872 112.584 18.3978C112.584 18.3978 112.38 18.1975 112.49 18.0953C112.601 17.9925 112.825 18.1817 112.825 18.1817ZM112.329 18.7072C112.329 18.7072 112.264 18.85 112.103 18.8927C112.103 18.8927 111.97 18.7398 112.073 18.6476C112.177 18.5549 112.329 18.7072 112.329 18.7072Z"
          fill="white"/>
  </g>
  <defs>
    <clipPath id="clip0_1102_110940">
      <rect width="141.143" height="113" fill="white"/>
    </clipPath>
  </defs>
</svg>
