<svg width="18" height="22" viewBox="0 0 18 22" fill="none" xmlns="http://www.w3.org/2000/svg">
  <path d="M0 8.11962L1.49396 7.5L2.53846 9H0V8.11962Z" fill="url(#paint0_linear_168_25260)"/>
  <path
    d="M2.90892 0C2.14538 0 1.52295 0.62 1.52295 1.375V20.625C1.52295 21.38 2.14538 22 2.90892 22H16.3831C17.1467 22 17.7691 21.38 17.7691 20.625V5.065C17.7691 4.6425 17.6003 4.2375 17.2979 3.94L13.7977 0.4675C13.4978 0.17 13.0895 0 12.6637 0H2.90892Z"
    fill="url(#paint1_linear_168_25260)"/>
  <path
    d="M1.52295 20.8129C1.52295 20.8769 1.528 20.9384 1.53557 21L17.7691 5.17263C17.706 4.87474 17.5545 4.59901 17.3323 4.37991L13.825 0.96037C13.5245 0.667407 13.1154 0.5 12.6887 0.5H2.91173C2.14664 0.5 1.52295 1.11054 1.52295 1.85403V20.8129Z"
    fill="url(#paint2_linear_168_25260)"/>
  <path
    d="M17.755 4.938C17.6853 4.6399 17.5339 4.36804 17.3151 4.15103L14.0943 0.955485C13.8756 0.738474 13.6016 0.583466 13.2987 0.519078C13.2651 0.511924 13.2314 0.504769 13.2002 0.5V4.4849C13.2002 4.76868 13.4333 5 13.7194 5H17.7694C17.7646 4.98092 17.7598 4.95946 17.755 4.938Z"
    fill="url(#paint3_linear_168_25260)"/>
  <path
    d="M1.52344 19.5V20.7315C1.52344 21.428 2.14587 22 2.90941 22H16.3836C17.1472 22 17.7696 21.428 17.7696 20.7315V19.5H1.52344Z"
    fill="url(#paint4_linear_168_25260)"/>
  <path
    d="M14.57 15.5H0.660765C0.295941 15.5 0 15.2103 0 14.8532V9H14.57C14.9348 9 15.2308 9.28967 15.2308 9.64675V14.8532C15.2308 15.2103 14.9348 15.5 14.57 15.5Z"
    fill="url(#paint5_linear_168_25260)"/>
  <path d="M1.52308 7.5H0.673169C0.301496 7.5 0 7.83656 0 8.24855C0 8.66344 0.301496 9 0.67057 9H1.52048V7.5H1.52308Z"
        fill="url(#paint6_linear_168_25260)"/>
  <path fill-rule="evenodd" clip-rule="evenodd"
        d="M3.0459 10.9224V13.4018C3.0459 13.5748 3.18896 13.7157 3.36466 13.7157C3.54036 13.7157 3.68342 13.5748 3.68342 13.4018V12.6454C3.68342 12.5885 3.7286 12.544 3.78633 12.544C4.11262 12.5514 4.4364 12.5366 4.76019 12.4995C5.19441 12.4006 5.49309 12.0051 5.46297 11.5651C5.4956 11.1523 5.22955 10.7716 4.82545 10.6555C4.34103 10.606 3.85159 10.5912 3.36466 10.6085C3.18896 10.6085 3.0459 10.7494 3.0459 10.9224ZM3.68359 11.917V11.2372C3.68359 11.1804 3.72877 11.1359 3.78901 11.1334C4.00989 11.1309 4.23076 11.1359 4.45164 11.1556C4.59972 11.1804 4.72271 11.2817 4.77793 11.4177C4.86578 11.6352 4.75785 11.8824 4.53697 11.9689C4.28849 12.0183 4.0375 12.0356 3.7865 12.0183C3.72877 12.0183 3.68359 11.9738 3.68359 11.917Z"
        fill="white"/>
  <path fill-rule="evenodd" clip-rule="evenodd"
        d="M6.30363 10.6095C6.12793 10.6095 5.98486 10.7504 5.98486 10.9234V13.4027C5.98486 13.5758 6.12793 13.7167 6.30363 13.7167C6.78553 13.7389 7.26995 13.7167 7.74684 13.6499C8.13086 13.5387 8.42954 13.2371 8.53245 12.854C8.60273 12.6389 8.63536 12.4164 8.63034 12.1915C8.63787 11.9418 8.60273 11.6946 8.52743 11.4573C8.41699 11.0841 8.12584 10.7874 7.74935 10.6688C7.26995 10.602 6.78553 10.5823 6.30363 10.6095ZM6.62339 13.0918V11.2354C6.62088 11.1785 6.66606 11.134 6.72379 11.134C6.95972 11.1291 7.19817 11.139 7.43159 11.1637C7.66502 11.2082 7.85075 11.3837 7.90848 11.6111C7.95868 11.7916 7.98127 11.9794 7.97374 12.1648C7.97876 12.3552 7.95617 12.548 7.90848 12.7334C7.86832 12.9484 7.70015 13.119 7.4843 13.1635C7.23331 13.1981 6.9798 13.208 6.7263 13.1932C6.66857 13.1932 6.62339 13.1487 6.62339 13.0918Z"
        fill="white"/>
  <path
    d="M9.17578 13.4026V10.9233C9.17578 10.7503 9.31885 10.6094 9.49454 10.6094H11.0708C11.2189 10.6094 11.3368 10.728 11.3368 10.8714C11.3368 11.0172 11.2164 11.1334 11.0708 11.1334H9.91621C9.85848 11.1334 9.81331 11.1779 9.81331 11.2348V11.7687C9.81331 11.8256 9.85848 11.87 9.91621 11.87H10.865C11.0131 11.87 11.131 11.9887 11.131 12.1321C11.131 12.2779 11.0105 12.3941 10.865 12.3941H9.91621C9.85848 12.3941 9.81331 12.4386 9.81331 12.4954V13.4002C9.81331 13.5732 9.67024 13.7141 9.49454 13.7141C9.31885 13.7166 9.17578 13.5757 9.17578 13.4026Z"
    fill="white"/>
  <defs>
    <linearGradient id="paint0_linear_168_25260" x1="-25.1722" y1="7.24617" x2="-25.1722" y2="38.4952"
                    gradientUnits="userSpaceOnUse">
      <stop stop-color="#F05555"/>
      <stop offset="1" stop-color="#D42027"/>
    </linearGradient>
    <linearGradient id="paint1_linear_168_25260" x1="7.20867" y1="-3.60199" x2="-9.80754" y2="9.01803"
                    gradientUnits="userSpaceOnUse">
      <stop stop-color="#EEF5FB"/>
      <stop offset="1" stop-color="#C9E8FA"/>
    </linearGradient>
    <linearGradient id="paint2_linear_168_25260" x1="11.3854" y1="12" x2="23.5144" y2="4.57316"
                    gradientUnits="userSpaceOnUse">
      <stop stop-color="#85C8EE" stop-opacity="0.01"/>
      <stop offset="1" stop-color="#3073A0"/>
    </linearGradient>
    <linearGradient id="paint3_linear_168_25260" x1="14.2664" y1="0.887371" x2="11.2768" y2="3.94543"
                    gradientUnits="userSpaceOnUse">
      <stop stop-color="#EEF5FB"/>
      <stop offset="1" stop-color="#C9E8FA"/>
    </linearGradient>
    <linearGradient id="paint4_linear_168_25260" x1="0.135374" y1="20.5428" x2="0.135374" y2="23.4731"
                    gradientUnits="userSpaceOnUse">
      <stop stop-color="#85C8EE" stop-opacity="0.01"/>
      <stop offset="1" stop-color="#3073A0"/>
    </linearGradient>
    <linearGradient id="paint5_linear_168_25260" x1="-14.8363" y1="8.19748" x2="-14.8363" y2="27.361"
                    gradientUnits="userSpaceOnUse">
      <stop stop-color="#F05555"/>
      <stop offset="1" stop-color="#D42027"/>
    </linearGradient>
    <linearGradient id="paint6_linear_168_25260" x1="-5.13044" y1="1.18927" x2="-5.13044" y2="12.7982"
                    gradientUnits="userSpaceOnUse">
      <stop stop-color="#F05555"/>
      <stop offset="1" stop-color="#D42027"/>
    </linearGradient>
  </defs>
</svg>
