<svg width="78" height="88" viewBox="0 0 78 88" fill="none" xmlns="http://www.w3.org/2000/svg">
  <path
    d="M60.6673 30.9987C60.6673 35.7852 56.7871 39.6654 52.0007 39.6654C47.2142 39.6654 43.334 35.7852 43.334 30.9987C43.334 26.2122 47.2142 22.332 52.0007 22.332C56.7871 22.332 60.6673 26.2122 60.6673 30.9987Z"
    fill="#858C94"/>
  <path fill-rule="evenodd" clip-rule="evenodd"
        d="M65.0001 0.666053H30.3501C29.8013 0.663786 29.2511 0.765168 28.7313 0.97187C28.3954 1.10545 28.0722 1.28303 27.7703 1.50504C27.6475 1.59527 27.5296 1.69183 27.4171 1.79422L1.468 25.1486C1.37707 25.2288 1.28954 25.3128 1.20564 25.4003C0.904561 25.7137 0.659272 26.0626 0.470469 26.4339C0.169713 27.0238 0.000126019 27.6918 0.000126019 28.3994V63.4637C-4.20407e-05 63.4858 -4.1972e-05 63.5079 0.000126019 63.53V74.3327C0.000126019 81.5124 5.82043 87.3327 13.0001 87.3327H65.0001C72.1798 87.3327 78.0001 81.5124 78.0001 74.3327V63.5497C78.0005 63.5184 78.0005 63.487 78.0001 63.4557V13.6661C78.0001 6.48635 72.1798 0.666053 65.0001 0.666053ZM69.3335 54.8327V13.6661C69.3335 11.2728 67.3934 9.33272 65.0001 9.33272H34.6668V28.3994C34.6668 30.7926 32.7267 32.7327 30.3335 32.7327H8.66679V51.3599L20.4796 36.922C21.3301 35.8826 22.6144 35.2962 23.9568 35.3345C25.2992 35.3727 26.5481 36.0312 27.338 37.1173L41.9105 57.1546L53.5134 47.2093C55.0554 45.8875 57.3086 45.8141 58.9335 47.0327L69.3335 54.8327ZM8.66679 65.0462V74.3327C8.66679 76.7259 10.6069 78.666 13.0001 78.666H65.0001C67.3934 78.666 69.3335 76.7259 69.3335 74.3327V65.666L56.5143 56.0517L43.9869 66.7895C43.0687 67.5765 41.8634 67.944 40.6623 67.8032C39.4612 67.6625 38.3736 67.0262 37.6623 66.0481L23.6316 46.7559L8.66679 65.0462ZM26.0001 24.066H15.6261L26.0001 14.7294V24.066Z"
        fill="#858C94"/>
</svg>
