<svg width="95" height="71" viewBox="0 0 95 71" fill="none" xmlns="http://www.w3.org/2000/svg">
  <path d="M91.5091 4.99609H4.90869V67.0573H91.5091V4.99609Z" fill="white"/>
  <path d="M4.90869 37.7052C42.8168 43.8868 70.5943 30.8686 91.5091 4.9552V67.0164H4.90869V37.7052Z" fill="#E3EFCB"/>
  <path
    d="M90.5722 70.3438H4.72134C3.64733 70.3438 2.6173 69.9172 1.85786 69.158C1.09842 68.3987 0.671768 67.369 0.671768 66.2952V4.7985C0.671768 3.72477 1.09842 2.69502 1.85786 1.93578C2.6173 1.17654 3.64733 0.75 4.72134 0.75H90.5722C91.6462 0.75 92.6763 1.17654 93.4357 1.93578C94.1952 2.69502 94.6218 3.72477 94.6218 4.7985V66.1333C94.6436 66.6784 94.555 67.2223 94.3613 67.7324C94.1676 68.2424 93.8728 68.708 93.4945 69.1013C93.1163 69.4946 92.6625 69.8073 92.1603 70.0208C91.6581 70.2344 91.1179 70.3442 90.5722 70.3438ZM8.89239 61.9634H86.4012V8.96846H8.89239V61.9634Z"
    fill="#194175"/>
  <path
    d="M46.4295 40.8202C45.554 40.8081 44.7015 40.5375 43.9786 40.0424L2.25476 9.00008C1.50917 8.49135 0.952561 7.74962 0.671762 6.89059C0.390964 6.03157 0.401769 5.10355 0.702492 4.25133C0.964722 3.38109 1.18913 3.3231 1.92876 2.79683C2.66838 2.27056 3.88115 1.30595 4.78742 1.34476L89.8114 1.39736C90.7539 1.28329 91.7066 1.50175 92.5058 2.01519C93.305 2.52863 93.9008 3.305 94.1908 4.21088C94.4809 5.11676 94.447 6.0956 94.0951 6.97918C93.7432 7.86277 93.0952 8.59592 92.2624 9.05268L48.9622 40.0833C48.2116 40.5796 47.3286 40.8365 46.4295 40.8202ZM16.2828 9.83049L46.4295 31.4455L76.6171 9.83049H16.2828Z"
    fill="#194175"/>
</svg>
