<svg width="20" height="20" viewBox="0 0 18 13" fill="none" xmlns="http://www.w3.org/2000/svg">
  <path d="M17.4282 0.777344H1.5625V12.1473H17.4282V0.777344Z" fill="white"/>
  <path d="M1.5625 6.76953C8.5075 7.90203 13.5965 5.51703 17.4282 0.769531V12.1395H1.5625V6.76953Z" fill="#E3EFCB"/>
  <path
    d="M17.2574 12.75H1.52902C1.33225 12.75 1.14354 12.6719 1.00441 12.5328C0.865274 12.3937 0.787109 12.205 0.787109 12.0083V0.74171C0.787109 0.544996 0.865274 0.356339 1.00441 0.217242C1.14354 0.078144 1.33225 0 1.52902 0H17.2574C17.4542 0 17.6429 0.078144 17.782 0.217242C17.9212 0.356339 17.9993 0.544996 17.9993 0.74171V11.9786C18.0033 12.0785 17.9871 12.1781 17.9516 12.2716C17.9161 12.365 17.8621 12.4503 17.7928 12.5224C17.7235 12.5944 17.6404 12.6517 17.5484 12.6908C17.4564 12.73 17.3574 12.7501 17.2574 12.75ZM2.29318 11.2147H16.4933V1.50567H2.29318V11.2147Z"
    fill="#194175"/>
  <path
    d="M9.17029 7.34172C9.00989 7.3395 8.8537 7.28993 8.72127 7.19922L1.07721 1.51208C0.940612 1.41888 0.838637 1.28299 0.787193 1.12561C0.735749 0.968234 0.737729 0.798216 0.792823 0.642083C0.840865 0.48265 0.881978 0.472026 1.01748 0.37561C1.15299 0.279195 1.37517 0.102472 1.54121 0.109583L17.1181 0.11922C17.2908 0.0983216 17.4653 0.138344 17.6117 0.232409C17.7582 0.326475 17.8673 0.46871 17.9205 0.634673C17.9736 0.800637 17.9674 0.979965 17.9029 1.14184C17.8384 1.30372 17.7197 1.43804 17.5672 1.52172L9.63429 7.20672C9.49678 7.29764 9.33502 7.34471 9.17029 7.34172ZM3.64723 1.66422L9.17029 5.62422L14.7008 1.66422H3.64723Z"
    fill="#194175"/>
</svg>
