<svg width="20" height="20" viewBox="0 0 20 20" fill="none" xmlns="http://www.w3.org/2000/svg">
  <path
    d="M2.5 10.3117C9.06604 11.4322 13.8774 9.07239 17.5 4.375V15.625L13.75 15.3125L10 16.25L6.5625 15.3125L2.5 15.625V10.3117Z"
    fill="#1E263E" fill-opacity="0.17"/>
  <path fill-rule="evenodd" clip-rule="evenodd"
        d="M3.33398 1.66602C1.95327 1.66602 0.833984 2.7853 0.833984 4.16602V13.3327C0.833984 14.7134 1.95327 15.8327 3.33398 15.8327H7.15547L9.4114 18.0886C9.73683 18.414 10.2645 18.414 10.5899 18.0886L12.8458 15.8327H16.6673C18.048 15.8327 19.1673 14.7134 19.1673 13.3327V4.16602C19.1673 2.7853 18.048 1.66602 16.6673 1.66602H3.33398ZM12.6393 14.1776C12.6846 14.17 12.731 14.166 12.7784 14.166H16.6673C17.1276 14.166 17.5006 13.7929 17.5006 13.3327V4.16602C17.5006 3.70578 17.1276 3.33268 16.6673 3.33268H3.33398C2.87375 3.33268 2.50065 3.70578 2.50065 4.16602V13.3327C2.50065 13.7929 2.87375 14.166 3.33398 14.166H7.22287C7.27026 14.166 7.31673 14.17 7.36196 14.1776C7.61872 14.1345 7.89178 14.212 8.08991 14.4101L10.0007 16.3208L11.9114 14.4101C12.1095 14.212 12.3826 14.1345 12.6393 14.1776ZM5.83398 7.49935C5.83398 7.03911 6.20708 6.66602 6.66732 6.66602H13.334C13.7942 6.66602 14.1673 7.03911 14.1673 7.49935C14.1673 7.95959 13.7942 8.33268 13.334 8.33268H6.66732C6.20708 8.33268 5.83398 7.95959 5.83398 7.49935ZM6.66732 9.99935C6.20708 9.99935 5.83398 10.3724 5.83398 10.8327C5.83398 11.2929 6.20708 11.666 6.66732 11.666H13.334C13.7942 11.666 14.1673 11.2929 14.1673 10.8327C14.1673 10.3724 13.7942 9.99935 13.334 9.99935H6.66732Z"
        fill="#5A6472"/>
</svg>
