<svg width="146" height="131" viewBox="0 0 146 131" fill="none" xmlns="http://www.w3.org/2000/svg">
  <ellipse opacity="0.1" cx="73" cy="102.935" rx="73" ry="3.93488" fill="#1D3666"/>
  <path fill-rule="evenodd" clip-rule="evenodd"
        d="M69.5098 71.6987C70.2327 72.1939 71.0852 72.4644 71.9608 72.4765C72.8598 72.4929 73.7428 72.236 74.4934 71.7397L117.794 40.709C118.626 40.2523 119.274 39.5191 119.626 38.6356C119.978 37.752 120.012 36.7731 119.722 35.8673C119.432 34.9614 118.836 34.185 118.037 33.6716C117.238 33.1581 116.285 32.9397 115.343 33.0537L30.3186 33.0011C29.5107 32.9665 28.4592 33.7294 27.7165 34.2682C27.6261 34.3338 27.5402 34.3961 27.46 34.4532C27.3682 34.5185 27.2844 34.5765 27.2075 34.6299C26.6641 35.0064 26.4634 35.1454 26.2337 35.9077C25.933 36.7599 25.9222 37.6879 26.203 38.547C26.4838 39.406 27.0404 40.1477 27.786 40.6564L69.5098 71.6987ZM102 41.5931L102.148 41.4869H102V41.5931Z"
        fill="#194175"/>
  <path d="M117 42H30V99H117V42Z" fill="white"/>
  <path d="M33 65.75C70.9081 71.9316 98.6856 58.9134 119.6 33V95.0612H33V65.75Z" fill="#E3EFCB"/>
  <path
    d="M115.9 102.344H30.0496C28.9756 102.344 27.9455 101.917 27.1861 101.158C26.4266 100.399 26 99.369 26 98.2952V36.7985C26 35.7248 26.4266 34.695 27.1861 33.9358C27.9455 33.1765 28.9756 32.75 30.0496 32.75H115.9C116.974 32.75 118.005 33.1765 118.764 33.9358C119.523 34.695 119.95 35.7248 119.95 36.7985V98.1333C119.972 98.6784 119.883 99.2224 119.69 99.7324C119.496 100.242 119.201 100.708 118.823 101.101C118.445 101.495 117.991 101.807 117.489 102.021C116.986 102.234 116.446 102.344 115.9 102.344ZM34.2206 93.9634H111.729V40.9685H34.2206V93.9634Z"
    fill="#194175"/>
  <path fill-rule="evenodd" clip-rule="evenodd"
        d="M69.5098 71.6988C70.2327 72.1939 71.0852 72.4644 71.9608 72.4766C72.8598 72.4929 73.7428 72.236 74.4934 71.7397L117.794 40.7091C118.626 40.2523 119.274 39.5192 119.626 38.6356C119.978 37.752 120.012 36.7732 119.722 35.8673C119.432 34.9614 118.836 34.185 118.037 33.6716C117.238 33.1581 116.285 32.9397 115.343 33.0538L30.3186 33.0012C29.5107 32.9666 28.4592 33.7294 27.7165 34.2682C27.6261 34.3338 27.5402 34.3961 27.46 34.4532C27.3682 34.5185 27.2844 34.5766 27.2075 34.6299C26.6641 35.0064 26.4634 35.1454 26.2337 35.9077C25.933 36.7599 25.9222 37.688 26.203 38.547C26.4838 39.406 27.0404 40.1477 27.786 40.6565L69.5098 71.6988ZM102 41.5931V41.4869H102.148L102 41.5931Z"
        fill="#194175"/>
  <mask id="mask0_824_64706" style="mask-type:alpha" maskUnits="userSpaceOnUse" x="37" y="6" width="73" height="69">
    <path fill-rule="evenodd" clip-rule="evenodd"
          d="M70.5497 73.59C71.1071 73.851 71.7645 73.9936 72.4396 74C73.1329 74.0086 73.8137 73.8732 74.3925 73.6116L105.5 56.1157C106.142 55.8749 108.922 52.6277 109.194 52.162C109.465 51.6963 109.491 51.1803 109.268 50.7028C109.044 50.2253 108.585 49.8161 107.968 49.5455C107.675 49.4166 107.19 39.5294 106.684 29.213C106.127 17.8643 105.545 5.99624 105.164 6.02773L39.6033 6.00001C39.2353 5.98923 39.0033 18.1032 38.7828 29.6154C38.5846 39.9639 38.3957 49.8262 38.1258 49.9575C38.055 49.9919 37.9904 50.0225 37.9311 50.0506C37.5121 50.2491 37.3573 50.3223 37.1802 50.7242C36.9483 51.1734 36.94 51.6625 37.1565 52.1153C37.373 52.5681 37.8022 52.9591 38.3771 53.2272L70.5497 73.59ZM95.6024 53.7209L95.7168 53.6649H95.6024V53.7209Z"
          fill="#194175"/>
  </mask>
  <g mask="url(#mask0_824_64706)">
    <path
      d="M103.163 8.23891L44.1003 8.17635C43.5476 8.17577 43.0993 8.62365 43.0993 9.17635L43.0993 51.0191C43.0993 51.323 43.2375 51.6105 43.4749 51.8002L71.8733 74.499C72.2394 74.7917 72.7598 74.7908 73.1249 74.4967L103.789 49.8002C104.025 49.6104 104.162 49.324 104.162 49.0214L104.162 9.23891C104.162 8.68703 103.715 8.23949 103.163 8.23891Z"
      fill="white" stroke="#194175"/>
    <path d="M73.8326 22.2151L49.1471 22.189L49.146 23.1947L73.8315 23.2209L73.8326 22.2151Z" fill="#194175"/>
    <path d="M73.8279 27.8159L49.1424 27.7898L49.1413 28.7956L73.8268 28.8217L73.8279 27.8159Z" fill="#194175"/>
    <path d="M97.7321 33.4458L49.1318 33.3943L49.1308 34.4001L97.7311 34.4515L97.7321 33.4458Z" fill="#194175"/>
    <path d="M97.7271 39.0465L49.1268 38.995L49.1257 40.0008L97.726 40.0522L97.7271 39.0465Z" fill="#194175"/>
    <path d="M97.7214 44.651L49.1211 44.5995L49.12 45.6052L97.7203 45.6567L97.7214 44.651Z" fill="#194175"/>
    <path d="M97.7127 50.2519L49.1125 50.2004L49.1114 51.2062L97.7117 51.2577L97.7127 50.2519Z" fill="#194175"/>
    <path d="M93.51 55.8441L50.0439 55.7981L50.0429 56.8039L93.5089 56.8499L93.51 55.8441Z" fill="#194175"/>
    <path d="M85.1052 61.4406L57.7029 61.4116L57.7018 62.4174L85.1041 62.4464L85.1052 61.4406Z" fill="#194175"/>
    <path d="M79.3079 67.0354L63.6663 67.0188L63.6653 68.0246L79.3069 68.0411L79.3079 67.0354Z" fill="#194175"/>
    <path d="M97.6922 72.6555L49.0919 72.604L49.0909 73.6098L97.6912 73.6612L97.6922 72.6555Z" fill="#194175"/>
    <path
      d="M51.4132 16.3272C50.7491 16.3272 50.2453 16.1555 49.9018 15.812C49.5584 15.4685 49.3866 14.967 49.3866 14.3075V11.4223H50.2522V14.3556C50.2522 14.7724 50.3507 15.0884 50.5476 15.3036C50.7445 15.5143 51.033 15.6196 51.4132 15.6196C51.7887 15.6196 52.0749 15.512 52.2719 15.2968C52.4688 15.0815 52.5673 14.7678 52.5673 14.3556V11.4223H53.4328V14.3075C53.4328 14.9624 53.2611 15.4639 52.9176 15.812C52.5741 16.1555 52.0727 16.3272 51.4132 16.3272ZM56.3277 12.8237C56.7307 12.8237 57.0307 12.9382 57.2276 13.1672C57.4246 13.3962 57.523 13.7419 57.523 14.2045V16.2654H56.6643V14.2526C56.6643 13.9915 56.6139 13.8015 56.5132 13.6824C56.417 13.5633 56.2636 13.5038 56.0529 13.5038C55.8056 13.5038 55.6064 13.5816 55.4553 13.7373C55.3087 13.8931 55.2354 14.1014 55.2354 14.3625V16.2654H54.3767V12.9061H55.2148V13.4076C55.3293 13.2198 55.4827 13.0756 55.6751 12.9748C55.8674 12.8741 56.085 12.8237 56.3277 12.8237ZM61.6377 11.4223V16.2654H60.7858V15.7227C60.6851 15.9104 60.5385 16.057 60.3462 16.1623C60.1584 16.2677 59.9432 16.3203 59.7004 16.3203C59.4119 16.3203 59.1532 16.2471 58.9242 16.1005C58.6998 15.954 58.5234 15.7479 58.3952 15.4822C58.2716 15.212 58.2097 14.9029 58.2097 14.5548C58.2097 14.2068 58.2716 13.9022 58.3952 13.6412C58.5234 13.3801 58.6998 13.1786 58.9242 13.0366C59.1486 12.8947 59.4073 12.8237 59.7004 12.8237C59.9432 12.8237 60.1584 12.8741 60.3462 12.9748C60.534 13.0756 60.6782 13.2175 60.779 13.4007V11.4223H61.6377ZM59.9271 15.654C60.2019 15.654 60.4126 15.5601 60.5592 15.3723C60.7103 15.1846 60.7858 14.9166 60.7858 14.5686C60.7858 14.2205 60.7103 13.9549 60.5592 13.7717C60.4126 13.5839 60.2042 13.49 59.934 13.49C59.6592 13.49 59.4463 13.5816 59.2951 13.7648C59.144 13.948 59.0684 14.2114 59.0684 14.5548C59.0684 14.9029 59.144 15.1731 59.2951 15.3655C59.4463 15.5578 59.6569 15.654 59.9271 15.654ZM63.9637 12.8237C64.4354 12.8237 64.7857 12.9382 65.0147 13.1672C65.2437 13.3962 65.3582 13.7488 65.3582 14.2251V16.2654H64.5407V15.7502C64.4629 15.9288 64.3392 16.0685 64.1697 16.1692C64.0049 16.27 63.8125 16.3203 63.5927 16.3203C63.3683 16.3203 63.1645 16.2745 62.9813 16.1829C62.7981 16.0913 62.6538 15.9654 62.5485 15.8051C62.4432 15.6448 62.3905 15.4662 62.3905 15.2693C62.3905 15.022 62.4523 14.8273 62.576 14.6854C62.7042 14.5434 62.9103 14.4403 63.1943 14.3762C63.4782 14.3121 63.8698 14.28 64.369 14.28H64.5407V14.122C64.5407 13.8931 64.4903 13.7282 64.3896 13.6274C64.2934 13.5267 64.1308 13.4763 63.9018 13.4763C63.7232 13.4763 63.5354 13.5084 63.3385 13.5725C63.1462 13.632 62.9561 13.7167 62.7683 13.8267L62.5279 13.2359C62.7157 13.1168 62.9424 13.0183 63.208 12.9405C63.4736 12.8626 63.7255 12.8237 63.9637 12.8237ZM63.7644 15.7021C63.9934 15.7021 64.1789 15.6265 64.3209 15.4754C64.4674 15.3197 64.5407 15.1204 64.5407 14.8777V14.7334H64.4171C64.1102 14.7334 63.8721 14.7472 63.7026 14.7747C63.5332 14.8021 63.4118 14.8502 63.3385 14.9189C63.2652 14.9876 63.2286 15.0815 63.2286 15.2006C63.2286 15.3471 63.279 15.4685 63.3797 15.5647C63.4805 15.6563 63.6087 15.7021 63.7644 15.7021ZM68.1819 12.8237C68.5849 12.8237 68.8849 12.9382 69.0818 13.1672C69.2788 13.3962 69.3772 13.7419 69.3772 14.2045V16.2654H68.5185V14.2526C68.5185 13.9915 68.4681 13.8015 68.3674 13.6824C68.2712 13.5633 68.1178 13.5038 67.9071 13.5038C67.6598 13.5038 67.4606 13.5816 67.3095 13.7373C67.1629 13.8931 67.0896 14.1014 67.0896 14.3625V16.2654H66.2309V12.9061H67.069V13.4076C67.1835 13.2198 67.3369 13.0756 67.5293 12.9748C67.7216 12.8741 67.9392 12.8237 68.1819 12.8237ZM73.5194 12.9061V15.9562C73.5194 16.4829 73.3728 16.8814 73.0797 17.1516C72.7912 17.4218 72.363 17.5569 71.7951 17.5569C71.502 17.5569 71.2203 17.5179 70.9501 17.4401C70.6799 17.3668 70.444 17.2615 70.2425 17.1241L70.483 16.5196C70.8997 16.7714 71.3302 16.8974 71.7745 16.8974C72.3698 16.8974 72.6675 16.6043 72.6675 16.0181V15.5784C72.5668 15.7662 72.4202 15.9127 72.2279 16.0181C72.0355 16.1188 71.8157 16.1692 71.5684 16.1692C71.2753 16.1692 71.0142 16.1005 70.7852 15.9631C70.5608 15.8211 70.3845 15.6242 70.2563 15.3723C70.128 15.1204 70.0639 14.8296 70.0639 14.4999C70.0639 14.1701 70.1257 13.8793 70.2494 13.6274C70.3776 13.371 70.5562 13.174 70.7852 13.0366C71.0142 12.8947 71.2753 12.8237 71.5684 12.8237C71.8157 12.8237 72.0355 12.8763 72.2279 12.9817C72.4202 13.0824 72.5668 13.2267 72.6675 13.4145V12.9061H73.5194ZM71.7951 15.5028C72.0699 15.5028 72.2828 15.4135 72.4339 15.2349C72.5897 15.0563 72.6675 14.8113 72.6675 14.4999C72.6675 14.1839 72.5897 13.9366 72.4339 13.758C72.2828 13.5793 72.0699 13.49 71.7951 13.49C71.5249 13.49 71.3119 13.5793 71.1562 13.758C71.0005 13.9366 70.9226 14.1839 70.9226 14.4999C70.9226 14.8067 71.0005 15.0517 71.1562 15.2349C71.3119 15.4135 71.5249 15.5028 71.7951 15.5028ZM75.8514 12.8237C76.3231 12.8237 76.6735 12.9382 76.9024 13.1672C77.1314 13.3962 77.2459 13.7488 77.2459 14.2251V16.2654H76.4284V15.7502C76.3506 15.9288 76.2269 16.0685 76.0575 16.1692C75.8926 16.27 75.7003 16.3203 75.4804 16.3203C75.256 16.3203 75.0522 16.2745 74.869 16.1829C74.6858 16.0913 74.5416 15.9654 74.4362 15.8051C74.3309 15.6448 74.2782 15.4662 74.2782 15.2693C74.2782 15.022 74.3401 14.8273 74.4637 14.6854C74.592 14.5434 74.798 14.4403 75.082 14.3762C75.3659 14.3121 75.7575 14.28 76.2567 14.28H76.4284V14.122C76.4284 13.8931 76.3781 13.7282 76.2773 13.6274C76.1811 13.5267 76.0186 13.4763 75.7896 13.4763C75.611 13.4763 75.4232 13.5084 75.2263 13.5725C75.0339 13.632 74.8438 13.7167 74.6561 13.8267L74.4156 13.2359C74.6034 13.1168 74.8301 13.0183 75.0957 12.9405C75.3614 12.8626 75.6132 12.8237 75.8514 12.8237ZM75.6522 15.7021C75.8812 15.7021 76.0666 15.6265 76.2086 15.4754C76.3552 15.3197 76.4284 15.1204 76.4284 14.8777V14.7334H76.3048C75.9979 14.7334 75.7598 14.7472 75.5903 14.7747C75.4209 14.8021 75.2995 14.8502 75.2263 14.9189C75.153 14.9876 75.1163 15.0815 75.1163 15.2006C75.1163 15.3471 75.1667 15.4685 75.2675 15.5647C75.3682 15.6563 75.4965 15.7021 75.6522 15.7021ZM80.0696 12.8237C80.4727 12.8237 80.7726 12.9382 80.9696 13.1672C81.1665 13.3962 81.265 13.7419 81.265 14.2045V16.2654H80.4062V14.2526C80.4062 13.9915 80.3559 13.8015 80.2551 13.6824C80.1589 13.5633 80.0055 13.5038 79.7948 13.5038C79.5475 13.5038 79.3483 13.5816 79.1972 13.7373C79.0506 13.8931 78.9774 14.1014 78.9774 14.3625V16.2654H78.1186V12.9061H78.9567V13.4076C79.0712 13.2198 79.2247 13.0756 79.417 12.9748C79.6094 12.8741 79.8269 12.8237 80.0696 12.8237Z"
      fill="#911F43"/>
  </g>
</svg>
