<svg width="20" height="20" viewBox="0 0 20 20" fill="none" xmlns="http://www.w3.org/2000/svg">
  <g clip-path="url(#clip0_1902_104217)">
    <path opacity="0.2" d="M13.2498 9.35137L5.80333 10.743L6.13251 15.8201L13.2498 9.35137Z" fill="#42638E"/>
    <path
      d="M16.1926 8.08114C16.2553 8.32576 16.1744 8.58478 15.9836 8.75023L5.84815 17.5407C5.65386 17.7092 5.37998 17.7509 5.14433 17.6479C4.90868 17.5449 4.75329 17.3155 4.74503 17.0585L4.55232 11.0634L1.83863 5.71411C1.72228 5.48475 1.74823 5.20892 1.90532 5.00529C2.06241 4.80166 2.32262 4.70655 2.574 4.76087L15.6877 7.59497C15.9345 7.64832 16.13 7.83653 16.1926 8.08114ZM5.89738 11.407L6.03267 15.6157L12.9766 9.59328L5.89738 11.407ZM12.6457 8.30166L3.66138 6.35999L5.56647 10.1153L12.6457 8.30166Z"
      fill="#8CC63C"/>
  </g>
  <defs>
    <clipPath id="clip0_1902_104217">
      <rect width="16" height="16" fill="white" transform="translate(15.499) rotate(75.6301)"/>
    </clipPath>
  </defs>
</svg>


