<svg width="20" height="20" viewBox="0 0 20 20" fill="none" xmlns="http://www.w3.org/2000/svg">
  <g clip-path="url(#clip0_1504_78998)">
    <path d="M13.5154 9.61651L6.06896 11.0081L6.39814 16.0853L13.5154 9.61651Z" fill="#E3EFCB"/>
    <path
      d="M16.4583 8.34628C16.5209 8.59089 16.44 8.84992 16.2493 9.01537L6.11378 17.8058C5.91949 17.9743 5.6456 18.0161 5.40995 17.913C5.1743 17.81 5.01892 17.5807 5.01066 17.3236L4.81794 11.3285L2.10426 5.97924C1.9879 5.74989 2.01385 5.47406 2.17095 5.27043C2.32803 5.0668 2.58824 4.97168 2.83962 5.02601L15.9533 7.86011C16.2001 7.91345 16.3956 8.10166 16.4583 8.34628ZM6.16301 11.6721L6.2983 15.8809L13.2422 9.85842L6.16301 11.6721ZM12.9113 8.5668L3.92701 6.62513L5.8321 10.3805L12.9113 8.5668Z"
      fill="#194175"/>
  </g>
  <defs>
    <clipPath id="clip0_1504_78998">
      <rect width="16" height="16" fill="white" transform="translate(15.7646 0.265625) rotate(75.6301)"/>
    </clipPath>
  </defs>
</svg>
