<svg width="16" height="16" viewBox="0 0 16 16" fill="none" xmlns="http://www.w3.org/2000/svg">
  <path d="M2.42655 10.8078L10.8553 1.92085L12.7465 3.80086L3.22989 13.3742L2.42655 10.8078Z" fill="#E3EFCB"/>
  <path
    d="M10.8619 1.52827C11.1223 1.26792 11.5444 1.26792 11.8047 1.52827L14.4714 4.19494C14.7318 4.45529 14.7318 4.8774 14.4714 5.13775L5.80474 13.8044C5.67971 13.9294 5.51014 13.9997 5.33333 13.9997H2.66667C2.29848 13.9997 2 13.7012 2 13.333V10.6663C2 10.4895 2.07024 10.32 2.19526 10.1949L8.86179 3.52841L10.8619 1.52827ZM9.33333 4.94248L3.33333 10.9425V12.6663H5.05719L11.0572 6.66634L9.33333 4.94248ZM12 5.72353L13.0572 4.66634L11.3333 2.94248L10.2761 3.99967L12 5.72353Z"
    fill="#194175"/>
</svg>


