<svg width="200" height="200" viewBox="0 0 200 200" fill="none" xmlns="http://www.w3.org/2000/svg">
  <path
    d="M195 106.704C194.984 131.382 174.967 158.009 150.289 157.994C147.929 157.994 145.57 157.807 143.242 157.427H72.4337C69.7003 157.802 66.9409 157.994 64.1815 157.994C37.2841 157.994 14.5023 133.721 6.79578 109.369C4.9354 103.487 3.99482 97.355 4.00002 91.1815C4.00002 57.9442 30.9442 31 64.1815 31C90.9543 31 113.632 48.4761 121.453 72.6453C129.518 65.7807 139.76 62.0235 150.351 62.0391C175.004 62.0443 195 82.0407 195 106.704Z"
    fill="white"/>
  <path
    d="M140.073 119.259C138.254 109.563 132.497 101.051 126.05 93.8033C124.311 91.8496 122.495 89.9682 120.641 88.1237C120.678 88.0039 120.689 87.8776 120.673 87.7533C120.117 83.1237 128.08 83.657 130.363 80.8645C132.158 78.6589 131.845 75.0589 128.717 74.4256C127.571 74.1941 126.3 74.5126 125.424 73.5367C124.839 72.8848 124.563 71.9719 124.032 71.27C123.168 70.1565 122.023 69.293 120.715 68.7682C119.609 68.3051 118.418 68.0791 117.22 68.105C116.021 68.1308 114.841 68.4078 113.756 68.9182C113.504 66.0422 110.584 63.8608 107.697 63.52C105.03 63.207 102.441 64.0311 99.8447 64.4941C96.7355 65.0496 94.4633 64.5774 91.7873 62.9737C90.1614 61.9978 88.3707 61.0108 86.404 61.3959C84.7707 61.7163 83.5836 62.8589 82.6021 64.1348C81.3873 65.7107 80.4207 67.7311 78.5281 68.5941C76.1484 69.6774 73.3966 68.8348 70.8855 69.1922C67.5892 69.6626 64.2521 72.3589 66.0096 75.9719C68.1429 80.3589 73.7781 79.5182 76.6392 82.8385C80.7299 87.5848 72.1707 93.1848 69.4521 96.1274C66.2263 99.6284 63.5253 103.579 61.4336 107.855C57.3336 116.242 55.4318 125.926 56.6558 135.233C57.2503 139.746 58.6725 144.263 61.6818 147.768C64.9484 151.574 69.8003 153.324 74.5521 154.435C85.7418 157.009 97.3076 157.518 108.68 155.935C118.298 154.614 128.882 152.046 135.078 143.926C140.371 137.001 141.65 127.672 140.073 119.259Z"
    fill="#6F91BD"/>
  <path
    d="M116.732 84.4916C105.747 83.0306 94.6597 82.4781 83.5837 82.8398C82.4133 82.8787 82.4078 84.7009 83.5837 84.6639C94.6597 84.3013 105.747 84.8538 116.732 86.3157C117.893 86.4694 117.88 84.6435 116.732 84.4916Z"
    fill="#565656"/>
  <path
    d="M99.2169 86.7694L81.3669 86.5694C80.1928 86.5564 80.1928 88.3805 81.3669 88.3935L99.2169 88.5935C100.391 88.6064 100.391 86.7824 99.2169 86.7694Z"
    fill="#565656"/>
  <path
    d="M77.4409 128.988H83.5882V122.271H86.2182H86.2816L90.7495 128.988H97.8474L92.5556 121.257C95.3124 120.084 97.1186 117.834 97.1186 114.444V114.381C97.1186 112.194 96.4531 110.483 95.154 109.216C93.6647 107.695 91.3198 106.807 87.9293 106.807H77.4409V128.988ZM83.5882 117.454V112.131H87.6125C89.6721 112.131 90.9396 113.018 90.9396 114.761V114.824C90.9396 116.44 89.7355 117.454 87.6441 117.454H83.5882ZM99.8674 134.058H105.888V126.897C106.997 128.196 108.518 129.369 111.116 129.369C115.172 129.369 118.69 125.978 118.69 120.401V120.338C118.69 114.856 115.172 111.465 111.085 111.465C108.518 111.465 107.06 112.701 105.888 114.127V111.846H99.8674V134.058ZM109.247 124.33C107.314 124.33 105.761 122.714 105.761 120.433V120.369C105.761 118.12 107.314 116.504 109.247 116.504C111.211 116.504 112.764 118.12 112.764 120.369V120.433C112.764 122.746 111.211 124.33 109.247 124.33Z"
    fill="white"/>
  <path d="M124.324 54.662L120.174 55.7061L121.044 59.165L125.194 58.1209L124.324 54.662Z" fill="white" stroke="#565656"
        stroke-width="0.925926" stroke-miterlimit="10"/>
  <path
    d="M125.041 51.5168L118.053 53.2746C117.609 53.3862 117.34 53.836 117.452 54.2793L117.943 56.2297C118.054 56.673 118.504 56.942 118.947 56.8305L125.935 55.0727C126.378 54.9612 126.647 54.5113 126.536 54.068L126.045 52.1176C125.934 51.6743 125.484 51.4053 125.041 51.5168Z"
    fill="#6F91BD"/>
  <path d="M142.242 61.2153L145.709 63.7402L147.996 60.6007L144.529 58.0758L142.242 61.2153Z" fill="white"
        stroke="#565656" stroke-width="0.927868" stroke-miterlimit="10"/>
  <path
    d="M142.859 57.8541L148.696 62.1054C149.066 62.3751 149.585 62.2936 149.855 61.9232L151.041 60.2943C151.311 59.9239 151.229 59.4051 150.859 59.1354L145.023 54.8841C144.652 54.6144 144.133 54.6959 143.864 55.0662L142.677 56.6952C142.407 57.0655 142.489 57.5844 142.859 57.8541Z"
    fill="#6F91BD"/>
  <path d="M137.675 53.9792L132.007 52.8867L131.314 56.4817L136.982 57.5741L137.675 53.9792Z" fill="white"
        stroke="#565656" stroke-width="0.925926" stroke-miterlimit="10"/>
  <path
    d="M130.53 96.3552C141.814 96.3552 150.961 87.2077 150.961 75.9237C150.961 64.6397 141.814 55.4922 130.53 55.4922C119.246 55.4922 110.098 64.6397 110.098 75.9237C110.098 87.2077 119.246 96.3552 130.53 96.3552Z"
    fill="#AFD479"/>
  <path
    d="M130.53 94.4925C140.785 94.4925 149.098 86.1791 149.098 75.924C149.098 65.6689 140.785 57.3555 130.53 57.3555C120.275 57.3555 111.961 65.6689 111.961 75.924C111.961 86.1791 120.275 94.4925 130.53 94.4925Z"
    fill="white"/>
  <path
    d="M130.53 92.5981C139.739 92.5981 147.204 85.1329 147.204 75.9241C147.204 66.7152 139.739 59.25 130.53 59.25C121.321 59.25 113.856 66.7152 113.856 75.9241C113.856 85.1329 121.321 92.5981 130.53 92.5981Z"
    fill="#6F91BD"/>
  <path
    d="M133.702 60.2845L133.356 60.2179C133.207 60.1892 133.064 60.2865 133.035 60.4351L132.564 62.879C132.535 63.0277 132.633 63.1714 132.781 63.2L133.127 63.2666C133.275 63.2953 133.419 63.198 133.448 63.0494L133.919 60.6055C133.947 60.4568 133.85 60.3131 133.702 60.2845Z"
    fill="white"/>
  <path
    d="M128.296 88.6282L127.95 88.5616C127.802 88.533 127.658 88.6303 127.629 88.7789L127.158 91.2228C127.13 91.3714 127.227 91.5151 127.375 91.5438L127.721 91.6104C127.87 91.639 128.013 91.5418 128.042 91.3931L128.513 88.9492C128.542 88.8006 128.444 88.6569 128.296 88.6282Z"
    fill="white"/>
  <path
    d="M146.17 79.099L146.237 78.7535C146.265 78.6049 146.168 78.4612 146.019 78.4325L143.576 77.9614C143.427 77.9328 143.283 78.0301 143.255 78.1787L143.188 78.5242C143.159 78.6728 143.257 78.8165 143.405 78.8452L145.849 79.3162C145.998 79.3449 146.141 79.2476 146.17 79.099Z"
    fill="white"/>
  <path
    d="M117.825 73.6879L117.892 73.3424C117.921 73.1937 117.823 73.05 117.675 73.0214L115.231 72.5503C115.082 72.5217 114.938 72.6189 114.91 72.7675L114.843 73.113C114.815 73.2617 114.912 73.4054 115.06 73.434L117.504 73.9051C117.653 73.9337 117.797 73.8365 117.825 73.6879Z"
    fill="white"/>
  <path
    d="M143.427 67.3779L143.229 67.0864C143.145 66.961 142.974 66.9281 142.849 67.0129L141.655 67.82C141.53 67.9048 141.497 68.0752 141.582 68.2006L141.779 68.492C141.864 68.6174 142.034 68.6503 142.16 68.5655L143.353 67.7584C143.478 67.6736 143.511 67.5032 143.427 67.3779Z"
    fill="white"/>
  <path
    d="M119.678 83.5156L119.48 83.2241C119.396 83.0987 119.225 83.0658 119.1 83.1506L117.693 84.1019C117.568 84.1867 117.535 84.3571 117.62 84.4825L117.817 84.7739C117.902 84.8993 118.072 84.9322 118.197 84.8474L119.604 83.8961C119.729 83.8113 119.762 83.6409 119.678 83.5156Z"
    fill="white"/>
  <path
    d="M138.865 88.664L139.157 88.467C139.282 88.3822 139.316 88.2116 139.231 88.086L138.424 86.8902C138.339 86.7645 138.169 86.7314 138.043 86.8162L137.751 87.0132C137.625 87.098 137.592 87.2686 137.677 87.3942L138.484 88.59C138.569 88.7156 138.739 88.7488 138.865 88.664Z"
    fill="white"/>
  <path
    d="M122.937 65.086L123.229 64.8889C123.354 64.8041 123.387 64.6337 123.302 64.5083L122.351 63.1017C122.266 62.9763 122.096 62.9434 121.97 63.0282L121.679 63.2253C121.553 63.3101 121.52 63.4804 121.605 63.6058L122.557 65.0125C122.641 65.1379 122.812 65.1708 122.937 65.086Z"
    fill="white"/>
  <path d="M138.686 70.4131L130.595 76.3316" stroke="#565656" stroke-width="0.925926" stroke-miterlimit="10"/>
  <path
    d="M132.837 64.9836L132.453 64.9097C132.289 64.8781 132.131 64.9852 132.1 65.1489L130.051 75.7774C130.019 75.9411 130.127 76.0993 130.29 76.1309L130.674 76.2049C130.838 76.2364 130.996 76.1293 131.027 75.9656L133.076 65.3372C133.108 65.1735 133.001 65.0152 132.837 64.9836Z"
    fill="white"/>
  <path
    d="M137.938 78.2016L138.012 77.8179C138.044 77.6542 137.936 77.4959 137.773 77.4644L130.316 76.027C130.152 75.9954 129.994 76.1025 129.962 76.2662L129.888 76.6499C129.856 76.8136 129.964 76.9719 130.127 77.0034L137.584 78.4408C137.748 78.4724 137.906 78.3653 137.938 78.2016Z"
    fill="white"/>
  <path
    d="M140.708 50.1943L130.598 48.2455C130.149 48.159 129.715 48.4528 129.629 48.9017L129.006 52.1311C128.92 52.58 129.213 53.0141 129.662 53.1006L139.773 55.0494C140.222 55.1359 140.656 54.8421 140.742 54.3932L141.365 51.1638C141.451 50.7149 141.157 50.2808 140.708 50.1943Z"
    fill="#6F91BD"/>
</svg>
