<svg width="80" height="60" viewBox="0 0 80 60" fill="none" xmlns="http://www.w3.org/2000/svg">
  <g opacity="0.5">
    <path
      d="M64.5925 56.2212L29.9931 42.2194C31.8997 28.1713 37.7913 15.5223 45.4005 3.39935L79.9999 17.4012C71.2399 28.9518 66.1899 41.9245 64.5925 56.2212Z"
      fill="#3A5A83"/>
    <path d="M42.7544 13.3892L71.4107 24.986L70.9584 26.1365L42.2964 14.5338L42.7544 13.3892Z" fill="#F5F7FA"/>
    <path d="M41.2837 17.0947L69.94 28.6916L69.4877 29.842L40.8257 18.2394L41.2837 17.0947Z" fill="#F5F7FA"/>
    <path d="M39.812 20.8003L68.4683 32.3972L68.016 33.5418L39.354 21.9449L39.812 20.8003Z" fill="#F5F7FA"/>
    <path d="M38.3404 24.5059L66.9966 36.1027L66.5443 37.2474L37.8823 25.6505L38.3404 24.5059Z" fill="#F5F7FA"/>
    <path d="M36.8688 28.2119L65.5251 39.8088L65.0728 40.9534L36.4165 29.3566L36.8688 28.2119Z" fill="#F5F7FA"/>
    <path d="M35.3976 31.9175L64.0596 43.5143L63.6016 44.659L34.9453 33.0621L35.3976 31.9175Z" fill="#F5F7FA"/>
    <path d="M33.926 35.623L62.588 47.2199L62.1299 48.3646L33.4736 36.7677L33.926 35.623Z" fill="#F5F7FA"/>
    <path
      d="M56.0321 59.5913H18.7589C15.3522 45.8323 16.1595 31.8768 18.7589 17.7709H56.0321C52.1559 31.7843 52.2475 45.7225 56.0321 59.5913Z"
      fill="#3F608A"/>
    <path d="M47.2838 22.0493H24.502V24.5178H47.2838V22.0493Z" fill="#F5F7FA"/>
    <path d="M50.8563 28.0381H19.9785V29.2752H50.8563V28.0381Z" fill="#F5F7FA"/>
    <path d="M50.8563 32.0332H19.9785V33.2704H50.8563V32.0332Z" fill="#F5F7FA"/>
    <path d="M50.8563 36.022H19.9785V37.2591H50.8563V36.022Z" fill="#F5F7FA"/>
    <path d="M50.6034 39.7412H19.7256V40.9784H50.6034V39.7412Z" fill="#F5F7FA"/>
    <path d="M50.8563 44.0059H19.9785V45.243H50.8563V44.0059Z" fill="#F5F7FA"/>
    <path d="M50.8563 48.0005H19.9785V49.2376H50.8563V48.0005Z" fill="#F5F7FA"/>
    <path d="M50.8563 51.9893H19.9785V53.2264H50.8563V51.9893Z" fill="#F5F7FA"/>
    <path
      d="M-1.14441e-05 41.8204H37.2732C40.6799 28.0614 39.8726 14.1059 37.2732 0H-1.14441e-05C3.87617 14.0076 3.78456 27.9458 -1.14441e-05 41.8204Z"
      fill="#42638E"/>
    <path d="M5.17593 10.2676H36.0537V11.5047H5.17593V10.2676Z" fill="url(#paint0_linear_1102_110813)"/>
    <path d="M5.17593 10.2676H36.0537V11.5047H5.17593V10.2676Z" fill="#F5F7FA"/>
    <path d="M13.0822 6.44482H35.7192V7.68198H13.0822V6.44482Z" fill="#F5F7FA"/>
    <path d="M54.2984 11.7942L75.2871 20.3564L74.8281 21.5035L53.8394 12.9412L54.2984 11.7942Z" fill="#F5F7FA"/>
    <path d="M5.17593 14.2563H36.0537V15.4935H5.17593V14.2563Z" fill="#F5F7FA"/>
    <path d="M5.17593 18.251H36.0537V19.4881H5.17593V18.251Z" fill="#F5F7FA"/>
    <path d="M5.17593 22.2397H36.0537V23.4769H5.17593V22.2397Z" fill="#F5F7FA"/>
    <path d="M5.17593 26.2344H36.0537V27.4715H5.17593V26.2344Z" fill="#F5F7FA"/>
    <path d="M5.17593 30.2236H36.0537V31.4608H5.17593V30.2236Z" fill="#F5F7FA"/>
    <path d="M5.17593 34.2178H36.0537V35.4549H5.17593V34.2178Z" fill="#F5F7FA"/>
    <path
      d="M7.68759 5.25936C7.81893 5.17049 7.92997 5.05839 8.02069 4.92303C8.15744 4.71932 8.22785 4.46093 8.22785 4.15605C8.22785 3.91132 8.18182 3.70214 8.09651 3.52988C8.0085 3.35761 7.88528 3.21406 7.73498 3.11015C7.5901 3.00898 7.41949 2.93789 7.23128 2.89414C7.05525 2.85449 6.86163 2.83398 6.66258 2.83398H5.40468C5.28282 2.83398 5.18262 2.93516 5.18262 3.0582V6.58553C5.18262 6.70857 5.28282 6.80974 5.40468 6.80974H6.19273C6.31459 6.80974 6.41479 6.70857 6.41479 6.58553V5.53963H6.49197L7.09858 6.69216C7.13785 6.76736 7.21232 6.81248 7.29492 6.81248H8.17775C8.25764 6.81248 8.33212 6.76873 8.37138 6.70037C8.41065 6.63201 8.41065 6.54451 8.37138 6.47615L7.68759 5.25936ZM6.40938 3.91406H6.59217C6.79663 3.91406 6.89954 3.95097 6.94829 3.98242C6.96318 3.99062 7.00786 4.01933 7.00786 4.15468C7.00786 4.29003 6.96183 4.34472 6.92798 4.37069C6.86027 4.42538 6.74518 4.45409 6.59217 4.45409H6.40938V3.91406Z"
      fill="white"/>
    <path
      d="M11.4287 4.57562C11.3718 4.38285 11.292 4.21332 11.1863 4.0725C11.0753 3.92621 10.9386 3.81136 10.7815 3.7307C10.4822 3.57894 10.0896 3.56117 9.74835 3.72523C9.70231 3.74847 9.66034 3.77172 9.61701 3.79359C9.58045 3.7184 9.50327 3.67055 9.41797 3.67055H8.7748C8.65293 3.67055 8.55273 3.77172 8.55273 3.89476V7.57111C8.55273 7.69415 8.65293 7.79533 8.7748 7.79533H9.56014C9.682 7.79533 9.7822 7.69415 9.7822 7.57111V6.79182C10.072 6.90939 10.3942 6.88342 10.6759 6.74807C10.8384 6.67014 10.9832 6.55529 11.1092 6.40627C11.231 6.26272 11.3285 6.08772 11.403 5.87991C11.4748 5.67893 11.5086 5.44651 11.5086 5.18948C11.5086 4.97483 11.4829 4.76566 11.4287 4.57562ZM10.2521 5.20999C10.2521 5.48889 10.2006 5.61467 10.1559 5.6721C10.0219 5.84709 9.94469 5.78147 9.84855 5.74729C9.82824 5.74182 9.80522 5.72952 9.78356 5.71585V4.82171C9.86615 4.74652 9.94333 4.7096 10.0165 4.7096C10.0869 4.71097 10.2521 4.71097 10.2521 5.20999Z"
      fill="white"/>
    <path
      d="M49.3716 10.2119C49.5245 10.1711 49.6656 10.1016 49.795 10.0034C49.99 9.85575 50.1399 9.63457 50.2382 9.3463C50.3171 9.11491 50.341 8.90199 50.3159 8.71107C50.2882 8.51926 50.218 8.34302 50.1094 8.19537C50.0051 8.05209 49.8667 7.92878 49.7028 7.82554C49.5492 7.73019 49.3727 7.64715 49.1845 7.58172L47.9951 7.16821C47.8799 7.12815 47.7525 7.19087 47.7129 7.30722L46.5755 10.6424C46.5358 10.7587 46.598 10.8873 46.7132 10.9274L47.4583 11.1864C47.5735 11.2265 47.7009 11.1638 47.7406 11.0474L48.0778 10.0585L48.1508 10.0839L48.3527 11.373C48.3656 11.457 48.4215 11.5242 48.4996 11.5513L49.3343 11.8415C49.4098 11.8678 49.4943 11.8509 49.5535 11.7992C49.6127 11.7475 49.6409 11.6647 49.6258 11.5872L49.3716 10.2119ZM48.5968 8.51971L48.7697 8.5798C48.963 8.64701 49.0484 8.71574 49.0843 8.7615C49.0958 8.77415 49.1288 8.81599 49.0851 8.94397C49.0415 9.07194 48.9803 9.10852 48.9399 9.12195C48.8583 9.1514 48.7402 9.14071 48.5955 9.09042L48.4227 9.03033L48.5968 8.51971Z"
      fill="white"/>
    <path
      d="M53.1294 10.7955C53.1378 10.5946 53.1169 10.408 53.0625 10.2402C53.0047 10.0653 52.9124 9.91179 52.7899 9.78389C52.5559 9.54203 52.1903 9.39615 51.8148 9.4391C51.7638 9.44594 51.7166 9.45412 51.6686 9.46056C51.6583 9.37744 51.6007 9.30683 51.52 9.27879L50.9119 9.06736C50.7967 9.0273 50.6693 9.09002 50.6297 9.20636L49.4443 12.6824C49.4046 12.7988 49.4667 12.9274 49.5819 12.9674L50.3245 13.2256C50.4397 13.2656 50.5671 13.2029 50.6067 13.0866L50.858 12.3497C51.0941 12.5562 51.4072 12.6375 51.7171 12.6021C51.8959 12.5819 52.0699 12.5209 52.237 12.4214C52.3985 12.3257 52.5471 12.1923 52.6845 12.0203C52.8172 11.8539 52.9241 11.6452 53.007 11.4022C53.0762 11.1993 53.1194 10.993 53.1294 10.7955ZM51.8123 11.0085C51.7224 11.2723 51.6332 11.3743 51.5724 11.4139C51.3892 11.5353 51.3374 11.4479 51.2576 11.3839C51.2401 11.3721 51.2223 11.3529 51.2062 11.3328L51.4945 10.4874C51.5969 10.4435 51.6818 10.4339 51.7509 10.458C51.817 10.4824 51.9732 10.5367 51.8123 11.0085Z"
      fill="white"/>
  </g>
  <defs>
    <linearGradient id="paint0_linear_1102_110813" x1="36.0535" y1="10.8872" x2="5.17177" y2="10.8872"
                    gradientUnits="userSpaceOnUse">
      <stop stop-color="#F9FEF3"/>
      <stop offset="1" stop-color="#CFE9AD"/>
    </linearGradient>
  </defs>
</svg>
