<svg width="183" height="183" viewBox="0 0 183 183" fill="none" xmlns="http://www.w3.org/2000/svg">
  <mask id="mask0_1754_223014" style="mask-type:alpha" maskUnits="userSpaceOnUse" x="22" y="22" width="139"
        height="139">
    <path fill-rule="evenodd" clip-rule="evenodd"
          d="M160.125 38.125V144.875C160.125 153.263 153.263 160.125 144.875 160.125H38.125C29.7375 160.125 22.875 153.263 22.875 144.875V38.125C22.875 29.7375 29.7375 22.875 38.125 22.875H144.875C153.263 22.875 160.125 29.7375 160.125 38.125ZM83.8737 125.897L67.8612 106.606C66.2599 104.7 63.3624 104.776 61.9137 106.758L42.9274 131.158C40.9449 133.675 42.6987 137.335 45.9012 137.335H137.325C140.451 137.335 142.281 133.751 140.375 131.235L113.611 95.5495C112.086 93.4908 109.036 93.4908 107.511 95.4733L83.8737 125.897Z"
          fill="black"/>
  </mask>
  <g mask="url(#mask0_1754_223014)">
    <rect width="183" height="183" fill="#858C94"/>
  </g>
</svg>
