<svg width="10" height="11" viewBox="0 0 10 11" fill="none" xmlns="http://www.w3.org/2000/svg">
<path d="M0 5.93188C0 6.22885 0.248485 6.47128 0.539394 6.47128H4.46061V10.3925C4.46061 10.6834 4.70303 10.9319 5 10.9319C5.29697 10.9319 5.54545 10.6834 5.54545 10.3925V6.47128H9.46061C9.75152 6.47128 10 6.22885 10 5.93188C10 5.63491 9.75152 5.38643 9.46061 5.38643H5.54545V1.47128C5.54545 1.18037 5.29697 0.931885 5 0.931885C4.70303 0.931885 4.46061 1.18037 4.46061 1.47128V5.38643H0.539394C0.248485 5.38643 0 5.63491 0 5.93188Z" fill="#104075"/>
</svg>
