<svg width="128" height="156" viewBox="0 0 128 156" fill="none" xmlns="http://www.w3.org/2000/svg">
  <path
    d="M34.4942 91.7615V21.8669C34.6816 17.8693 38.6167 10.9992 45.3625 10.9992C52.1084 10.9992 55.3313 15.1331 56 20.5C57.3313 10.6331 56.6997 0.130379 68.7856 0.130859C79.8624 0.1313 82.252 13.4166 82.2882 20.8254C82.4241 14.367 83.9797 3 94.5 3C105.556 3 107.375 15.816 107 21.5C114.5 13.1331 123.277 15.9832 126.125 26.9265C128.974 37.8697 127.312 93.3232 126.125 119.682C126.001 131.925 116.756 156.147 80.7783 155.098C72.7207 154.848 54.3945 151.987 45.5499 142.543L3.45316 99.5094C-0.294522 94.6378 -1.44818 86.4227 4.20272 80.584C9.82428 74.7755 18.444 77.7732 23.6908 82.4574L34.4942 91.7615Z"
    fill="#F1D5B0"/>
  <circle cx="81.8829" cy="109.883" r="31.8829" fill="#FF5D54"/>
  <path fill-rule="evenodd" clip-rule="evenodd"
        d="M69.6877 97.689C70.6405 96.7362 72.1852 96.7362 73.1379 97.689L93.839 118.39C94.7917 119.343 94.7917 120.887 93.839 121.84C92.8862 122.793 91.3415 122.793 90.3888 121.84L69.6877 101.139C68.735 100.186 68.735 98.6417 69.6877 97.689Z"
        fill="white"/>
  <path fill-rule="evenodd" clip-rule="evenodd"
        d="M69.688 121.841C68.7353 120.889 68.7353 119.344 69.688 118.391L90.389 97.6901C91.3418 96.7373 92.8865 96.7373 93.8392 97.6901C94.792 98.6428 94.792 100.188 93.8392 101.14L73.1382 121.841C72.1854 122.794 70.6407 122.794 69.688 121.841Z"
        fill="white"/>
</svg>
