<svg width="18" height="18" viewBox="0 0 16 16" fill="none" xmlns="http://www.w3.org/2000/svg">
  <path
    d="M5.53594 10.4663C5.66927 10.5997 5.8026 10.6663 6.0026 10.6663C6.2026 10.6663 6.33594 10.5997 6.46927 10.4663L8.0026 8.93301L9.53594 10.4663C9.66927 10.5997 9.86927 10.6663 10.0026 10.6663C10.1359 10.6663 10.3359 10.5997 10.4693 10.4663C10.7359 10.1997 10.7359 9.79967 10.4693 9.53301L8.93594 7.99967L10.4693 6.46634C10.7359 6.19967 10.7359 5.79967 10.4693 5.53301C10.2026 5.26634 9.8026 5.26634 9.53594 5.53301L8.0026 7.06634L6.46927 5.53301C6.2026 5.26634 5.8026 5.26634 5.53594 5.53301C5.26927 5.79967 5.26927 6.19967 5.53594 6.46634L7.06927 7.99967L5.53594 9.53301C5.26927 9.79967 5.26927 10.1997 5.53594 10.4663Z"
    fill="#E3EFCB" stroke="#194175" stroke-width="0.4"/>
  <path
    d="M8 14C11.3333 14 14 11.3333 14 8C14 4.66667 11.3333 2 8 2C4.66667 2 2 4.66667 2 8C2 11.3333 4.66667 14 8 14ZM8 3.33333C10.6 3.33333 12.6667 5.4 12.6667 8C12.6667 10.6 10.6 12.6667 8 12.6667C5.4 12.6667 3.33333 10.6 3.33333 8C3.33333 5.4 5.4 3.33333 8 3.33333Z"
    fill="#194175"/>
</svg>
