<svg width="16" height="16" viewBox="0 0 16 16" fill="none" xmlns="http://www.w3.org/2000/svg">
  <rect x="6" y="3" width="4" height="2" fill="#E3EFCB"/>
  <rect x="6" y="8" width="4" height="5" fill="#E3EFCB"/>
  <path
    d="M2 3.33333C2 2.59695 2.59695 2 3.33333 2H6H10H11.0572C11.4108 2 11.75 2.14048 12 2.39052L13.8047 4.19526C13.9298 4.32029 14 4.48986 14 4.66667V12.6667C14 13.403 13.403 14 12.6667 14H10H6H3.33333C2.59695 14 2 13.403 2 12.6667V3.33333ZM6 12.6667H10V8.66667H6V12.6667ZM11.3333 12.6667H12.6667V4.94281L11.3333 3.60948V4.66667C11.3333 5.40305 10.7364 6 10 6H6C5.26362 6 4.66667 5.40305 4.66667 4.66667V3.33333H3.33333V12.6667H4.66667V8.66667C4.66667 7.93029 5.26362 7.33333 6 7.33333H10C10.7364 7.33333 11.3333 7.93029 11.3333 8.66667V12.6667ZM6 3.33333V4.66667H10V3.33333H6Z"
    fill="#194175"/>
</svg>
