<svg width="60" height="60" viewBox="0 0 60 60" fill="none" xmlns="http://www.w3.org/2000/svg">
  <g opacity="0.5">
    <path d="M28.125 12.2625V6.5625H31.875V12.2625" fill="#9CACC1"/>
    <path
      d="M32.8125 0.9375H27.1875C26.152 0.9375 25.3125 1.77697 25.3125 2.8125V4.6875C25.3125 5.72303 26.152 6.5625 27.1875 6.5625H32.8125C33.848 6.5625 34.6875 5.72303 34.6875 4.6875V2.8125C34.6875 1.77697 33.848 0.9375 32.8125 0.9375Z"
      fill="#8B8891"/>
    <path
      d="M50.9186 13.0104L47.9925 10.0843C47.6264 9.71818 47.0328 9.71818 46.6667 10.0843L45.1579 11.5931C44.7918 11.9592 44.7918 12.5528 45.1579 12.9189L48.084 15.845C48.4501 16.2111 49.0437 16.2111 49.4098 15.845L50.9186 14.3362C51.2847 13.9701 51.2847 13.3765 50.9186 13.0104Z"
      fill="#8B8891"/>
    <path
      d="M11.4823 15.8435L14.4084 12.9174C14.7746 12.5513 14.7746 11.9577 14.4084 11.5915L12.8996 10.0828C12.5335 9.71664 11.9399 9.71664 11.5738 10.0828L8.64773 13.0088C8.28161 13.375 8.28161 13.9686 8.64773 14.3347L10.1565 15.8435C10.5226 16.2096 11.1162 16.2096 11.4823 15.8435Z"
      fill="#8B8891"/>
    <path
      d="M30 59.0625C42.9442 59.0625 53.4375 48.5692 53.4375 35.625C53.4375 22.6808 42.9442 12.1875 30 12.1875C17.0558 12.1875 6.5625 22.6808 6.5625 35.625C6.5625 48.5692 17.0558 59.0625 30 59.0625Z"
      fill="#42638E"/>
    <path
      d="M30 16.0449C26.1062 16.0449 22.2998 17.1996 19.0622 19.3629C15.8246 21.5262 13.3012 24.6009 11.8111 28.1983C10.321 31.7958 9.93115 35.7543 10.6908 39.5733C11.4504 43.3923 13.3255 46.9002 16.0788 49.6536C18.8322 52.4069 22.3402 54.282 26.1592 55.0416C29.9782 55.8013 33.9367 55.4114 37.5341 53.9213C41.1315 52.4312 44.2063 49.9078 46.3696 46.6702C48.5329 43.4326 49.6875 39.6262 49.6875 35.7324C49.6863 30.5113 47.6117 25.5044 43.9198 21.8126C40.228 18.1207 35.2211 16.0461 30 16.0449Z"
      fill="white"/>
    <path
      d="M30 12.1875C25.3645 12.1875 20.8331 13.5621 16.9788 16.1374C13.1246 18.7128 10.1205 22.3732 8.34658 26.6559C6.57265 30.9385 6.10851 35.651 7.01286 40.1974C7.9172 44.7439 10.1494 48.92 13.4272 52.1978C16.705 55.4756 20.8812 57.7078 25.4276 58.6122C29.974 59.5165 34.6865 59.0524 38.9692 57.2784C43.2518 55.5045 46.9122 52.5005 49.4876 48.6462C52.0629 44.7919 53.4375 40.2605 53.4375 35.625C53.4353 29.4097 50.9652 23.4496 46.5703 19.0547C42.1754 14.6598 36.2153 12.1898 30 12.1875ZM30 55.425C26.1062 55.425 22.2998 54.2703 19.0622 52.1071C15.8246 49.9438 13.3012 46.869 11.8111 43.2716C10.321 39.6742 9.93115 35.7157 10.6908 31.8967C11.4504 28.0777 13.3255 24.5697 16.0788 21.8163C18.8322 19.063 22.3402 17.1879 26.1592 16.4283C29.9782 15.6686 33.9367 16.0585 37.5341 17.5486C41.1315 19.0387 44.2063 21.5621 46.3696 24.7997C48.5329 28.0373 49.6875 31.8437 49.6875 35.7375C49.6878 38.323 49.1788 40.8832 48.1895 43.272C47.2003 45.6607 45.7501 47.8312 43.9219 49.6594C42.0937 51.4876 39.9232 52.9377 37.5345 53.927C35.1457 54.9163 32.5855 55.4253 30 55.425Z"
      fill="#42638E"/>
    <path
      d="M30 37.5C31.0355 37.5 31.875 36.6605 31.875 35.625C31.875 34.5895 31.0355 33.75 30 33.75C28.9645 33.75 28.125 34.5895 28.125 35.625C28.125 36.6605 28.9645 37.5 30 37.5Z"
      fill="#42638E"/>
    <path
      d="M50.5962 35.5727L50.6025 35.5417C50.6025 35.5233 50.5932 35.5081 50.5921 35.49C50.5349 30.1273 48.3838 24.9993 44.5982 21.2006C44.5841 21.1844 44.579 21.164 44.5637 21.1486C44.5484 21.1333 44.5281 21.1284 44.5121 21.1144C40.6848 17.2956 35.5076 15.1375 30.101 15.1074C24.6944 15.0772 19.4935 17.1774 15.6238 20.9533C15.5921 20.9716 15.5615 20.9919 15.5323 21.014C15.5156 21.0307 15.5098 21.0529 15.4947 21.0706C11.6283 24.8795 9.42541 30.063 9.36659 35.49C9.36556 35.5081 9.35618 35.5233 9.35618 35.5417L9.36248 35.5727C9.36203 35.6264 9.35436 35.6784 9.35436 35.7321C9.35161 41.1793 11.511 46.405 15.3583 50.2612C15.3731 50.2784 15.3786 50.3001 15.395 50.3165C15.4114 50.3329 15.4331 50.3384 15.4503 50.3532C17.3715 52.2684 19.6525 53.7847 22.1619 54.8151C24.6713 55.8454 27.3597 56.3694 30.0724 56.357C32.7851 56.3445 35.4686 55.7958 37.9685 54.7424C40.4683 53.689 42.7352 52.1517 44.6388 50.219C44.6571 50.2033 44.68 50.1974 44.6974 50.1801C44.7204 50.1499 44.7414 50.1183 44.7603 50.0854C48.5074 46.2473 50.6048 41.096 50.6043 35.7321C50.6043 35.6783 50.5967 35.6264 50.5962 35.5727ZM43.9912 48.1481L42.1065 46.2634C41.9301 46.0905 41.6926 45.9943 41.4456 45.9955C41.1987 45.9967 40.9622 46.0954 40.7875 46.2701C40.6129 46.4447 40.5142 46.6812 40.513 46.9282C40.5117 47.1751 40.608 47.4126 40.7809 47.589L42.6785 49.4867C39.4616 52.4675 35.2972 54.2194 30.9168 54.4346V51.5625C30.9168 51.3139 30.8181 51.0754 30.6423 50.8996C30.4664 50.7238 30.228 50.625 29.9793 50.625C29.7307 50.625 29.4922 50.7238 29.3164 50.8996C29.1406 51.0754 29.0418 51.3139 29.0418 51.5625V54.4346C24.7273 54.2227 20.6201 52.5193 17.422 49.6155L19.4489 47.5891C19.5374 47.5024 19.6078 47.399 19.6561 47.2849C19.7044 47.1708 19.7296 47.0482 19.7302 46.9243C19.7308 46.8004 19.7069 46.6776 19.6598 46.5631C19.6126 46.4485 19.5433 46.3444 19.4557 46.2568C19.3681 46.1691 19.2639 46.0998 19.1494 46.0526C19.0348 46.0055 18.912 45.9816 18.7881 45.9822C18.6642 45.9828 18.5416 46.008 18.4275 46.0563C18.3134 46.1046 18.21 46.175 18.1233 46.2635L16.0963 48.2897C13.1478 45.0432 11.4379 40.8614 11.2672 36.4791H14.1261C14.3747 36.4791 14.6132 36.3803 14.789 36.2045C14.9648 36.0287 15.0636 35.7902 15.0636 35.5416C15.0636 35.293 14.9648 35.0545 14.789 34.8787C14.6132 34.7029 14.3747 34.6041 14.1261 34.6041H11.2866C11.5429 30.2914 13.2883 26.2015 16.2249 23.0327L18.2406 25.0496C18.4169 25.2225 18.6544 25.3188 18.9014 25.3175C19.1484 25.3163 19.3849 25.2176 19.5595 25.043C19.7342 24.8683 19.8328 24.6318 19.8341 24.3849C19.8353 24.1379 19.739 23.9004 19.5662 23.724L17.5635 21.72C20.7425 18.8928 24.7927 17.2378 29.0418 17.0296V19.6875C29.0418 19.9361 29.1406 20.1746 29.3164 20.3504C29.4922 20.5262 29.7307 20.625 29.9793 20.625C30.228 20.625 30.4664 20.5262 30.6423 20.3504C30.8181 20.1746 30.9168 19.9361 30.9168 19.6875V17.0296C35.2317 17.2415 39.339 18.9451 42.5373 21.8492L40.6617 23.7241C40.5732 23.8108 40.5028 23.9142 40.4545 24.0283C40.4062 24.1424 40.3811 24.2649 40.3804 24.3888C40.3798 24.5127 40.4037 24.6355 40.4509 24.7501C40.498 24.8647 40.5674 24.9688 40.655 25.0564C40.7426 25.144 40.8467 25.2134 40.9613 25.2605C41.0759 25.3076 41.1987 25.3316 41.3226 25.331C41.4465 25.3303 41.569 25.3051 41.6831 25.2569C41.7972 25.2086 41.9006 25.1382 41.9873 25.0497L43.8629 23.175C46.7228 26.3246 48.4198 30.3574 48.6721 34.6042H46.0011C45.7524 34.6042 45.514 34.703 45.3382 34.8788C45.1623 35.0546 45.0636 35.2931 45.0636 35.5417C45.0636 35.7903 45.1623 36.0288 45.3382 36.2046C45.514 36.3804 45.7524 36.4792 46.0011 36.4792H48.6915C48.5238 40.7959 46.8625 44.9204 43.9912 48.1481ZM30.8484 32.9639C30.8822 32.874 30.9016 32.7793 30.9059 32.6834L30.9279 27.0346C30.9285 26.9114 30.9048 26.7894 30.8581 26.6754C30.8115 26.5615 30.7428 26.4578 30.6561 26.3704C30.5694 26.283 30.4663 26.2135 30.3527 26.166C30.2391 26.1184 30.1173 26.0937 29.9942 26.0933H29.9904C29.7424 26.0933 29.5045 26.1915 29.3288 26.3665C29.1531 26.5415 29.0539 26.779 29.0529 27.0271L29.0309 32.6759C29.0341 32.7765 29.0538 32.876 29.0892 32.9702C28.436 33.1847 27.8848 33.6326 27.5411 34.228C27.1974 34.8235 27.0853 35.5248 27.2263 36.1977L22.7925 39.4021C22.5915 39.5479 22.4565 39.7676 22.4173 40.0129C22.3781 40.2582 22.4378 40.509 22.5833 40.7103C22.7288 40.9116 22.9483 41.047 23.1935 41.0866C23.4387 41.1263 23.6896 41.067 23.8912 40.9218L28.2149 37.7968C28.7112 38.2081 29.3348 38.4346 29.9793 38.4375C30.6483 38.4394 31.2959 38.2021 31.8053 37.7685C32.3147 37.3348 32.6523 36.7334 32.7572 36.0727C32.8621 35.412 32.7273 34.7356 32.3773 34.1655C32.0272 33.5954 31.485 33.1693 30.8483 32.9639L30.8484 32.9639ZM29.9793 36.5625C29.7939 36.5625 29.6127 36.5075 29.4585 36.4045C29.3043 36.3015 29.1842 36.1551 29.1132 35.9838C29.0423 35.8125 29.0237 35.624 29.0599 35.4421C29.096 35.2602 29.1853 35.0932 29.3164 34.9621C29.4475 34.831 29.6146 34.7417 29.7964 34.7055C29.9783 34.6693 30.1668 34.6879 30.3381 34.7589C30.5094 34.8298 30.6558 34.95 30.7588 35.1041C30.8619 35.2583 30.9168 35.4396 30.9168 35.625C30.9165 35.8735 30.8176 36.1118 30.6419 36.2876C30.4662 36.4633 30.2279 36.5622 29.9793 36.5625ZM45.475 16.8229L46.597 15.7019L48.0647 17.1698C48.1517 17.2569 48.255 17.3259 48.3688 17.3731C48.4825 17.4202 48.6044 17.4444 48.7275 17.4444C48.8506 17.4444 48.9725 17.4202 49.0862 17.3731C49.1999 17.3259 49.3033 17.2569 49.3903 17.1698L52.2248 14.3344C52.3119 14.2473 52.381 14.144 52.4281 14.0303C52.4752 13.9166 52.4995 13.7947 52.4995 13.6716C52.4995 13.5485 52.4752 13.4266 52.4281 13.3128C52.381 13.1991 52.3119 13.0958 52.2248 13.0087L47.9731 8.75702C47.8861 8.66995 47.7828 8.60089 47.669 8.55377C47.5553 8.50664 47.4334 8.48239 47.3103 8.48239C47.1872 8.48239 47.0653 8.50664 46.9516 8.55377C46.8379 8.60089 46.7345 8.66995 46.6475 8.75702L43.813 11.5915C43.7259 11.6785 43.6568 11.7818 43.6097 11.8956C43.5626 12.0093 43.5383 12.1312 43.5383 12.2543C43.5383 12.3774 43.5626 12.4993 43.6097 12.613C43.6568 12.7268 43.7259 12.8301 43.813 12.9171L45.2715 14.3759L43.9584 15.688C40.651 13.3563 36.8118 11.8908 32.7918 11.4257V7.5C33.5375 7.49919 34.2524 7.20261 34.7797 6.67534C35.307 6.14807 35.6035 5.43317 35.6043 4.6875V2.8125C35.6035 2.06683 35.307 1.35193 34.7797 0.824661C34.2524 0.297391 33.5375 0.000813933 32.7918 0L27.1668 0C26.4212 0.000813933 25.7063 0.297391 25.179 0.824661C24.6517 1.35193 24.3552 2.06683 24.3543 2.8125V4.6875C24.3552 5.43317 24.6517 6.14807 25.179 6.67534C25.7063 7.20261 26.4212 7.49919 27.1668 7.5V11.4257C23.041 11.9055 19.108 13.4389 15.7461 15.8783L14.2488 14.3804L15.7118 12.9172C15.7988 12.8301 15.8679 12.7268 15.915 12.6131C15.9621 12.4993 15.9864 12.3774 15.9864 12.2543C15.9864 12.1312 15.9621 12.0093 15.915 11.8956C15.8679 11.7819 15.7988 11.6786 15.7118 11.5915L12.8773 8.75702C12.7903 8.66995 12.6869 8.60089 12.5732 8.55377C12.4595 8.50664 12.3376 8.48239 12.2145 8.48239C12.0914 8.48239 11.9695 8.50664 11.8558 8.55377C11.742 8.60089 11.6387 8.66995 11.5517 8.75702L7.29991 13.0087C7.21284 13.0958 7.14378 13.1991 7.09665 13.3128C7.04953 13.4266 7.02528 13.5485 7.02528 13.6716C7.02528 13.7947 7.04953 13.9166 7.09665 14.0303C7.14378 14.144 7.21284 14.2473 7.29991 14.3344L10.1343 17.1698C10.2214 17.2569 10.3247 17.3259 10.4384 17.3731C10.5522 17.4202 10.6741 17.4444 10.7972 17.4444C10.9203 17.4444 11.0422 17.4202 11.1559 17.3731C11.2696 17.3259 11.3729 17.2569 11.46 17.1698L12.9232 15.7063L14.2509 17.0345C10.4298 20.2679 7.69736 24.5998 6.42513 29.4409C5.15289 34.2821 5.40259 39.3976 7.14028 44.0919C8.87797 48.7861 12.0193 52.8312 16.1371 55.6771C20.2549 58.523 25.1493 60.0316 30.1547 59.9977C35.1602 59.9638 40.0337 58.389 44.1125 55.4875C48.1914 52.5861 51.2776 48.4988 52.9515 43.7814C54.6254 39.0641 54.8058 33.9456 53.4681 29.1221C52.1303 24.2987 49.3394 20.0043 45.4749 16.8229H45.475ZM47.3103 10.7456L50.2363 13.6716L48.7275 15.1813L45.8015 12.2544L47.3103 10.7456ZM12.2616 13.7164L12.2606 13.7169L12.2592 13.7188L10.7971 15.1813L9.28842 13.6716L12.2145 10.7456L13.7232 12.2544L12.2616 13.7164ZM26.2293 4.6875V2.8125C26.2297 2.56396 26.3285 2.32569 26.5043 2.14994C26.68 1.9742 26.9183 1.87532 27.1668 1.875H32.7918C33.0404 1.87532 33.2787 1.9742 33.4544 2.14994C33.6301 2.32569 33.729 2.56396 33.7293 2.8125V4.6875C33.729 4.93604 33.6301 5.17431 33.4544 5.35006C33.2787 5.5258 33.0404 5.62468 32.7918 5.625H27.1668C26.9183 5.62468 26.68 5.5258 26.5043 5.35006C26.3285 5.17431 26.2297 4.93604 26.2293 4.6875ZM30.9168 7.5V11.2975C30.6033 11.2855 30.2958 11.25 29.9793 11.25C29.6629 11.25 29.3554 11.2855 29.0418 11.2975V7.5H30.9168ZM29.9793 58.125C25.5293 58.125 21.1791 56.8054 17.479 54.3331C13.7789 51.8607 10.895 48.3467 9.19205 44.2354C7.48908 40.124 7.04351 35.6 7.91168 31.2355C8.77984 26.8709 10.9228 22.8618 14.0694 19.7151C17.2161 16.5684 21.2252 14.4255 25.5898 13.5573C29.9544 12.6892 34.4784 13.1347 38.5897 14.8377C42.7011 16.5407 46.2151 19.4246 48.6874 23.1247C51.1597 26.8248 52.4793 31.1749 52.4793 35.625C52.4727 41.5903 50.1 47.3094 45.8819 51.5275C41.6638 55.7457 35.9447 58.1183 29.9793 58.125Z"
      fill="#42638E"/>
  </g>
</svg>
