<svg width="184" height="127" viewBox="0 0 184 127" fill="none" xmlns="http://www.w3.org/2000/svg">
  <path
    d="M55.6146 74.4809H18.6957C17.2042 74.4809 16 73.3725 16 72.0041C16 70.6357 17.2042 69.5273 18.6957 69.5273H55.6146C57.1061 69.5273 58.3103 70.6357 58.3103 72.0041C58.3103 73.3725 57.0925 74.4809 55.6146 74.4809Z"
    fill="#AFD479"/>
  <path
    d="M57.0512 90.0395H28.9994C27.5079 90.0395 26.3037 88.9311 26.3037 87.5627C26.3037 86.1943 27.5079 85.0859 28.9994 85.0859H57.0512C58.5428 85.0859 59.7469 86.1943 59.7469 87.5627C59.7469 88.9311 58.5428 90.0395 57.0512 90.0395Z"
    fill="#AFD479"/>
  <path
    d="M62.6617 103.051H45.6391C44.1475 103.051 42.9434 101.943 42.9434 100.574C42.9434 99.206 44.1475 98.0977 45.6391 98.0977H62.6617C64.1533 98.0977 65.3574 99.206 65.3574 100.574C65.3574 101.943 64.1533 103.051 62.6617 103.051Z"
    fill="#AFD479"/>
  <path
    d="M59.5698 58.9086H31.518C30.0264 58.9086 28.8223 57.8002 28.8223 56.4318C28.8223 55.0635 30.0264 53.9551 31.518 53.9551H59.5698C61.0613 53.9551 62.2655 55.0635 62.2655 56.4318C62.2655 57.8002 61.0476 58.9086 59.5698 58.9086Z"
    fill="url(#paint0_linear_3167_63326)"/>
  <path
    d="M65.1803 45.9086H48.1576C46.6661 45.9086 45.4619 44.8002 45.4619 43.4318C45.4619 42.0635 46.6661 40.9551 48.1576 40.9551H65.1803C66.6718 40.9551 67.876 42.0635 67.876 43.4318C67.876 44.8002 66.6718 45.9086 65.1803 45.9086Z"
    fill="url(#paint1_linear_3167_63326)"/>
  <path
    d="M70.5309 33.7842L60.7059 22.3583C60.008 21.5509 58.7901 21.4551 57.9828 22.153L51.8661 27.4076C51.483 27.736 51.2367 28.2149 51.1956 28.7212C51.1546 29.2275 51.3188 29.7338 51.6609 30.1307L61.4859 41.5566C61.869 41.9945 62.4027 42.2271 62.95 42.2271C63.4016 42.2271 63.8395 42.0766 64.2089 41.7619L70.3256 36.5073C70.7087 36.1789 70.9551 35.7 70.9961 35.1937C71.0372 34.6874 70.8729 34.1811 70.5309 33.7842Z"
    fill="#AFD479"/>
  <path
    d="M64.783 18.8566L60.6368 14.0262C59.9389 13.2189 58.7211 13.1231 57.9137 13.821L43.6415 26.0954C43.2584 26.4238 43.0121 26.9027 42.971 27.409C42.93 27.9153 43.0942 28.4216 43.4363 28.8184L47.5825 33.6488C47.9656 34.0867 48.4993 34.3193 49.0466 34.3193C49.4982 34.3193 49.9361 34.1688 50.3055 33.8541L64.5778 21.5797C64.9609 21.2513 65.2072 20.7724 65.2483 20.2661C65.2893 19.7461 65.1251 19.2398 64.783 18.8566Z"
    fill="#AFD479"/>
  <path
    d="M134.489 28.7369C134.448 28.2306 134.215 27.7516 133.818 27.4232L127.702 22.1686C126.894 21.4708 125.677 21.5665 124.979 22.3739L115.154 33.7999C114.825 34.183 114.647 34.6893 114.688 35.2093C114.729 35.7156 114.962 36.1945 115.359 36.5229L121.476 41.7775C121.845 42.0923 122.283 42.2428 122.735 42.2428C123.282 42.2428 123.816 42.0102 124.199 41.5723L134.024 30.1463C134.366 29.7495 134.53 29.2432 134.489 28.7369Z"
    fill="#AFD479"/>
  <path
    d="M142.054 26.0951L127.782 13.8207C127.399 13.4923 126.893 13.3144 126.373 13.3554C125.866 13.3965 125.387 13.6291 125.059 14.0259L120.913 18.8563C120.215 19.6637 120.311 20.8815 121.118 21.5794L135.39 33.8538C135.746 34.1548 136.184 34.319 136.649 34.319C136.704 34.319 136.745 34.319 136.8 34.319C137.306 34.278 137.785 34.0454 138.113 33.6485L142.26 28.8181C142.944 28.0108 142.862 26.7793 142.054 26.0951Z"
    fill="#AFD479"/>
  <path d="M87.1836 10.8516H99.0474V27.7921H87.1836V10.8516Z" fill="#6384AF"/>
  <path
    d="M107.64 0.0136719H100.387H99.9085H78.6028C76.564 0.0136719 74.8945 1.66941 74.8945 3.72198V8.22395C74.8945 10.2628 76.5503 11.9323 78.6028 11.9323H99.9085H100.278H107.64C109.679 11.9323 111.348 10.2765 111.348 8.22395V3.72198C111.335 1.66941 109.679 0.0136719 107.64 0.0136719ZM101.304 11.6312C101.044 11.7407 100.771 11.8091 100.483 11.8502L101.304 11.6312Z"
    fill="#6384AF"/>
  <path
    d="M93.1089 21.0195C92.5068 21.0195 91.9047 21.0606 91.3163 21.088C91.0016 21.0743 90.7142 21.0606 90.5226 21.0743C69.5453 22.169 50.7575 36.578 45.0787 57.9795C38.0315 84.5124 53.8363 111.729 80.3692 118.763C83.3386 119.543 86.308 120.049 89.25 120.282C90.1121 120.35 90.9742 120.378 91.8499 120.378C92.2741 120.391 92.6983 120.432 93.1225 120.432C120.572 120.432 142.822 98.1825 142.822 70.7328C142.822 43.2831 120.559 21.0195 93.1089 21.0195Z"
    fill="#6F91BD"/>
  <path
    d="M93.108 109.444C114.488 109.444 131.819 92.1127 131.819 70.733C131.819 49.3532 114.488 32.0215 93.108 32.0215C71.7282 32.0215 54.3965 49.3532 54.3965 70.733C54.3965 92.1127 71.7282 109.444 93.108 109.444Z"
    fill="white"/>
  <path
    d="M93.1227 43.0758C92.1237 43.0758 91.3301 42.2685 91.3301 41.2832V36.316C91.3301 35.3171 92.1374 34.5234 93.1227 34.5234C94.1079 34.5234 94.9152 35.3308 94.9152 36.316V41.2832C94.9152 42.2822 94.1216 43.0758 93.1227 43.0758Z"
    fill="#445C6B"/>
  <path
    d="M114.086 51.6678C113.621 51.6678 113.169 51.4899 112.813 51.1478C112.116 50.45 112.116 49.3005 112.813 48.6026L116.33 45.0859C117.028 44.388 118.177 44.388 118.875 45.0859C119.573 45.7838 119.573 46.9332 118.875 47.6311L115.359 51.1478C115.017 51.5036 114.551 51.6678 114.086 51.6678Z"
    fill="#445C6B"/>
  <path
    d="M127.811 72.5793H122.843C121.844 72.5793 121.051 71.772 121.051 70.7867C121.051 69.8015 121.858 68.9941 122.843 68.9941H127.811C128.809 68.9941 129.603 69.8015 129.603 70.7867C129.603 71.772 128.809 72.5793 127.811 72.5793Z"
    fill="#445C6B"/>
  <path
    d="M117.767 97.0721C117.302 97.0721 116.85 96.8942 116.494 96.5521L112.978 93.0354C112.28 92.3375 112.28 91.1881 112.978 90.4902C113.675 89.7923 114.825 89.7923 115.523 90.4902L119.039 94.0069C119.737 94.7048 119.737 95.8543 119.039 96.5521C118.684 96.8942 118.232 97.0721 117.767 97.0721Z"
    fill="#445C6B"/>
  <path
    d="M93.3414 107.281C92.3425 107.281 91.5488 106.474 91.5488 105.488V100.521C91.5488 99.5222 92.3562 98.7285 93.3414 98.7285C94.3266 98.7285 95.134 99.5359 95.134 100.521V105.488C95.1477 106.474 94.3403 107.281 93.3414 107.281Z"
    fill="#445C6B"/>
  <path
    d="M68.8614 97.2225C68.3962 97.2225 67.9446 97.0446 67.5888 96.6888C66.891 95.991 66.891 94.8415 67.5888 94.1437L71.1056 90.6269C71.8034 89.929 72.9529 89.929 73.6508 90.6269C74.3486 91.3248 74.3486 92.4742 73.6508 93.1721L70.134 96.6888C69.7782 97.0446 69.3267 97.2225 68.8614 97.2225Z"
    fill="#445C6B"/>
  <path
    d="M63.6202 72.8098H58.6529C57.654 72.8098 56.8604 72.0024 56.8604 71.0172C56.8604 70.032 57.6677 69.2246 58.6529 69.2246H63.6202C64.6191 69.2246 65.4127 70.032 65.4127 71.0172C65.4127 72.0024 64.6191 72.8098 63.6202 72.8098Z"
    fill="#445C6B"/>
  <path
    d="M72.2131 51.8338C71.7479 51.8338 71.2963 51.6559 70.9405 51.3138L67.4238 47.7971C66.7259 47.0992 66.7259 45.9498 67.4238 45.2519C68.1217 44.554 69.2711 44.554 69.969 45.2519L73.4857 48.7687C74.1836 49.4665 74.1836 50.616 73.4857 51.3138C73.1436 51.6559 72.6784 51.8338 72.2131 51.8338Z"
    fill="#445C6B"/>
  <path
    d="M93.1081 69.8565C92.0408 69.8565 91.1787 68.9944 91.1787 67.9271V54.9275C91.1787 53.8601 92.0408 52.998 93.1081 52.998C94.1755 52.998 95.0375 53.8601 95.0375 54.9275V67.9271C95.0512 68.9944 94.1755 69.8565 93.1081 69.8565Z"
    fill="#AFD479"/>
  <path
    d="M109.379 88.48C108.886 88.48 108.393 88.2884 108.01 87.9189L93.9434 73.852C93.1908 73.0994 93.1908 71.8678 93.9434 71.1152C94.696 70.3626 95.9275 70.3626 96.6801 71.1152L110.747 85.1822C111.5 85.9348 111.5 87.1663 110.747 87.9189C110.364 88.2884 109.871 88.48 109.379 88.48Z"
    fill="#AFD479"/>
  <path
    d="M93.3676 74.4267C91.2193 74.4267 89.4814 72.6889 89.4814 70.5405C89.4814 68.3921 91.2193 66.6543 93.3676 66.6543C95.516 66.6543 97.2538 68.3921 97.2538 70.5405C97.2538 72.6889 95.516 74.4267 93.3676 74.4267Z"
    fill="#445C6B"/>
  <g opacity="0.1">
    <path opacity="0.1"
          d="M45.5295 85.0859H28.9994C27.5079 85.0859 26.3037 86.1943 26.3037 87.5627C26.3037 88.9311 27.5079 90.0395 28.9994 90.0395H37.3876C40.398 89.2458 43.3537 88.329 46.2547 87.289C45.9947 86.5638 45.7484 85.8249 45.5295 85.0859Z"
          fill="#010101"/>
    <path opacity="0.1"
          d="M46.3229 53.9551H31.5033C30.0118 53.9551 28.8076 55.0635 28.8076 56.4318C28.8076 57.8002 30.0118 58.9086 31.5033 58.9086H44.845C44.9271 58.5939 44.9819 58.2928 45.064 57.9781C45.4334 56.6097 45.8576 55.2687 46.3229 53.9551Z"
          fill="#010101"/>
    <path
      d="M46.3229 53.9551H31.5033C30.0118 53.9551 28.8076 55.0635 28.8076 56.4318C28.8076 57.8002 30.0118 58.9086 31.5033 58.9086H44.845C44.9271 58.5939 44.9819 58.2928 45.064 57.9781C45.4334 56.6097 45.8576 55.2687 46.3229 53.9551Z"
      fill="#AFD479"/>
    <path opacity="0.1"
          d="M48.1576 40.9414C46.6661 40.9414 45.4619 42.0498 45.4619 43.4182C45.4619 44.7866 46.6661 45.8949 48.1576 45.8949H50.0597C51.0586 44.1708 52.1396 42.515 53.3301 40.9414H48.1576Z"
          fill="#010101"/>
    <path
      d="M48.1576 40.9414C46.6661 40.9414 45.4619 42.0498 45.4619 43.4182C45.4619 44.7866 46.6661 45.8949 48.1576 45.8949H50.0597C51.0586 44.1708 52.1396 42.515 53.3301 40.9414H48.1576Z"
      fill="#AFD479"/>
    <path opacity="0.1" d="M99.0474 10.8516H87.1836V15.6409H99.0474V10.8516Z" fill="#010101"/>
    <path opacity="0.1" d="M99.0474 10.8516H87.1836V15.6409H99.0474V10.8516Z" fill="#010101"/>
    <path opacity="0.1"
          d="M99.0461 27.7908H87.1823V21.373C79.6972 22.2762 72.568 24.8761 66.3145 28.8718L70.5428 33.7843C70.8712 34.1674 71.0491 34.6737 71.008 35.1937C70.967 35.7 70.7343 36.1789 70.3375 36.5073L65.1787 40.9409C66.0408 40.9409 66.7934 41.324 67.286 41.8988C74.1416 35.7547 83.1866 32.019 93.1074 32.019C98.1156 32.019 102.905 32.9769 107.297 34.7148C109.035 31.4854 110.609 28.1602 112.018 24.7529C107.941 23.0698 103.575 21.9204 99.0461 21.3867V27.7908Z"
          fill="#010101"/>
    <path opacity="0.1"
          d="M54.5878 74.4805H43.5449C43.8186 78.1067 44.4891 81.6645 45.5291 85.0854H51.9741C53.4794 84.456 54.9572 83.7855 56.4351 83.0876C55.5046 80.3371 54.8751 77.4635 54.5878 74.4805Z"
          fill="#010101"/>
    <path opacity="0.1"
          d="M56.2436 58.9082H44.845C43.9692 62.4523 43.504 66.0101 43.4219 69.5132H54.4373C54.5468 65.8322 55.1763 62.2744 56.2436 58.9082Z"
          fill="#010101"/>
    <path opacity="0.1"
          d="M63.4143 45.9102H50.0452C48.5811 48.4417 47.3358 51.1237 46.3232 53.9562H58.2145C59.6239 51.0553 61.3754 48.3459 63.4143 45.9102Z"
          fill="#010101"/>
    <path opacity="0.1" d="M57.1058 36.4668C55.7648 37.8762 54.4922 39.3678 53.3154 40.9414H60.951L57.1058 36.4668Z"
          fill="#010101"/>
    <path opacity="0.1"
          d="M54.4107 70.7315C54.4107 70.321 54.4244 69.9242 54.4381 69.5273H43.4226C43.3816 71.1968 43.4226 72.8388 43.5458 74.4809H54.5886C54.4655 73.2493 54.4107 71.9904 54.4107 70.7315Z"
          fill="#010101"/>
    <path opacity="0.1"
          d="M54.4107 70.7315C54.4107 70.321 54.4244 69.9242 54.4381 69.5273H43.4226C43.3816 71.1968 43.4226 72.8388 43.5458 74.4809H54.5886C54.4655 73.2493 54.4107 71.9904 54.4107 70.7315Z"
          fill="#010101"/>
    <path opacity="0.1"
          d="M46.2555 87.289C48.1849 86.6048 50.1007 85.8796 51.9753 85.0859H45.5303C45.7492 85.8249 45.9955 86.5638 46.2555 87.289Z"
          fill="#010101"/>
    <path opacity="0.1"
          d="M46.2555 87.289C48.1849 86.6048 50.1007 85.8796 51.9753 85.0859H45.5303C45.7492 85.8249 45.9955 86.5638 46.2555 87.289Z"
          fill="#010101"/>
    <path opacity="0.1"
          d="M58.2148 53.9551H46.3236C45.8583 55.2687 45.4341 56.6097 45.0646 57.9781C44.9825 58.2928 44.9141 58.5939 44.8457 58.9086H56.2443C56.7917 57.1981 57.4485 55.5424 58.2148 53.9551Z"
          fill="#010101"/>
    <path opacity="0.1"
          d="M58.2148 53.9551H46.3236C45.8583 55.2687 45.4341 56.6097 45.0646 57.9781C44.9825 58.2928 44.9141 58.5939 44.8457 58.9086H56.2443C56.7917 57.1981 57.4485 55.5424 58.2148 53.9551Z"
          fill="#010101"/>
    <path opacity="0.1"
          d="M67.2865 41.8993C66.7939 41.3246 66.0413 40.9414 65.1792 40.9414L64.2213 41.7624C63.8519 42.0772 63.414 42.2277 62.9624 42.2277C62.4151 42.2277 61.8814 41.9951 61.4982 41.5572L60.9646 40.9414H53.329C52.1522 42.515 51.0575 44.1708 50.0586 45.8949H63.4277C64.6182 44.4718 65.9044 43.1445 67.2865 41.8993Z"
          fill="#010101"/>
    <path opacity="0.1"
          d="M67.2865 41.8993C66.7939 41.3246 66.0413 40.9414 65.1792 40.9414L64.2213 41.7624C63.8519 42.0772 63.414 42.2277 62.9624 42.2277C62.4151 42.2277 61.8814 41.9951 61.4982 41.5572L60.9646 40.9414H53.329C52.1522 42.515 51.0575 44.1708 50.0586 45.8949H63.4277C64.6182 44.4718 65.9044 43.1445 67.2865 41.8993Z"
          fill="#010101"/>
    <path opacity="0.1"
          d="M65.1789 40.9422L70.3377 36.5086C70.7209 36.1802 70.9672 35.7013 71.0082 35.195C71.0493 34.6887 70.8851 34.1824 70.543 33.7855L66.3147 28.873C62.9621 31.0214 59.8696 33.5666 57.1055 36.4676L60.9506 40.9422H65.1789Z"
          fill="#010101"/>
    <path opacity="0.1"
          d="M65.1789 40.9422L70.3377 36.5086C70.7209 36.1802 70.9672 35.7013 71.0082 35.195C71.0493 34.6887 70.8851 34.1824 70.543 33.7855L66.3147 28.873C62.9621 31.0214 59.8696 33.5666 57.1055 36.4676L60.9506 40.9422H65.1789Z"
          fill="#010101"/>
    <path opacity="0.1"
          d="M61.4849 41.5708C61.868 42.0087 62.4017 42.2414 62.949 42.2414C63.4006 42.2414 63.8385 42.0908 64.2079 41.7761L65.1658 40.9551H60.9375L61.4849 41.5708Z"
          fill="#010101"/>
    <path opacity="0.1"
          d="M61.4849 41.5708C61.868 42.0087 62.4017 42.2414 62.949 42.2414C63.4006 42.2414 63.8385 42.0908 64.2079 41.7761L65.1658 40.9551H60.9375L61.4849 41.5708Z"
          fill="#010101"/>
    <path opacity="0.1"
          d="M61.4849 41.5708C61.868 42.0087 62.4017 42.2414 62.949 42.2414C63.4006 42.2414 63.8385 42.0908 64.2079 41.7761L65.1658 40.9551H60.9375L61.4849 41.5708Z"
          fill="#010101"/>
    <path opacity="0.1"
          d="M99.0474 27.7911V21.387C97.1043 21.1544 95.1202 21.0176 93.1224 21.0176C92.5203 21.0176 91.9182 21.0586 91.3298 21.086C91.015 21.0723 90.7277 21.0586 90.5361 21.0723C89.414 21.127 88.3057 21.2365 87.1973 21.3734V27.7911H99.0474Z"
          fill="#010101"/>
    <path opacity="0.1"
          d="M99.0474 27.7911V21.387C97.1043 21.1544 95.1202 21.0176 93.1224 21.0176C92.5203 21.0176 91.9182 21.0586 91.3298 21.086C91.015 21.0723 90.7277 21.0586 90.5361 21.0723C89.414 21.127 88.3057 21.2365 87.1973 21.3734V27.7911H99.0474Z"
          fill="#010101"/>
    <path opacity="0.1"
          d="M99.0473 21.387C97.1042 21.1544 95.12 21.0176 93.1222 21.0176C92.5201 21.0176 91.918 21.0586 91.3296 21.086C91.0149 21.0723 90.7275 21.0586 90.5359 21.0723C89.4139 21.127 88.3055 21.2365 87.1971 21.3734C79.7121 22.2765 72.5828 24.8764 66.3293 28.8721C62.9768 31.0204 59.8842 33.5656 57.1201 36.4666C55.7791 37.876 54.5065 39.3676 53.3297 40.9412C52.1529 42.5148 51.0582 44.1706 50.0593 45.8947C48.5951 48.4262 47.3499 51.1083 46.3373 53.9408C45.872 55.2545 45.4478 56.5955 45.0783 57.9638C44.9962 58.2786 44.9278 58.5796 44.8594 58.8943C43.9836 62.4385 43.5184 65.9962 43.4363 69.4993C43.3952 71.1687 43.4363 72.8108 43.5594 74.4528C43.8331 78.079 44.5036 81.6368 45.5436 85.0578C45.7625 85.7967 46.0088 86.5356 46.2688 87.2609C48.1983 86.5767 50.114 85.8514 51.9887 85.0578C53.4939 84.4283 54.9717 83.7578 56.4496 83.0599C55.5191 80.3095 54.8896 77.4359 54.6023 74.4528C54.4791 73.2213 54.4244 71.9624 54.4244 70.7035C54.4244 70.293 54.4381 69.8961 54.4518 69.4993C54.5612 65.8047 55.1907 62.2469 56.2717 58.8943C56.8191 57.1839 57.4759 55.5281 58.2422 53.9408C59.6379 51.0398 61.3894 48.3441 63.442 45.8947C64.6325 44.4716 65.9325 43.1306 67.3145 41.8991C74.1701 35.755 83.2151 32.0194 93.1359 32.0194C98.1441 32.0194 102.933 32.9772 107.326 34.7151C109.064 31.4857 110.637 28.1605 112.047 24.7533C107.942 23.0701 103.59 21.9344 99.0473 21.387Z"
          fill="#010101"/>
    <path opacity="0.1"
          d="M93.108 32.0195C83.1872 32.0195 74.1285 35.7552 67.2866 41.8992C65.9046 43.1445 64.6046 44.4718 63.4141 45.8949C61.3615 48.3443 59.61 51.04 58.2143 53.941C57.448 55.5283 56.7912 57.1977 56.2438 58.8945C55.1628 62.2607 54.547 65.8185 54.4239 69.4995C54.4102 69.8963 54.3965 70.3068 54.3965 70.7036C54.3965 71.9626 54.4649 73.2215 54.5744 74.453C54.8617 77.4361 55.4912 80.3097 56.4217 83.0601C69.6266 76.8203 81.422 68.0763 91.1649 57.4303V54.9125C91.1649 53.8452 92.0269 52.9831 93.0943 52.9831C93.6553 52.9831 94.1479 53.2294 94.5037 53.5989C99.3752 47.7696 103.658 41.4477 107.284 34.7016C102.906 32.9774 98.1299 32.0195 93.108 32.0195ZM63.6194 72.8109H58.6521C58.4879 72.8109 58.3374 72.7562 58.1732 72.7152C57.4206 72.5099 56.8459 71.8394 56.8459 71.0184C56.8459 70.6352 56.9964 70.3068 57.188 70.0194C57.5164 69.5542 58.0227 69.2258 58.6385 69.2258H63.6057C64.6046 69.2258 65.3983 70.0331 65.3983 71.0184C65.3983 72.0036 64.6183 72.8109 63.6194 72.8109ZM73.4854 51.3137C73.1296 51.6695 72.678 51.8337 72.2128 51.8337C71.7475 51.8337 71.296 51.6558 70.9402 51.3137L67.4235 47.797C66.7256 47.0991 66.7256 45.9496 67.4235 45.2518C68.1213 44.5539 69.2708 44.5539 69.9687 45.2518L73.4854 48.7685C74.1969 49.4664 74.1969 50.6021 73.4854 51.3137ZM93.1217 43.076C92.1227 43.076 91.3291 42.2687 91.3291 41.2835V36.3162C91.3291 35.3173 92.1364 34.5237 93.1217 34.5237C94.1206 34.5237 94.9142 35.331 94.9142 36.3162V41.2835C94.9142 42.2824 94.1206 43.076 93.1217 43.076Z"
          fill="#010101"/>
    <path opacity="0.1"
          d="M58.173 72.7153C58.2414 72.4826 58.2962 72.25 58.2962 72.0037C58.2962 71.1827 57.8583 70.4574 57.1878 70.0059C56.9825 70.2932 56.8457 70.6353 56.8457 71.0048C56.8594 71.8258 57.4204 72.4963 58.173 72.7153Z"
          fill="#010101"/>
    <path opacity="0.1"
          d="M58.173 72.7153C58.2414 72.4826 58.2962 72.25 58.2962 72.0037C58.2962 71.1827 57.8583 70.4574 57.1878 70.0059C56.9825 70.2932 56.8457 70.6353 56.8457 71.0048C56.8594 71.8258 57.4204 72.4963 58.173 72.7153Z"
          fill="#010101"/>
    <path opacity="0.1"
          d="M93.1071 52.998C92.0398 52.998 91.1777 53.8601 91.1777 54.9275V57.4453C92.3272 56.2001 93.4356 54.9138 94.5303 53.6138C94.1745 53.2444 93.6682 52.998 93.1071 52.998Z"
          fill="#010101"/>
    <path opacity="0.1"
          d="M93.1071 52.998C92.0398 52.998 91.1777 53.8601 91.1777 54.9275V57.4453C92.3272 56.2001 93.4356 54.9138 94.5303 53.6138C94.1745 53.2444 93.6682 52.998 93.1071 52.998Z"
          fill="#010101"/>
  </g>
  <ellipse opacity="0.1" cx="91.6538" cy="119.655" rx="91.6538" ry="6.65455" fill="#1D3666" fill-opacity="0.45"/>
  <defs>
    <linearGradient id="paint0_linear_3167_63326" x1="28.8154" y1="56.432" x2="62.2596" y2="56.432"
                    gradientUnits="userSpaceOnUse">
      <stop stop-color="#C2DB77"/>
      <stop offset="1" stop-color="#8FC641"/>
    </linearGradient>
    <linearGradient id="paint1_linear_3167_63326" x1="45.4581" y1="43.4245" x2="67.8728" y2="43.4245"
                    gradientUnits="userSpaceOnUse">
      <stop stop-color="#C2DB77"/>
      <stop offset="1" stop-color="#8FC641"/>
    </linearGradient>
  </defs>
</svg>
