<svg width="24" height="24" viewBox="0 0 24 24" fill="none" xmlns="http://www.w3.org/2000/svg">
  <g clip-path="url(#clip0_1408_142309)">
    <path
      d="M21.7986 12.1113C21.7986 17.4616 17.4614 21.7988 12.1111 21.7988C6.76081 21.7988 2.42358 17.4616 2.42358 12.1113C2.42358 6.76106 6.76081 2.42383 12.1111 2.42383C17.4614 2.42383 21.7986 6.76106 21.7986 12.1113ZM10.9905 17.2408L18.178 10.0533C18.4221 9.80922 18.4221 9.41348 18.178 9.16941L17.2942 8.28555C17.0501 8.04145 16.6544 8.04145 16.4103 8.28555L10.5486 14.1472L7.8119 11.4105C7.56784 11.1664 7.1721 11.1664 6.928 11.4105L6.04413 12.2944C5.80007 12.5384 5.80007 12.9342 6.04413 13.1782L10.1066 17.2407C10.3507 17.4848 10.7464 17.4848 10.9905 17.2408Z"
      fill="#A0D061"/>
  </g>
  <defs>
    <clipPath id="clip0_1408_142309">
      <rect width="20" height="20" fill="white" transform="translate(2.11108 2.11133)"/>
    </clipPath>
  </defs>
</svg>
