<svg width="16" height="16" viewBox="0 0 16 16" fill="none" xmlns="http://www.w3.org/2000/svg">
  <path fill-rule="evenodd" clip-rule="evenodd" d="M8 16C10.1217 16 12.1566 15.1571 13.6569 13.6569C15.1571 12.1566 16 10.1217 16 8C16 5.87827 15.1571 3.84344 13.6569 2.34315C12.1566 0.842855 10.1217 0 8 0C5.87827 0 3.84344 0.842855 2.34315 2.34315C0.842855 3.84344 0 5.87827 0 8C0 10.1217 0.842855 12.1566 2.34315 13.6569C3.84344 15.1571 5.87827 16 8 16ZM6.28 5.22C6.13783 5.08752 5.94978 5.0154 5.75548 5.01883C5.56118 5.02225 5.37579 5.10097 5.23838 5.23838C5.10097 5.37579 5.02225 5.56118 5.01883 5.75548C5.0154 5.94978 5.08752 6.13783 5.22 6.28L6.94 8L5.22 9.72C5.14631 9.78866 5.08721 9.87146 5.04622 9.96346C5.00523 10.0555 4.98319 10.1548 4.98141 10.2555C4.97963 10.3562 4.99816 10.4562 5.03588 10.5496C5.0736 10.643 5.12974 10.7278 5.20096 10.799C5.27218 10.8703 5.35701 10.9264 5.4504 10.9641C5.54379 11.0018 5.64382 11.0204 5.74452 11.0186C5.84523 11.0168 5.94454 10.9948 6.03654 10.9538C6.12854 10.9128 6.21134 10.8537 6.28 10.78L8 9.06L9.72 10.78C9.78866 10.8537 9.87146 10.9128 9.96346 10.9538C10.0555 10.9948 10.1548 11.0168 10.2555 11.0186C10.3562 11.0204 10.4562 11.0018 10.5496 10.9641C10.643 10.9264 10.7278 10.8703 10.799 10.799C10.8703 10.7278 10.9264 10.643 10.9641 10.5496C11.0018 10.4562 11.0204 10.3562 11.0186 10.2555C11.0168 10.1548 10.9948 10.0555 10.9538 9.96346C10.9128 9.87146 10.8537 9.78866 10.78 9.72L9.06 8L10.78 6.28C10.9125 6.13783 10.9846 5.94978 10.9812 5.75548C10.9777 5.56118 10.899 5.37579 10.7616 5.23838C10.6242 5.10097 10.4388 5.02225 10.2445 5.01883C10.0502 5.0154 9.86217 5.08752 9.72 5.22L8 6.94L6.28 5.22Z" fill="#F43F5E"/>
</svg>