<svg width="20" height="18" viewBox="0 0 20 18" fill="none" xmlns="http://www.w3.org/2000/svg">
    <path fill-rule="evenodd" clip-rule="evenodd" d="M8.11422 1.14092C8.95212 -0.312028 11.0487 -0.312028 11.8867 1.14092L19.7054 14.6806C20.5433 16.1335 19.4938 17.9488 17.818 17.9488H2.18167C0.504614 17.9488 -0.543699 16.1335 0.295449 14.6806L8.11422 1.14092ZM10.0004 4.25971C10.2481 4.25971 10.4856 4.35809 10.6607 4.53321C10.8358 4.70832 10.9342 4.94583 10.9342 5.19348V9.55107C10.9342 9.79873 10.8358 10.0362 10.6607 10.2114C10.4856 10.3865 10.2481 10.4848 10.0004 10.4848C9.75278 10.4848 9.51528 10.3865 9.34016 10.2114C9.16504 10.0362 9.06666 9.79873 9.06666 9.55107V5.19348C9.06666 4.94583 9.16504 4.70832 9.34016 4.53321C9.51528 4.35809 9.75278 4.25971 10.0004 4.25971ZM10.0004 15.465C10.3306 15.465 10.6473 15.3338 10.8808 15.1003C11.1143 14.8668 11.2455 14.5501 11.2455 14.2199C11.2455 13.8897 11.1143 13.573 10.8808 13.3396C10.6473 13.1061 10.3306 12.9749 10.0004 12.9749C9.67023 12.9749 9.35355 13.1061 9.12007 13.3396C8.88658 13.573 8.75541 13.8897 8.75541 14.2199C8.75541 14.5501 8.88658 14.8668 9.12007 15.1003C9.35355 15.3338 9.67023 15.465 10.0004 15.465Z" fill="#F59E0B"/>
</svg>