<svg width="12" height="12" viewBox="0 0 12 12" fill="none" xmlns="http://www.w3.org/2000/svg">
  <path
    d="M6 1.19766C3.34903 1.19766 1.2 3.34251 1.2 5.98831C1.2 8.63412 3.34903 10.779 6 10.779C8.65097 10.779 10.8 8.63412 10.8 5.98831C10.8 3.34251 8.65097 1.19766 6 1.19766ZM0 5.98831C0 2.68106 2.68629 0 6 0C9.31371 0 12 2.68106 12 5.98831C12 9.29557 9.31371 11.9766 6 11.9766C2.68629 11.9766 0 9.29557 0 5.98831Z"
    fill="#42638E"/>
  <path
    d="M6 4.79065C6.33137 4.79065 6.6 5.05876 6.6 5.38948V8.98247C6.6 9.31319 6.33137 9.5813 6 9.5813C5.66863 9.5813 5.4 9.31319 5.4 8.98247V5.38948C5.4 5.05876 5.66863 4.79065 6 4.79065Z"
    fill="#42638E"/>
  <path
    d="M6.9 3.29357C6.9 3.78966 6.49706 4.19182 6 4.19182C5.50294 4.19182 5.1 3.78966 5.1 3.29357C5.1 2.79748 5.50294 2.39532 6 2.39532C6.49706 2.39532 6.9 2.79748 6.9 3.29357Z"
    fill="#42638E"/>
</svg>
