<svg width="16" height="17" viewBox="0 0 16 17" fill="none" xmlns="http://www.w3.org/2000/svg">
  <rect x="6" y="2.01855" width="4" height="2.01802" fill="#E3EFCB"/>
  <path
    d="M4.66665 2.69203C4.66665 1.94901 5.2636 1.34668 5.99998 1.34668H9.99998C10.7364 1.34668 11.3333 1.94901 11.3333 2.69203V4.03737H12.6598C12.6639 4.03733 12.668 4.03733 12.6721 4.03737H14C14.3682 4.03737 14.6666 4.33854 14.6666 4.71004C14.6666 5.08155 14.3682 5.38272 14 5.38272H13.2874L12.7092 13.5506C12.6593 14.2547 12.0788 14.8001 11.3792 14.8001H4.62073C3.92121 14.8001 3.34062 14.2547 3.29078 13.5506L2.71257 5.38272H1.99998C1.63179 5.38272 1.33331 5.08155 1.33331 4.71004C1.33331 4.33854 1.63179 4.03737 1.99998 4.03737H3.32781C3.33195 4.03733 3.33607 4.03733 3.34019 4.03737H4.66665V2.69203ZM5.99998 4.03737H9.99998V2.69203H5.99998V4.03737ZM4.0493 5.38272L4.62073 13.4548H11.3792L11.9507 5.38272H4.0493ZM6.66665 6.72806C7.03484 6.72806 7.33331 7.02923 7.33331 7.40073V11.4368C7.33331 11.8083 7.03484 12.1094 6.66665 12.1094C6.29846 12.1094 5.99998 11.8083 5.99998 11.4368V7.40073C5.99998 7.02923 6.29846 6.72806 6.66665 6.72806ZM9.33331 6.72806C9.7015 6.72806 9.99998 7.02923 9.99998 7.40073V11.4368C9.99998 11.8083 9.7015 12.1094 9.33331 12.1094C8.96512 12.1094 8.66665 11.8083 8.66665 11.4368V7.40073C8.66665 7.02923 8.96512 6.72806 9.33331 6.72806Z"
    fill="#194175"/>
</svg>
