<svg width="40" height="40" viewBox="0 0 40 40" fill="none" xmlns="http://www.w3.org/2000/svg">
  <rect x="16.3833" y="3.01025" width="11.8675" height="21.5114" transform="rotate(37.7122 16.3833 3.01025)"
        fill="#194175" fill-opacity="0.3"/>
  <path
    d="M18.3333 6.66683C14.6514 6.66683 11.6667 9.65158 11.6667 13.3335C11.6667 13.3875 11.6675 13.444 11.6689 13.5039C11.687 14.2789 11.1683 14.9642 10.4175 15.1571C8.25962 15.7116 6.66668 17.672 6.66668 20.0002C6.66668 22.7616 8.9053 25.0002 11.6667 25.0002H13.3333C14.2538 25.0002 15 25.7464 15 26.6668C15 27.5873 14.2538 28.3335 13.3333 28.3335H11.6667C7.06437 28.3335 3.33334 24.6025 3.33334 20.0002C3.33334 16.5626 5.41368 13.6143 8.3821 12.3397C8.88094 7.28342 13.1458 3.3335 18.3333 3.3335C22.0393 3.3335 25.2715 5.34906 26.9984 8.3389C32.3678 8.51388 36.6667 12.9216 36.6667 18.3335C36.6667 23.8563 32.1896 28.3335 26.6667 28.3335C25.7462 28.3335 25 27.5873 25 26.6668C25 25.7464 25.7462 25.0002 26.6667 25.0002C30.3487 25.0002 33.3333 22.0154 33.3333 18.3335C33.3333 14.6516 30.3487 11.6668 26.6667 11.6668C26.4821 11.6668 26.2999 11.6743 26.1197 11.6889C25.4082 11.7464 24.7391 11.3445 24.4556 10.6893C23.4306 8.31972 21.0732 6.66683 18.3333 6.66683ZM18.8215 15.4883C19.4724 14.8374 20.5276 14.8374 21.1785 15.4883L24.5119 18.8217C25.1627 19.4725 25.1627 20.5278 24.5119 21.1787C23.861 21.8295 22.8057 21.8295 22.1548 21.1787L21.6667 20.6905V33.3335C21.6667 34.254 20.9205 35.0002 20 35.0002C19.0795 35.0002 18.3333 34.254 18.3333 33.3335V20.6905L17.8452 21.1787C17.1943 21.8295 16.139 21.8295 15.4882 21.1787C14.8373 20.5278 14.8373 19.4725 15.4882 18.8217L18.8215 15.4883Z"
    fill="#42638E"/>
</svg>
