<svg width="20" height="20" viewBox="0 0 20 20" fill="none" xmlns="http://www.w3.org/2000/svg">
  <path
    d="M2 11.6664C9.00377 12.8617 14.1358 10.3445 18 5.33398L19.3333 12.0007L14.6667 17.0007L10 18.0007L6.33333 17.0007L2 17.334V11.6664Z"
    fill="#1E263E" fill-opacity="0.17"/>
  <path
    d="M10.2803 0C4.91252 0 0.560505 4.33954 0.560505 9.69188C0.560505 11.5761 1.10886 13.3296 2.04196 14.8181L0 20L5.2195 17.9542C6.69529 18.8556 8.42378 19.3838 10.2803 19.3838C15.648 19.3838 20 15.0442 20 9.69188C20 4.33954 15.6488 0 10.2803 0ZM10.2803 17.7684C8.79961 17.7684 7.34246 17.3565 6.06512 16.5772L5.37745 16.1572L2.86652 17.1409L3.8474 14.6517L3.41487 13.962C2.60813 12.6729 2.18046 11.1965 2.18046 9.69188C2.18046 5.23846 5.81403 1.61531 10.2803 1.61531C14.7465 1.61531 18.38 5.23846 18.38 9.69188C18.38 14.1453 14.7473 17.7684 10.2803 17.7684Z"
    fill="#5A6472"/>
  <path
    d="M8.09964 11.8668C9.20769 12.9717 11.7632 14.5789 13.1855 14.1476C14.6078 13.7163 14.8208 12.9563 14.8208 12.9563L14.7893 11.7804L12.4703 10.9727C12.4703 10.9727 11.9543 11.0171 11.2521 11.8426C10.3084 11.7174 9.29759 10.6723 9.29759 10.6723C9.29759 10.6723 8.24948 9.66352 8.12394 8.7234C8.95173 8.02317 8.99628 7.50869 8.99628 7.50869L8.1863 5.19637L7.00697 5.16406C7.00697 5.16406 6.24478 5.37567 5.81226 6.79472C5.37973 8.21377 6.99078 10.7611 8.09964 11.8668Z"
    fill="#5A6472"/>
</svg>
