<svg width="92" height="27" viewBox="0 0 92 27" fill="none" xmlns="http://www.w3.org/2000/svg">
    <path d="M39.9422 9.55213C40.0623 9.78031 40.2233 9.96418 40.4251 10.106C40.6245 10.2477 40.8603 10.3519 41.1301 10.4205C41.3999 10.4892 41.6787 10.5224 41.9689 10.5224C42.1638 10.5224 42.3747 10.5069 42.5991 10.4737C42.8235 10.4427 43.0321 10.3807 43.2271 10.2898C43.422 10.199 43.5853 10.0727 43.7167 9.91323C43.8482 9.75372 43.9117 9.55213 43.9117 9.30623C43.9117 9.0426 43.8256 8.82772 43.6533 8.66378C43.481 8.49985 43.2543 8.3625 42.9754 8.25395C42.6966 8.1454 42.3792 8.04792 42.0256 7.96817C41.6719 7.88621 41.3137 7.79538 40.9487 7.69569C40.5769 7.60486 40.212 7.49188 39.8583 7.36117C39.5046 7.22826 39.1873 7.05768 38.9084 6.84944C38.6296 6.63898 38.4029 6.37757 38.2306 6.06521C38.0583 5.75064 37.9722 5.37182 37.9722 4.92432C37.9722 4.42366 38.081 3.98945 38.3009 3.6195C38.5185 3.24954 38.8064 2.94382 39.1601 2.69792C39.5137 2.45202 39.915 2.27036 40.3616 2.15074C40.8082 2.03111 41.257 1.97351 41.7036 1.97351C42.2251 1.97351 42.7261 2.03111 43.2067 2.14409C43.6873 2.25707 44.1135 2.44316 44.4853 2.69792C44.857 2.95268 45.154 3.27834 45.3739 3.67488C45.5938 4.07142 45.7026 4.55215 45.7026 5.11484H43.5785C43.5603 4.82242 43.4968 4.58094 43.3903 4.39043C43.2837 4.19991 43.1409 4.04927 42.9641 3.94072C42.7873 3.83217 42.5855 3.75463 42.3565 3.70811C42.1276 3.66159 41.8782 3.63943 41.6084 3.63943C41.4316 3.63943 41.2548 3.65716 41.078 3.69482C40.9011 3.73248 40.7402 3.79451 40.5951 3.88533C40.45 3.97616 40.3321 4.09136 40.2392 4.22649C40.1462 4.36384 40.0986 4.53664 40.0986 4.74488C40.0986 4.9354 40.1349 5.09047 40.2097 5.2101C40.2845 5.32972 40.4319 5.43827 40.6495 5.53796C40.8694 5.63765 41.1709 5.73956 41.5586 5.83925C41.9462 5.93894 42.4518 6.06743 43.0752 6.2225C43.2611 6.25794 43.5195 6.3244 43.8505 6.41966C44.1815 6.51492 44.5102 6.66778 44.8366 6.87823C45.1631 7.08869 45.4442 7.36782 45.6822 7.71784C45.9203 8.06786 46.0382 8.51757 46.0382 9.06254C46.0382 9.50782 45.9497 9.92209 45.7729 10.3053C45.5961 10.6886 45.3331 11.0187 44.984 11.2956C44.6349 11.5725 44.2019 11.7896 43.685 11.9447C43.1681 12.0997 42.5696 12.1773 41.8895 12.1773C41.3387 12.1773 40.8059 12.1108 40.289 11.9801C39.7722 11.8472 39.3142 11.6412 38.9198 11.3576C38.523 11.0763 38.2102 10.7152 37.9767 10.2788C37.7432 9.84234 37.6321 9.32173 37.6412 8.72138H39.7654C39.7608 9.04704 39.822 9.32617 39.9422 9.55213Z" fill="#1D4E83"/>
    <path d="M47.045 7.06663C47.0723 6.61249 47.1901 6.23367 47.3942 5.93239C47.5982 5.6311 47.8612 5.38963 48.1763 5.20797C48.4937 5.02632 48.8496 4.89561 49.2463 4.81808C49.643 4.74054 50.0398 4.70288 50.441 4.70288C50.8037 4.70288 51.1733 4.72725 51.5451 4.7782C51.9168 4.82915 52.2592 4.92663 52.5652 5.07284C52.8735 5.21905 53.1252 5.42064 53.3201 5.67984C53.5151 5.93903 53.6126 6.28241 53.6126 6.70996V10.3852C53.6126 10.7042 53.6307 11.0099 53.6692 11.3001C53.7055 11.5925 53.7713 11.8096 53.8642 11.9558H51.8511C51.8126 11.8473 51.7831 11.7343 51.7604 11.6213C51.7377 11.5084 51.7219 11.3909 51.7105 11.2735C51.3932 11.5925 51.0214 11.8163 50.5929 11.9426C50.1644 12.071 49.7269 12.1331 49.2781 12.1331C48.9335 12.1331 48.6116 12.091 48.3146 12.0112C48.0153 11.9293 47.7546 11.8008 47.5325 11.628C47.308 11.4552 47.1335 11.2359 47.0088 10.9722C46.8841 10.7086 46.8206 10.394 46.8206 10.0307C46.8206 9.62976 46.8932 9.29968 47.0382 9.04048C47.1833 8.78129 47.3692 8.57305 47.5982 8.42019C47.8272 8.26512 48.0879 8.14992 48.3803 8.07239C48.6728 7.99485 48.9697 7.93282 49.269 7.88851C49.5682 7.84421 49.8607 7.80655 50.1486 7.77996C50.4365 7.75338 50.6949 7.71129 50.9171 7.65812C51.1415 7.60274 51.3184 7.52299 51.4476 7.41887C51.5791 7.31475 51.638 7.16189 51.6289 6.96029C51.6289 6.75205 51.5949 6.58369 51.5247 6.46185C51.4544 6.34 51.3614 6.24253 51.2458 6.17607C51.1302 6.1074 50.9942 6.06309 50.84 6.03872C50.6859 6.01657 50.5204 6.00549 50.3435 6.00549C49.9513 6.00549 49.6453 6.08746 49.4209 6.25139C49.1964 6.41532 49.0672 6.68781 49.0287 7.07106H47.045V7.06663ZM51.6289 8.50216C51.5451 8.57526 51.4408 8.63286 51.3138 8.67274C51.1869 8.71261 51.0531 8.74806 50.908 8.77464C50.7629 8.80123 50.6133 8.8256 50.4546 8.84332C50.2959 8.86104 50.1372 8.88541 49.9786 8.91199C49.8289 8.93858 49.6816 8.97624 49.5388 9.02054C49.3937 9.06707 49.269 9.12688 49.1602 9.20442C49.0536 9.28195 48.9675 9.37943 48.9017 9.49905C48.836 9.61647 48.8042 9.76711 48.8042 9.94876C48.8042 10.1216 48.836 10.2678 48.9017 10.3852C48.9675 10.5048 49.0559 10.5979 49.167 10.6643C49.278 10.7308 49.4095 10.7795 49.5592 10.8083C49.7088 10.8349 49.8629 10.8482 50.0216 10.8482C50.4138 10.8482 50.7153 10.7839 50.9307 10.6577C51.1461 10.5314 51.3025 10.3785 51.4068 10.2013C51.5088 10.0241 51.5723 9.84464 51.5949 9.66077C51.6176 9.47912 51.6289 9.3329 51.6289 9.22435V8.50216Z" fill="#1D4E83"/>
    <path d="M57.1374 2.20398V5.8792H57.1782C57.4298 5.46936 57.7517 5.1703 58.1417 4.98421C58.5339 4.79812 58.9147 4.70508 59.2888 4.70508C59.8193 4.70508 60.2545 4.77597 60.5946 4.91775C60.9346 5.05953 61.2021 5.25448 61.3994 5.50481C61.5943 5.75514 61.7326 6.06086 61.812 6.41974C61.8913 6.77862 61.9298 7.17738 61.9298 7.61601V11.9603H59.9439V7.97268C59.9439 7.39005 59.851 6.95585 59.6651 6.66785C59.4792 6.37986 59.1482 6.23808 58.6722 6.23808C58.1326 6.23808 57.7404 6.39537 57.4978 6.70994C57.2553 7.02452 57.1351 7.54069 57.1351 8.26067V11.9625H55.1492V2.20398H57.1374Z" fill="#1D4E83"/>
    <path d="M63.3586 7.06663C63.3858 6.61249 63.5037 6.23367 63.7077 5.93239C63.9117 5.6311 64.1747 5.38963 64.4898 5.20797C64.8072 5.02632 65.1631 4.89561 65.5598 4.81808C65.9566 4.74054 66.3533 4.70288 66.7546 4.70288C67.1173 4.70288 67.4868 4.72725 67.8586 4.7782C68.2304 4.82915 68.5727 4.92663 68.8787 5.07284C69.1871 5.21905 69.4387 5.42064 69.6337 5.67984C69.8286 5.93903 69.9261 6.28241 69.9261 6.70996V10.3852C69.9261 10.7042 69.9442 11.0099 69.9828 11.3001C70.019 11.5925 70.0848 11.8096 70.1777 11.9558H68.1646C68.1261 11.8473 68.0966 11.7343 68.074 11.6213C68.0513 11.5084 68.0354 11.3909 68.0241 11.2735C67.7067 11.5925 67.3349 11.8163 66.9064 11.9426C66.478 12.071 66.0405 12.1331 65.5916 12.1331C65.247 12.1331 64.9251 12.091 64.6281 12.0112C64.3289 11.9293 64.0682 11.8008 63.846 11.628C63.6216 11.4552 63.447 11.2359 63.3223 10.9722C63.1976 10.7086 63.1342 10.394 63.1342 10.0307C63.1342 9.62976 63.2067 9.29968 63.3518 9.04048C63.4969 8.78129 63.6828 8.57305 63.9117 8.42019C64.1407 8.26512 64.4014 8.14992 64.6939 8.07239C64.9863 7.99485 65.2833 7.93282 65.5825 7.88851C65.8818 7.84421 66.1742 7.80655 66.4621 7.77996C66.75 7.75338 67.0085 7.71129 67.2306 7.65812C67.4551 7.60274 67.6319 7.52299 67.7611 7.41887C67.8926 7.31475 67.9515 7.16189 67.9425 6.96029C67.9425 6.75205 67.9085 6.58369 67.8382 6.46185C67.7679 6.34 67.675 6.24253 67.5593 6.17607C67.4437 6.1074 67.3077 6.06309 67.1536 6.03872C66.9994 6.01657 66.8339 6.00549 66.6571 6.00549C66.2649 6.00549 65.9588 6.08746 65.7344 6.25139C65.51 6.41532 65.3808 6.68781 65.3422 7.07106H63.3586V7.06663ZM67.9425 8.50216C67.8586 8.57526 67.7543 8.63286 67.6274 8.67274C67.5004 8.71261 67.3667 8.74806 67.2216 8.77464C67.0765 8.80123 66.9269 8.8256 66.7682 8.84332C66.6095 8.86104 66.4508 8.88541 66.2921 8.91199C66.1425 8.93858 65.9951 8.97624 65.8523 9.02054C65.7072 9.06707 65.5825 9.12688 65.4737 9.20442C65.3672 9.28195 65.281 9.37943 65.2153 9.49905C65.1495 9.61647 65.1178 9.76711 65.1178 9.94876C65.1178 10.1216 65.1495 10.2678 65.2153 10.3852C65.281 10.5048 65.3694 10.5979 65.4805 10.6643C65.5916 10.7308 65.7231 10.7795 65.8727 10.8083C66.0223 10.8349 66.1765 10.8482 66.3352 10.8482C66.7274 10.8482 67.0289 10.7839 67.2442 10.6577C67.4596 10.5314 67.616 10.3785 67.7203 10.2013C67.8223 10.0241 67.8858 9.84464 67.9085 9.66077C67.9311 9.47912 67.9425 9.3329 67.9425 9.22435V8.50216Z" fill="#1D4E83"/>
    <path d="M73.451 2.20398V5.75514H73.4782C73.7207 5.39183 74.0495 5.12377 74.4643 4.95541C74.8792 4.78705 75.3099 4.70286 75.7565 4.70286C76.1192 4.70286 76.4797 4.77597 76.8333 4.92218C77.187 5.06839 77.5066 5.29214 77.79 5.59121C78.0734 5.89028 78.3046 6.27574 78.4815 6.74539C78.6583 7.21504 78.7467 7.7733 78.7467 8.41796C78.7467 9.06483 78.6583 9.62309 78.4815 10.0905C78.3046 10.5602 78.0734 10.9434 77.79 11.2447C77.5066 11.546 77.187 11.7675 76.8333 11.9137C76.4797 12.0599 76.1215 12.1331 75.7565 12.1331C75.226 12.1331 74.75 12.0511 74.3306 11.8872C73.9112 11.7232 73.5938 11.4463 73.3807 11.0542H73.3535V11.9558H71.4673V2.20398H73.451ZM76.6656 7.5717C76.5998 7.29922 76.4978 7.05775 76.3573 6.8473C76.2167 6.63684 76.0422 6.47069 75.8336 6.34885C75.625 6.22479 75.3711 6.16498 75.0719 6.16498C74.784 6.16498 74.5323 6.22701 74.317 6.34885C74.1016 6.47069 73.9248 6.63684 73.7865 6.8473C73.6459 7.05775 73.5439 7.29922 73.4782 7.5717C73.4124 7.84419 73.3807 8.13218 73.3807 8.43125C73.3807 8.72367 73.4124 9.00502 73.4782 9.2775C73.5439 9.54999 73.6459 9.79146 73.7865 10.0019C73.927 10.2124 74.1039 10.3785 74.317 10.5004C74.5301 10.6222 74.7817 10.6842 75.0719 10.6842C75.3711 10.6842 75.625 10.6222 75.8336 10.5004C76.0444 10.3785 76.219 10.2124 76.3573 10.0019C76.4978 9.79146 76.5998 9.54999 76.6656 9.2775C76.7313 9.00502 76.7631 8.72146 76.7631 8.43125C76.7631 8.13218 76.7291 7.8464 76.6656 7.5717Z" fill="#1D4E83"/>
    <path d="M79.9213 7.06663C79.9485 6.61249 80.0664 6.23367 80.2704 5.93239C80.4744 5.6311 80.7374 5.38963 81.0525 5.20797C81.3699 5.02632 81.7258 4.89561 82.1225 4.81808C82.5193 4.74054 82.916 4.70288 83.3172 4.70288C83.68 4.70288 84.0495 4.72725 84.4213 4.7782C84.7931 4.82915 85.1354 4.92663 85.4414 5.07284C85.7497 5.21905 86.0014 5.42064 86.1963 5.67984C86.3913 5.93903 86.4888 6.28241 86.4888 6.70996V10.3852C86.4888 10.7042 86.5069 11.0099 86.5455 11.3001C86.5817 11.5925 86.6475 11.8096 86.7404 11.9558H84.7273C84.6888 11.8473 84.6593 11.7343 84.6366 11.6213C84.614 11.5084 84.5981 11.3909 84.5868 11.2735C84.2694 11.5925 83.8976 11.8163 83.4691 11.9426C83.0407 12.071 82.6031 12.1331 82.1543 12.1331C81.8097 12.1331 81.4878 12.091 81.1908 12.0112C80.8915 11.9293 80.6308 11.8008 80.4087 11.628C80.1842 11.4552 80.0097 11.2359 79.885 10.9722C79.7603 10.7086 79.6968 10.394 79.6968 10.0307C79.6968 9.62976 79.7694 9.29968 79.9145 9.04048C80.0596 8.78129 80.2455 8.57305 80.4744 8.42019C80.7034 8.26512 80.9641 8.14992 81.2565 8.07239C81.549 7.99485 81.846 7.93282 82.1452 7.88851C82.4444 7.84421 82.7369 7.80655 83.0248 7.77996C83.3127 7.75338 83.5712 7.71129 83.7933 7.65812C84.0178 7.60274 84.1946 7.52299 84.3238 7.41887C84.4553 7.31475 84.5142 7.16189 84.5052 6.96029C84.5052 6.75205 84.4712 6.58369 84.4009 6.46185C84.3306 6.34 84.2377 6.24253 84.122 6.17607C84.0064 6.1074 83.8704 6.06309 83.7162 6.03872C83.5621 6.01657 83.3966 6.00549 83.2198 6.00549C82.8276 6.00549 82.5215 6.08746 82.2971 6.25139C82.0727 6.41532 81.9434 6.68781 81.9049 7.07106H79.9213V7.06663ZM84.5074 8.50216C84.4235 8.57526 84.3193 8.63286 84.1923 8.67274C84.0654 8.71261 83.9316 8.74806 83.7865 8.77464C83.6414 8.80123 83.4918 8.8256 83.3331 8.84332C83.1744 8.86104 83.0157 8.88541 82.857 8.91199C82.7074 8.93858 82.5601 8.97624 82.4172 9.02054C82.2722 9.06707 82.1475 9.12688 82.0387 9.20442C81.9321 9.28195 81.846 9.37943 81.7802 9.49905C81.7145 9.61647 81.6827 9.76711 81.6827 9.94876C81.6827 10.1216 81.7145 10.2678 81.7802 10.3852C81.846 10.5048 81.9344 10.5979 82.0455 10.6643C82.1565 10.7308 82.288 10.7795 82.4376 10.8083C82.5873 10.8349 82.7414 10.8482 82.9001 10.8482C83.2923 10.8482 83.5938 10.7839 83.8092 10.6577C84.0246 10.5314 84.181 10.3785 84.2853 10.2013C84.3873 10.0241 84.4508 9.84464 84.4734 9.66077C84.4961 9.47912 84.5074 9.3329 84.5074 9.22435V8.50216Z" fill="#1D4E83"/>
    <path d="M92 4.89558V6.19375H90.5468V9.69175C90.5468 10.0196 90.6035 10.2389 90.7146 10.3475C90.8257 10.456 91.0501 10.5114 91.3856 10.5114C91.4967 10.5114 91.6033 10.507 91.7076 10.4981C91.8096 10.4893 91.9071 10.476 92 10.4582V11.9602C91.8322 11.9868 91.6463 12.0068 91.44 12.0156C91.236 12.0245 91.0343 12.0289 90.8393 12.0289C90.531 12.0289 90.2408 12.009 89.9665 11.9669C89.6922 11.927 89.4496 11.8473 89.2388 11.7276C89.0302 11.6102 88.8625 11.4419 88.7423 11.2225C88.6199 11.0032 88.5609 10.7174 88.5609 10.363V6.19154H87.3594V4.89336H88.5609V2.77551H90.5468V4.89336H92V4.89558Z" fill="#1D4E83"/>
    <path d="M42.9616 14.6119C43.4376 14.6119 43.8706 14.654 44.2628 14.7338C44.655 14.8157 44.9905 14.9509 45.2694 15.137C45.5482 15.3231 45.7658 15.5712 45.92 15.8813C46.0742 16.1915 46.1512 16.5725 46.1512 17.0289C46.1512 17.5207 46.0379 17.9305 45.8089 18.2584C45.5799 18.5862 45.2422 18.8543 44.7956 19.0647C45.4099 19.2375 45.8701 19.541 46.1716 19.973C46.4732 20.405 46.625 20.9278 46.625 21.537C46.625 22.0288 46.5276 22.4542 46.3326 22.8153C46.1376 23.1742 45.8747 23.4688 45.5437 23.697C45.2127 23.9252 44.8364 24.0935 44.4124 24.2021C43.9885 24.3106 43.5532 24.366 43.1044 24.366H38.2689V14.6119H42.9616ZM42.6827 18.5596C43.0749 18.5596 43.3946 18.4688 43.6462 18.2872C43.8978 18.1055 44.0248 17.8086 44.0248 17.3988C44.0248 17.1706 43.984 16.9845 43.9001 16.8383C43.8162 16.6921 43.7051 16.5791 43.5646 16.4972C43.424 16.4152 43.2631 16.3576 43.0817 16.3266C42.9003 16.2956 42.7122 16.2801 42.515 16.2801H40.4611V18.5619H42.6827V18.5596ZM42.8097 22.6979C43.025 22.6979 43.2291 22.6779 43.424 22.6358C43.619 22.5937 43.7913 22.5273 43.9409 22.432C44.0905 22.3368 44.2084 22.2061 44.2968 22.0421C44.3852 21.8782 44.4306 21.6677 44.4306 21.413C44.4306 20.9123 44.2855 20.5556 43.9976 20.3408C43.7097 20.1281 43.3265 20.0195 42.8505 20.0195H40.4611V22.6979H42.8097Z" fill="#1D4E83"/>
    <path d="M47.9538 16.2092V14.6119H49.9397V16.2092H47.9538ZM49.9374 17.3036V24.366H47.9515V17.3036H49.9374Z" fill="#1D4E83"/>
    <path d="M53.1753 22.6093C53.2638 22.7599 53.3771 22.8817 53.5177 22.977C53.6582 23.0723 53.8192 23.1431 54.0005 23.1897C54.1819 23.2362 54.3701 23.2583 54.5673 23.2583C54.7078 23.2583 54.8529 23.2428 55.0071 23.2096C55.1612 23.1786 55.2995 23.1276 55.4265 23.059C55.5512 22.9903 55.6577 22.8995 55.7416 22.7865C55.8255 22.6735 55.8663 22.5295 55.8663 22.3567C55.8663 22.0643 55.6691 21.8472 55.2723 21.701C54.8756 21.5548 54.3247 21.4085 53.6151 21.2645C53.3272 21.2003 53.0439 21.125 52.7695 21.0386C52.4952 20.9522 52.2504 20.8392 52.035 20.6974C51.8197 20.5556 51.6474 20.3784 51.5182 20.1658C51.3867 19.9509 51.3232 19.6895 51.3232 19.3793C51.3232 18.923 51.4139 18.5508 51.5952 18.2584C51.7766 17.9659 52.0169 17.7378 52.3161 17.5694C52.6154 17.401 52.9486 17.2836 53.3227 17.2149C53.6945 17.1463 54.0776 17.113 54.4698 17.113C54.862 17.113 55.2406 17.1485 55.6101 17.2216C55.9774 17.2947 56.3061 17.4165 56.5963 17.5915C56.8842 17.7643 57.1245 17.9947 57.3172 18.2805C57.5076 18.5663 57.6232 18.9296 57.6595 19.366H55.7733C55.7461 18.9916 55.601 18.7391 55.3403 18.6084C55.0796 18.4755 54.7713 18.4112 54.4177 18.4112C54.3066 18.4112 54.1842 18.4179 54.0549 18.4312C53.9235 18.4444 53.8056 18.4755 53.699 18.5198C53.5925 18.5641 53.5018 18.6305 53.427 18.7169C53.3522 18.8033 53.3159 18.9207 53.3159 19.0647C53.3159 19.2375 53.3816 19.3793 53.5109 19.4879C53.6423 19.5964 53.8124 19.685 54.0209 19.7537C54.2295 19.8224 54.4698 19.8844 54.7396 19.9376C55.0094 19.993 55.2859 20.0506 55.5648 20.1148C55.8527 20.179 56.1361 20.2566 56.4104 20.3474C56.6847 20.4382 56.9295 20.5601 57.1449 20.7085C57.3602 20.8591 57.5325 21.0452 57.6617 21.269C57.7932 21.4927 57.8567 21.7674 57.8567 22.0953C57.8567 22.5605 57.7615 22.9482 57.5711 23.2628C57.3806 23.5773 57.1313 23.8299 56.823 24.0204C56.5146 24.2109 56.1633 24.3461 55.7665 24.4236C55.3698 24.5011 54.9663 24.5388 54.5582 24.5388C54.1388 24.5388 53.7285 24.4989 53.3272 24.417C52.926 24.335 52.57 24.1976 52.2572 24.0071C51.9444 23.8166 51.6882 23.5641 51.4887 23.2495C51.2892 22.9349 51.1781 22.5406 51.16 22.0687H53.0461C53.0416 22.2792 53.0869 22.4586 53.1753 22.6093Z" fill="#1D4E83"/>
    <path d="M60.8962 17.3036V18.2872H60.937C61.1887 17.8773 61.5151 17.5783 61.9164 17.3922C62.3176 17.2061 62.728 17.113 63.1474 17.113C63.6778 17.113 64.1131 17.1839 64.4532 17.3257C64.7932 17.4675 65.0607 17.6624 65.2579 17.9128C65.4529 18.1631 65.5912 18.4688 65.6705 18.8277C65.7499 19.1866 65.7884 19.5853 65.7884 20.0218V24.366H63.8025V20.3762C63.8025 19.7936 63.7096 19.3594 63.5237 19.0714C63.3378 18.7834 63.0068 18.6416 62.5307 18.6416C61.9912 18.6416 61.599 18.7989 61.3564 19.1135C61.1139 19.428 60.9937 19.9442 60.9937 20.6642V24.366H59.0078V17.3036H60.8962Z" fill="#1D4E83"/>
    <path d="M67.3549 16.2092V14.6119H69.3408V16.2092H67.3549ZM69.3408 17.3036V24.366H67.3549V17.3036H69.3408Z" fill="#1D4E83"/>
    <path d="M72.5759 22.6093C72.6644 22.7599 72.7777 22.8817 72.9183 22.977C73.0588 23.0723 73.2198 23.1431 73.4011 23.1897C73.5825 23.2362 73.7707 23.2583 73.9679 23.2583C74.1084 23.2583 74.2535 23.2428 74.4077 23.2096C74.5618 23.1786 74.7001 23.1276 74.8271 23.059C74.9518 22.9903 75.0583 22.8995 75.1422 22.7865C75.2261 22.6735 75.2669 22.5295 75.2669 22.3567C75.2669 22.0643 75.0696 21.8472 74.6729 21.701C74.2762 21.5548 73.7253 21.4085 73.0157 21.2645C72.7278 21.2003 72.4445 21.125 72.1701 21.0386C71.8958 20.9522 71.651 20.8392 71.4356 20.6974C71.2203 20.5556 71.048 20.3784 70.9188 20.1658C70.7873 19.9509 70.7238 19.6895 70.7238 19.3793C70.7238 18.923 70.8145 18.5508 70.9958 18.2584C71.1772 17.9659 71.4175 17.7378 71.7167 17.5694C72.016 17.401 72.3492 17.2836 72.7233 17.2149C73.0951 17.1463 73.4782 17.113 73.8704 17.113C74.2626 17.113 74.6412 17.1485 75.0107 17.2216C75.378 17.2947 75.7067 17.4165 75.9969 17.5915C76.2848 17.7643 76.5251 17.9947 76.7178 18.2805C76.9082 18.5663 77.0238 18.9296 77.0601 19.366H75.1739C75.1467 18.9916 75.0016 18.7391 74.7409 18.6084C74.4802 18.4755 74.1719 18.4112 73.8183 18.4112C73.7072 18.4112 73.5848 18.4179 73.4555 18.4312C73.3241 18.4444 73.2062 18.4755 73.0996 18.5198C72.9931 18.5641 72.9024 18.6305 72.8276 18.7169C72.7528 18.8033 72.7165 18.9207 72.7165 19.0647C72.7165 19.2375 72.7822 19.3793 72.9115 19.4879C73.0429 19.5964 73.213 19.685 73.4215 19.7537C73.6301 19.8224 73.8704 19.8844 74.1402 19.9376C74.4099 19.993 74.6865 20.0506 74.9654 20.1148C75.2533 20.179 75.5366 20.2566 75.811 20.3474C76.0853 20.4382 76.3301 20.5601 76.5455 20.7085C76.7608 20.8591 76.9331 21.0452 77.0623 21.269C77.1938 21.4927 77.2573 21.7674 77.2573 22.0953C77.2573 22.5605 77.1621 22.9482 76.9717 23.2628C76.7812 23.5773 76.5319 23.8299 76.2236 24.0204C75.9152 24.2109 75.5639 24.3461 75.1671 24.4236C74.7704 24.5011 74.3669 24.5388 73.9588 24.5388C73.5394 24.5388 73.1291 24.4989 72.7278 24.417C72.3266 24.335 71.9707 24.1976 71.6578 24.0071C71.345 23.8166 71.0888 23.5641 70.8893 23.2495C70.6898 22.9349 70.5787 22.5406 70.5606 22.0687H72.4467C72.4422 22.2792 72.4875 22.4586 72.5759 22.6093Z" fill="#1D4E83"/>
    <path d="M17.0414 5.6045L10.4558 12.04C9.59884 12.8774 8.2069 12.8774 7.34997 12.04C6.49304 11.2026 6.49304 9.84241 7.34997 9.00502L11.9951 4.46582C12.691 4.66298 13.3462 5.03073 13.8925 5.56462L13.9356 5.60671C14.7926 6.44189 16.1845 6.44189 17.0414 5.6045Z" fill="#104075"/>
    <path d="M30.9764 10.5224C30.9764 12.8463 30.0492 15.0306 28.3693 16.6744L19.4328 25.4072C18.3469 26.4683 16.9187 27 15.4905 27C14.0623 27 12.6341 26.4683 11.5482 25.4072L4.45697 18.4777C5.9736 19.9575 7.99123 20.7705 10.1336 20.7705C10.9927 20.7705 11.8293 20.6398 12.6227 20.3873L14.6517 22.37C15.1142 22.8219 15.8645 22.8219 16.327 22.37L25.2635 13.6372C26.1159 12.8042 26.5852 11.6966 26.5852 10.5202C26.5852 9.34388 26.1159 8.23622 25.2635 7.40326L23.3797 5.56233C21.6431 3.86539 18.8207 3.86539 17.0842 5.56233L17.0434 5.6022C17.9003 4.76481 17.9003 3.4046 17.0434 2.56721L17.0003 2.52734C16.5333 2.07098 16.0255 1.67665 15.4905 1.34214C18.9091 -0.780141 23.5066 -0.385814 26.4855 2.52734L28.3693 4.36827C30.0492 6.01204 30.9764 8.19856 30.9764 10.5224Z" fill="#104075"/>
    <path d="M17.0409 5.60441C16.184 6.4418 14.7921 6.44401 13.9351 5.60441L13.8921 5.56453C13.3457 5.03064 12.6883 4.6629 11.9946 4.46573L13.9759 2.52954C14.4429 2.07318 14.9507 1.67886 15.4858 1.34656C16.023 1.67886 16.5286 2.0754 16.9956 2.53175L17.0387 2.57163C17.8979 3.40681 17.8978 4.76702 17.0409 5.60441Z" fill="#8CC63C"/>
    <path d="M12.62 20.3895C11.8266 20.642 10.9878 20.7727 10.1309 20.7727C7.98627 20.7727 5.9709 19.9575 4.45428 18.4799L2.60894 16.6766C2.59533 16.6633 2.58173 16.65 2.5704 16.6367C1.75201 15.7949 1.76561 14.4657 2.60894 13.6416C3.46586 12.8042 4.85781 12.8042 5.71474 13.6416L7.55328 15.4382C7.55554 15.4404 7.55554 15.4404 7.55781 15.4404L12.62 20.3895Z" fill="#104075"/>
    <path d="M5.71285 7.40564C4.86046 8.2386 4.39119 9.34626 4.39119 10.5226C4.39119 11.6989 4.86046 12.8066 5.71285 13.6396C4.85593 12.8022 3.46398 12.8022 2.60706 13.6396C1.76373 14.4637 1.75013 15.7929 2.56852 16.6347C0.911337 14.9953 0 12.8265 0 10.5226C0 8.19872 0.927205 6.01442 2.60706 4.37065L4.49094 2.52972C7.47205 -0.383434 12.0673 -0.777762 15.4859 1.34673C14.9509 1.67903 14.4431 2.07336 13.9761 2.52972L11.9947 4.46591C10.4849 4.03613 8.78465 4.40388 7.59673 5.56471L5.71285 7.40564Z" fill="#8CC63C"/>
    <path d="M23.0098 11.4395L15.8143 18.471C14.903 19.3615 13.8103 20.0128 12.6201 20.3894L7.55334 15.4382C8.24251 16.1094 9.15612 16.4794 10.1287 16.4794C11.1035 16.4794 12.0193 16.1094 12.7085 15.436L19.904 8.40453C20.7609 7.56714 22.1529 7.56714 23.0098 8.40453C23.869 9.24192 23.869 10.5999 23.0098 11.4395Z" fill="#8CC63C"/>
</svg>
