<svg width="34" height="30" viewBox="0 0 34 30" fill="none" xmlns="http://www.w3.org/2000/svg">
    <path d="M18.5598 6.27806L11.3874 13.3868C10.4541 14.3118 8.93817 14.3118 8.00489 13.3868C7.07161 12.4618 7.07161 10.9593 8.00489 10.0343L13.0638 5.02026C13.8218 5.23805 14.5354 5.64427 15.1304 6.23401L15.1773 6.28051C16.1106 7.20305 17.6265 7.20305 18.5598 6.27806Z" fill="#104075"/>
    <path d="M33.7364 11.7109C33.7364 14.2778 32.7266 16.6907 30.8971 18.5064L21.1643 28.1528C19.9817 29.3249 18.4262 29.9122 16.8708 29.9122C15.3153 29.9122 13.7598 29.3249 12.5772 28.1528L4.85419 20.4983C6.50594 22.133 8.70334 23.031 11.0365 23.031C11.9723 23.031 12.8833 22.8867 13.7475 22.6077L15.9572 24.7978C16.4609 25.297 17.2781 25.297 17.7818 24.7978L27.5146 15.1515C28.4429 14.2314 28.954 13.0078 28.954 11.7084C28.954 10.409 28.4429 9.18549 27.5146 8.26539L25.4628 6.23187C23.5716 4.35741 20.4977 4.35741 18.6065 6.23187L18.562 6.27591C19.4953 5.35092 19.4953 3.84842 18.562 2.92342L18.5151 2.87937C18.0065 2.37528 17.4534 1.9397 16.8708 1.57019C20.594 -0.774108 25.6011 -0.338528 28.8454 2.87937L30.8971 4.91289C32.7266 6.72862 33.7364 9.14389 33.7364 11.7109Z" fill="#104075"/>
    <path d="M18.559 6.27823C17.6257 7.20322 16.1098 7.20567 15.1765 6.27823L15.1296 6.23418C14.5346 5.64444 13.8186 5.23822 13.063 5.02043L15.2209 2.88169C15.7296 2.37759 16.2826 1.94201 16.8653 1.57495C17.4504 1.94201 18.001 2.38004 18.5096 2.88414L18.5565 2.92818C19.4923 3.85073 19.4923 5.35324 18.559 6.27823Z" fill="#8CC63C"/>
    <path d="M13.7443 22.6099C12.8801 22.8889 11.9666 23.0333 11.0333 23.0333C8.69768 23.0333 6.50275 22.1328 4.85099 20.5006L2.84123 18.5086C2.82642 18.494 2.81161 18.4793 2.79926 18.4646C1.90796 17.5347 1.92277 16.0665 2.84123 15.1561C3.77451 14.2312 5.29047 14.2312 6.22375 15.1561L8.2261 17.1407C8.22857 17.1432 8.22857 17.1432 8.23104 17.1432L13.7443 22.6099Z" fill="#104075"/>
    <path d="M6.22185 8.26784C5.29351 9.18794 4.78243 10.4115 4.78243 11.7109C4.78243 13.0103 5.29351 14.2338 6.22185 15.1539C5.28857 14.2289 3.77262 14.2289 2.83934 15.1539C1.92087 16.0642 1.90606 17.5325 2.79736 18.4624C0.992534 16.6515 0 14.2558 0 11.7109C0 9.1439 1.00982 6.73108 2.83934 4.91535L4.89107 2.88183C8.13779 -0.336071 13.1424 -0.771652 16.8657 1.57509C16.283 1.94215 15.7299 2.37774 15.2213 2.88183L13.0634 5.02058C11.4191 4.54584 9.56733 4.95206 8.27358 6.23432L6.22185 8.26784Z" fill="#8CC63C"/>
    <path d="M25.0598 12.7242L17.2232 20.4912C16.2307 21.475 15.0407 22.1944 13.7444 22.6104L8.22626 17.1412C8.97683 17.8827 9.97183 18.2913 11.031 18.2913C12.0927 18.2913 13.0902 17.8826 13.8407 17.1387L21.6773 9.37172C22.6106 8.44673 24.1265 8.44673 25.0598 9.37172C25.9956 10.2967 25.9956 11.7968 25.0598 12.7242Z" fill="#8CC63C"/>
</svg>