<svg width="40" height="40" viewBox="0 0 40 40" fill="none" xmlns="http://www.w3.org/2000/svg">
  <circle cx="20" cy="20" r="20" fill="#A0D061" fill-opacity="0.2"/>
  <circle cx="20" cy="20" r="12" fill="white"/>
  <path
    d="M20 33.8649C18.1888 33.8679 16.3949 33.5132 14.7211 32.8211C13.0474 32.1289 11.5268 31.1131 10.2467 29.8318C4.86846 24.4536 4.86846 15.7032 10.2467 10.325C12.8519 7.71977 16.3156 6.28418 20 6.28418C23.6845 6.28418 27.1482 7.71866 29.7534 10.325C35.1316 15.7032 35.1316 24.4536 29.7534 29.8318C28.4733 31.1131 26.9527 32.1289 25.279 32.8211C23.6052 33.5132 21.8113 33.8679 20 33.8649ZM20 8.49108C18.4778 8.48688 16.9698 8.78471 15.5634 9.36734C14.1571 9.94996 12.8803 10.8058 11.8069 11.8853C7.29053 16.4028 7.29053 23.7529 11.8069 28.2715C16.3245 32.7879 23.6745 32.7879 28.1932 28.2715C32.7096 23.754 32.7096 16.4039 28.1932 11.8853C27.1197 10.806 25.8428 9.95029 24.4365 9.36768C23.0302 8.78507 21.5223 8.48712 20 8.49108ZM28.9733 29.0516H28.9843H28.9733Z"
    fill="#194175"/>
  <path
    d="M18.3448 25.3726C18.1999 25.3727 18.0563 25.3443 17.9225 25.2888C17.7886 25.2333 17.667 25.1519 17.5646 25.0493L12.8827 20.3674C12.7803 20.2649 12.699 20.1433 12.6436 20.0094C12.5881 19.8756 12.5596 19.7321 12.5596 19.5872C12.5596 19.4423 12.5881 19.2989 12.6436 19.165C12.699 19.0312 12.7803 18.9095 12.8827 18.8071C12.9852 18.7046 13.1068 18.6234 13.2406 18.5679C13.3745 18.5125 13.518 18.4839 13.6629 18.4839C13.8077 18.4839 13.9512 18.5125 14.0851 18.5679C14.2189 18.6234 14.3405 18.7046 14.443 18.8071L18.3448 22.7089L25.5591 15.4945C25.6616 15.3921 25.7832 15.3108 25.9171 15.2554C26.0509 15.1999 26.1944 15.1714 26.3393 15.1714C26.4841 15.1714 26.6276 15.1999 26.7615 15.2554C26.8953 15.3108 27.017 15.3921 27.1194 15.4945C27.2218 15.597 27.3031 15.7186 27.3586 15.8525C27.414 15.9863 27.4425 16.1298 27.4425 16.2747C27.4425 16.4196 27.414 16.563 27.3586 16.6969C27.3031 16.8307 27.2218 16.9524 27.1194 17.0548L19.1249 25.0493C19.0226 25.1519 18.901 25.2333 18.7671 25.2888C18.6332 25.3443 18.4897 25.3727 18.3448 25.3726Z"
    fill="#E3EFCB" stroke="#194175" stroke-width="0.3" stroke-miterlimit="10" stroke-linecap="round"
    stroke-linejoin="round"/>
</svg>
