<svg width="40" height="40" viewBox="0 0 40 40" fill="none" xmlns="http://www.w3.org/2000/svg">
  <circle cx="20" cy="20" r="20" fill="#F5F7FA"/>
  <path
    d="M29.4795 7.92969L26.3195 9.20969L23.1595 7.92969L19.9995 9.20969L16.8395 7.92969L13.6795 9.20969L10.5195 7.92969V24.0797L29.0695 23.2497L29.4795 17.9697V7.92969Z"
    fill="white"/>
  <path
    d="M10.5195 32.0697V22.6897C19.7295 21.0497 25.7995 15.8597 29.5195 7.92969V32.0697L26.3595 30.7897L23.1995 32.0697L19.9995 30.7897L16.8395 32.0697L13.6795 30.7897L10.5195 32.0697Z"
    fill="#E3EFCB"/>
  <path
    d="M10.5199 33.1098C10.3125 33.1114 10.1099 33.0485 9.93986 32.9298C9.79994 32.8338 9.68512 32.7055 9.60508 32.5559C9.52503 32.4062 9.48208 32.2395 9.47986 32.0698V7.92984C9.48208 7.76013 9.52503 7.59345 9.60508 7.44379C9.68512 7.29414 9.79994 7.16589 9.93986 7.06984C10.0829 6.96639 10.2507 6.90265 10.4264 6.88509C10.602 6.86753 10.7792 6.89677 10.9399 6.96984L13.6799 8.08984L16.4499 6.99984C16.7002 6.89968 16.9795 6.89968 17.2299 6.99984L19.9999 8.08984L22.7699 6.99984C23.0202 6.89968 23.2995 6.89968 23.5499 6.99984L26.3199 8.11984L29.0899 6.99984C29.2505 6.92677 29.4277 6.89753 29.6033 6.91509C29.779 6.93265 29.9468 6.99639 30.0899 7.09984C30.2298 7.19589 30.3446 7.32414 30.4246 7.47379C30.5047 7.62345 30.5476 7.79013 30.5499 7.95984V21.3598C30.5499 21.6357 30.4403 21.9002 30.2452 22.0952C30.0502 22.2903 29.7857 22.3998 29.5099 22.3998C29.234 22.3998 28.9695 22.2903 28.7745 22.0952C28.5794 21.9002 28.4699 21.6357 28.4699 21.3598V9.47984L26.7399 10.1798C26.4895 10.28 26.2102 10.28 25.9599 10.1798L23.1599 9.05984L20.3899 10.1798C20.1395 10.28 19.8602 10.28 19.6099 10.1798L16.8399 9.05984L14.0699 10.1798C13.8195 10.28 13.5402 10.28 13.2899 10.1798L11.5599 9.47984V30.4798L13.2899 29.7798C13.5402 29.6797 13.8195 29.6797 14.0699 29.7798L16.8399 30.8998L19.6099 29.7798C19.8602 29.6797 20.1395 29.6797 20.3899 29.7798L23.1599 30.8998L25.9299 29.7798C26.1802 29.6797 26.4595 29.6797 26.7099 29.7798L28.4399 30.4798V25.4798C28.4399 25.204 28.5494 24.9395 28.7445 24.7444C28.9395 24.5494 29.204 24.4398 29.4799 24.4398C29.7557 24.4398 30.0202 24.5494 30.2152 24.7444C30.4103 24.9395 30.5199 25.204 30.5199 25.4798V32.0698C30.5176 32.2395 30.4747 32.4062 30.3946 32.5559C30.3146 32.7055 30.1998 32.8338 30.0599 32.9298C29.9168 33.0333 29.749 33.097 29.5733 33.1146C29.3977 33.1321 29.2205 33.1029 29.0599 33.0298L26.2899 31.9098L23.5499 32.9998C23.2995 33.1 23.0202 33.1 22.7699 32.9998L19.9999 31.9098L17.2299 32.9998C16.9795 33.1 16.7002 33.1 16.4499 32.9998L13.6799 31.9098L10.9099 32.9998C10.7887 33.0627 10.656 33.1002 10.5199 33.1098Z"
    fill="#194175"/>
  <path
    d="M26.37 14.6493H13.55C13.3378 14.6493 13.1343 14.565 12.9843 14.415C12.8343 14.265 12.75 14.0615 12.75 13.8493C12.75 13.6371 12.8343 13.4337 12.9843 13.2836C13.1343 13.1336 13.3378 13.0493 13.55 13.0493H26.37C26.5822 13.0493 26.7857 13.1336 26.9357 13.2836C27.0857 13.4337 27.17 13.6371 27.17 13.8493C27.17 14.0615 27.0857 14.265 26.9357 14.415C26.7857 14.565 26.5822 14.6493 26.37 14.6493Z"
    fill="#5A6472"/>
  <path
    d="M20.67 22.8603H13.55C13.3378 22.8603 13.1343 22.776 12.9843 22.6259C12.8343 22.4759 12.75 22.2724 12.75 22.0603C12.75 21.8481 12.8343 21.6446 12.9843 21.4946C13.1343 21.3445 13.3378 21.2603 13.55 21.2603H20.67C20.8822 21.2603 21.0857 21.3445 21.2357 21.4946C21.3857 21.6446 21.47 21.8481 21.47 22.0603C21.47 22.2724 21.3857 22.4759 21.2357 22.6259C21.0857 22.776 20.8822 22.8603 20.67 22.8603Z"
    fill="#5A6472"/>
  <path
    d="M26.0599 22.8603H23.9999C23.7878 22.8603 23.5843 22.776 23.4343 22.6259C23.2842 22.4759 23.2 22.2724 23.2 22.0603C23.2 21.8481 23.2842 21.6446 23.4343 21.4946C23.5843 21.3445 23.7878 21.2603 23.9999 21.2603H25.9999C26.2121 21.2603 26.4156 21.3445 26.5656 21.4946C26.7157 21.6446 26.7999 21.8481 26.7999 22.0603C26.7999 22.2724 26.7157 22.4759 26.5656 22.6259C26.4156 22.776 26.2121 22.8603 25.9999 22.8603H26.0599Z"
    fill="#5A6472"/>
  <path
    d="M20.67 19.1703H13.55C13.3378 19.1703 13.1343 19.086 12.9843 18.936C12.8343 18.786 12.75 18.5825 12.75 18.3703C12.75 18.1581 12.8343 17.9547 12.9843 17.8046C13.1343 17.6546 13.3378 17.5703 13.55 17.5703H20.67C20.8822 17.5703 21.0857 17.6546 21.2357 17.8046C21.3857 17.9547 21.47 18.1581 21.47 18.3703C21.47 18.5825 21.3857 18.786 21.2357 18.936C21.0857 19.086 20.8822 19.1703 20.67 19.1703Z"
    fill="#5A6472"/>
  <path
    d="M26.0599 19.1703H23.9999C23.7878 19.1703 23.5843 19.086 23.4343 18.936C23.2842 18.786 23.2 18.5825 23.2 18.3703C23.2 18.1581 23.2842 17.9547 23.4343 17.8046C23.5843 17.6546 23.7878 17.5703 23.9999 17.5703H25.9999C26.2121 17.5703 26.4156 17.6546 26.5656 17.8046C26.7157 17.9547 26.7999 18.1581 26.7999 18.3703C26.7999 18.5825 26.7157 18.786 26.5656 18.936C26.4156 19.086 26.2121 19.1703 25.9999 19.1703H26.0599Z"
    fill="#5A6472"/>
  <path
    d="M20.67 26.8798H13.55C13.3378 26.8798 13.1343 26.7955 12.9843 26.6455C12.8343 26.4954 12.75 26.292 12.75 26.0798C12.75 25.8676 12.8343 25.6641 12.9843 25.5141C13.1343 25.3641 13.3378 25.2798 13.55 25.2798H20.67C20.8822 25.2798 21.0857 25.3641 21.2357 25.5141C21.3857 25.6641 21.47 25.8676 21.47 26.0798C21.47 26.292 21.3857 26.4954 21.2357 26.6455C21.0857 26.7955 20.8822 26.8798 20.67 26.8798Z"
    fill="#5A6472"/>
  <path
    d="M26.0598 26.8798H23.9998C23.7877 26.8798 23.5842 26.7955 23.4341 26.6455C23.2841 26.4954 23.1998 26.292 23.1998 26.0798C23.1998 25.8676 23.2841 25.6641 23.4341 25.5141C23.5842 25.3641 23.7877 25.2798 23.9998 25.2798H25.9998C26.212 25.2798 26.4155 25.3641 26.5655 25.5141C26.7155 25.6641 26.7998 25.8676 26.7998 26.0798C26.7998 26.292 26.7155 26.4954 26.5655 26.6455C26.4155 26.7955 26.212 26.8798 25.9998 26.8798H26.0598Z"
    fill="#5A6472"/>
  <path
    d="M30.335 30.67C29.2798 30.67 28.2484 30.3571 27.371 29.7709C26.4937 29.1847 25.8099 28.3514 25.4061 27.3766C25.0023 26.4018 24.8967 25.3291 25.1025 24.2942C25.3084 23.2593 25.8165 22.3087 26.5626 21.5626C27.3087 20.8165 28.2593 20.3084 29.2942 20.1025C30.3291 19.8967 31.4018 20.0023 32.3766 20.4061C33.3515 20.8099 34.1847 21.4937 34.7709 22.371C35.3571 23.2484 35.67 24.2798 35.67 25.335C35.67 26.7499 35.1079 28.1069 34.1074 29.1074C33.1069 30.1079 31.7499 30.67 30.335 30.67Z"
    fill="#A0D061"/>
  <path
    d="M27.1494 26.0332H33.2918C33.4769 26.0332 33.6545 25.9596 33.7855 25.8287C33.9164 25.6977 33.99 25.5201 33.99 25.335C33.99 25.1498 33.9164 24.9722 33.7855 24.8412C33.6545 24.7103 33.4769 24.6367 33.2918 24.6367H27.1494C26.9642 24.6367 26.7866 24.7103 26.6557 24.8412C26.5248 24.9722 26.4512 25.1498 26.4512 25.335C26.4512 25.5201 26.5248 25.6977 26.6557 25.8287C26.7866 25.9596 26.9642 26.0332 27.1494 26.0332Z"
    fill="white"/>
  <path
    d="M29.4842 28.5213C29.5708 28.523 29.6568 28.5074 29.7373 28.4756C29.8179 28.4437 29.8913 28.3963 29.9533 28.3358C30.0186 28.2718 30.0705 28.1955 30.1059 28.1112C30.1414 28.0269 30.1596 27.9363 30.1596 27.8449C30.1596 27.7535 30.1414 27.6629 30.1059 27.5786C30.0705 27.4943 30.0186 27.4179 29.9533 27.3539L28.1095 25.3356L29.986 23.3282C30.0596 23.2639 30.1188 23.185 30.1599 23.0965C30.2011 23.008 30.2232 22.9118 30.2249 22.8142C30.2265 22.7166 30.2077 22.6197 30.1696 22.5298C30.1315 22.4399 30.075 22.359 30.0037 22.2923C29.9325 22.2256 29.848 22.1746 29.7557 22.1426C29.6635 22.1106 29.5656 22.0983 29.4683 22.1065C29.3711 22.1146 29.2766 22.1431 29.191 22.19C29.1054 22.237 29.0306 22.3013 28.9714 22.379L26.6476 24.8665C26.5255 24.9943 26.4574 25.1643 26.4574 25.341C26.4574 25.5178 26.5255 25.6878 26.6476 25.8156L28.9714 28.3031C29.036 28.3744 29.1153 28.4308 29.2039 28.4685C29.2924 28.5061 29.388 28.5242 29.4842 28.5213Z"
    fill="white"/>
</svg>
