<svg width="30" height="30" viewBox="0 0 30 30" fill="none" xmlns="http://www.w3.org/2000/svg">
    <g clip-path="url(#clip0_10325_1353)">
        <rect width="30" height="30" rx="15" transform="matrix(-1 8.74228e-08 8.74228e-08 1 30 0)" fill="white"/>
        <path d="M15 30C6.75 30 -5.90104e-07 23.25 -1.31134e-06 15C-2.03258e-06 6.75 6.75 -5.90104e-07 15 -1.31134e-06C23.25 -2.03258e-06 30 6.75 30 15C30 23.25 23.25 30 15 30ZM19.5 13.5L14.1 13.5L16.05 11.55C16.65 10.95 16.65 10.05 16.05 9.45C15.45 8.85 14.55 8.85 13.95 9.45L9.45 13.95C8.85 14.55 8.85 15.45 9.45 16.05L13.95 20.55C14.55 21.15 15.45 21.15 16.05 20.55C16.65 19.95 16.65 19.05 16.05 18.45L14.1 16.5L19.5 16.5C20.4 16.5 21 15.9 21 15C21 14.1 20.4 13.5 19.5 13.5Z" fill="#104075"/>
    </g>
    <defs>
        <clipPath id="clip0_10325_1353">
            <rect width="30" height="30" rx="15" transform="matrix(-1 8.74228e-08 8.74228e-08 1 30 0)" fill="white"/>
        </clipPath>
    </defs>
</svg>
