<svg width="20" height="20" viewBox="0 0 20 20" fill="none" xmlns="http://www.w3.org/2000/svg">
<path fill-rule="evenodd" clip-rule="evenodd" d="M10 19.6C12.5461 19.6 14.9879 18.5886 16.7882 16.7882C18.5886 14.9879 19.6 12.5461 19.6 9.99999C19.6 7.45392 18.5886 5.01212 16.7882 3.21177C14.9879 1.41142 12.5461 0.399994 10 0.399994C7.45392 0.399994 5.01213 1.41142 3.21178 3.21177C1.41143 5.01212 0.400002 7.45392 0.400002 9.99999C0.400002 12.5461 1.41143 14.9879 3.21178 16.7882C5.01213 18.5886 7.45392 19.6 10 19.6V19.6ZM14.6284 7.82919C14.6979 7.73354 14.7479 7.62513 14.7755 7.51016C14.8031 7.3952 14.8078 7.27592 14.7893 7.15914C14.7708 7.04236 14.7294 6.93037 14.6677 6.82956C14.6059 6.72875 14.5249 6.64109 14.4292 6.57159C14.3335 6.5021 14.2251 6.45212 14.1102 6.42452C13.9952 6.39692 13.8759 6.39224 13.7591 6.41074C13.6424 6.42923 13.5304 6.47055 13.4296 6.53233C13.3288 6.59411 13.2411 6.67514 13.1716 6.77079L8.992 12.5188L6.736 10.2628C6.65294 10.1769 6.5536 10.1084 6.44377 10.0612C6.33395 10.0141 6.21584 9.98936 6.09633 9.98838C5.97683 9.98739 5.85833 10.0102 5.74775 10.0555C5.63716 10.1008 5.53671 10.1677 5.45224 10.2522C5.36778 10.3368 5.301 10.4373 5.2558 10.5479C5.2106 10.6586 5.18788 10.7771 5.18898 10.8966C5.19007 11.0161 5.21496 11.1342 5.26218 11.244C5.30939 11.3537 5.378 11.453 5.464 11.536L8.464 14.536C8.55595 14.628 8.66676 14.699 8.78878 14.744C8.9108 14.7891 9.04114 14.8072 9.17082 14.797C9.3005 14.7869 9.42643 14.7487 9.53996 14.6852C9.65348 14.6217 9.75189 14.5344 9.8284 14.4292L14.6284 7.82919Z" fill="#8CC63E"/>
</svg>
