<svg width="20" height="20" viewBox="0 0 20 20" fill="none" xmlns="http://www.w3.org/2000/svg">
<path fill-rule="evenodd" clip-rule="evenodd" d="M10 19.6C12.5461 19.6 14.9879 18.5886 16.7882 16.7882C18.5886 14.9879 19.6 12.5461 19.6 9.99999C19.6 7.45392 18.5886 5.01212 16.7882 3.21177C14.9879 1.41142 12.5461 0.399994 10 0.399994C7.45392 0.399994 5.01213 1.41142 3.21178 3.21177C1.41143 5.01212 0.400002 7.45392 0.400002 9.99999C0.400002 12.5461 1.41143 14.9879 3.21178 16.7882C5.01213 18.5886 7.45392 19.6 10 19.6V19.6ZM7.936 6.66399C7.76539 6.50502 7.53974 6.41847 7.30657 6.42258C7.07341 6.4267 6.85095 6.52115 6.68606 6.68605C6.52116 6.85094 6.42671 7.07341 6.42259 7.30657C6.41848 7.53973 6.50503 7.76538 6.664 7.93599L8.728 9.99999L6.664 12.064C6.57558 12.1464 6.50465 12.2457 6.45546 12.3561C6.40627 12.4665 6.37982 12.5857 6.37769 12.7066C6.37556 12.8274 6.39779 12.9474 6.44305 13.0595C6.48832 13.1716 6.55569 13.2734 6.64116 13.3588C6.72662 13.4443 6.82842 13.5117 6.94048 13.5569C7.05255 13.6022 7.17259 13.6244 7.29343 13.6223C7.41427 13.6202 7.53345 13.5937 7.64385 13.5445C7.75425 13.4953 7.85361 13.4244 7.936 13.336L10 11.272L12.064 13.336C12.1464 13.4244 12.2458 13.4953 12.3562 13.5445C12.4666 13.5937 12.5857 13.6202 12.7066 13.6223C12.8274 13.6244 12.9475 13.6022 13.0595 13.5569C13.1716 13.5117 13.2734 13.4443 13.3588 13.3588C13.4443 13.2734 13.5117 13.1716 13.5569 13.0595C13.6022 12.9474 13.6244 12.8274 13.6223 12.7066C13.6202 12.5857 13.5937 12.4665 13.5445 12.3561C13.4953 12.2457 13.4244 12.1464 13.336 12.064L11.272 9.99999L13.336 7.93599C13.495 7.76538 13.5815 7.53973 13.5774 7.30657C13.5733 7.07341 13.4788 6.85094 13.3139 6.68605C13.1491 6.52115 12.9266 6.4267 12.6934 6.42258C12.4603 6.41847 12.2346 6.50502 12.064 6.66399L10 8.72799L7.936 6.66399Z" fill="#F43F5E"/>
</svg>
